<svg width="24" height="24" viewBox="0 0 24 24" fill="none" xmlns="http://www.w3.org/2000/svg">
<path d="M14.7185 12.8544L15.4013 12.3172C16.3 11.6101 16.956 10.6405 17.278 9.54328C17.5999 8.44605 17.5719 7.27574 17.1978 6.19518C16.8237 5.11461 16.1221 4.17753 15.1905 3.51428C14.259 2.85104 13.144 2.49463 12.0005 2.49463C10.857 2.49463 9.74192 2.85104 8.81042 3.51428C7.87892 4.17753 7.1773 5.11461 6.80318 6.19518C6.42906 7.27574 6.40104 8.44605 6.72302 9.54328C7.04499 10.6405 7.70096 11.6101 8.59965 12.3172L9.2799 12.8524L8.47644 13.1743C6.88051 13.8137 5.48801 14.8741 4.44738 16.2427C3.40676 17.6112 2.75702 19.2365 2.56744 20.9453L2.07048 20.8901M14.7185 12.8544L4.07049 21.1101C4.29007 19.1553 5.22217 17.3499 6.6887 16.0389C8.15524 14.7279 10.0534 14.0032 12.0205 14.0032C13.9876 14.0032 15.8857 14.7279 17.3523 16.0389C18.8188 17.3499 19.7509 19.1553 19.9705 21.1101C19.9977 21.3558 20.1149 21.5828 20.2996 21.7471C20.4843 21.9115 20.7233 22.0016 20.9705 22.0001H21.0805M14.7185 12.8544L15.526 13.1749C17.1286 13.8109 18.5279 14.871 19.5739 16.2417C20.6195 17.6119 21.2727 19.2409 21.4634 20.954M14.7185 12.8544L21.9605 20.9001M2.07048 20.8901L2.56749 20.9448C2.56022 21.0108 2.56604 21.0777 2.5846 21.1415C2.60317 21.2053 2.63412 21.2648 2.67569 21.3167L2.2856 21.6294L2.67569 21.3167C2.75964 21.4214 2.88175 21.4884 3.01515 21.5031C3.14856 21.5178 3.28233 21.4789 3.38703 21.3949C3.49174 21.311 3.55881 21.1889 3.57348 21.0555L3.57361 21.0543C3.80692 18.9773 4.79728 17.0591 6.35547 15.6662C7.91366 14.2732 9.93044 13.5032 12.0205 13.5032C14.1105 13.5032 16.1273 14.2732 17.6855 15.6662C19.2437 17.0591 20.234 18.9773 20.4674 21.0543L20.4675 21.0551C20.481 21.178 20.5397 21.2915 20.632 21.3736C20.7243 21.4558 20.8438 21.5009 20.9675 21.5001L20.9705 21.5001L21.0469 21.5001M2.07048 20.8901C2.27005 19.0914 2.95398 17.3806 4.04938 15.94C5.03117 14.6489 6.31051 13.6182 7.77489 12.9337L2.07048 20.8901ZM21.0469 21.5001C21.0391 21.5014 21.0312 21.5025 21.0233 21.5034L21.0805 22.0001M21.0469 21.5001H21.0805V22.0001M21.0469 21.5001C21.1687 21.4802 21.2792 21.4158 21.3566 21.319C21.4389 21.2162 21.4773 21.085 21.4634 20.954M21.0805 22.0001C21.3426 21.97 21.5822 21.8374 21.747 21.6314C21.9119 21.4253 21.9886 21.1625 21.9605 20.9001M21.9605 20.9001L21.4635 20.9554C21.4635 20.9549 21.4634 20.9544 21.4634 20.954M21.9605 20.9001L21.4633 20.9534C21.4633 20.9536 21.4634 20.9538 21.4634 20.954M9.50042 11.7417C10.2404 12.2362 11.1105 12.5001 12.0005 12.5001C13.194 12.5001 14.3386 12.026 15.1825 11.1821C16.0264 10.3382 16.5005 9.1936 16.5005 8.00012C16.5005 7.11011 16.2366 6.24008 15.7421 5.50006C15.2476 4.76004 14.5448 4.18326 13.7226 3.84267C12.9003 3.50207 11.9955 3.41296 11.1226 3.58659C10.2497 3.76022 9.44784 4.18881 8.8185 4.81814C8.18917 5.44748 7.76058 6.2493 7.58695 7.12222C7.41332 7.99513 7.50243 8.89993 7.84303 9.7222C8.18362 10.5445 8.7604 11.2473 9.50042 11.7417Z" fill="#424C5D" stroke="#424C5D"/>
</svg>
