<svg width="58" height="58" viewBox="0 0 58 58" fill="none" xmlns="http://www.w3.org/2000/svg">
<path d="M35.4908 27.8219L15.4282 24.2875V50.4038C15.4285 50.6875 15.4846 50.9684 15.5934 51.2304C15.7022 51.4925 15.8615 51.7305 16.0623 51.931C16.2631 52.1314 16.5014 52.2904 16.7636 52.3987C17.0258 52.5071 17.3068 52.5627 17.5905 52.5625H52.2093C52.4933 52.5632 52.7747 52.5079 53.0373 52.3998C53.3 52.2916 53.5387 52.1327 53.7399 51.9322C53.941 51.7317 54.1007 51.4935 54.2097 51.2313C54.3187 50.969 54.375 50.6878 54.3752 50.4038V40.7812L35.4908 27.8219Z" fill="#185C37"/>
<path d="M35.4908 5.4375H17.5905C17.3068 5.43726 17.0258 5.49291 16.7636 5.60127C16.5014 5.70962 16.2631 5.86856 16.0623 6.06901C15.8615 6.26947 15.7022 6.50751 15.5934 6.76954C15.4846 7.03157 15.4285 7.31247 15.4282 7.59619V17.2188L35.4908 29L46.1138 32.5344L54.3752 29V17.2188L35.4908 5.4375Z" fill="#21A366"/>
<path d="M15.4282 17.2188H35.4908V29H15.4282V17.2188Z" fill="#107C41"/>
<path opacity="0.1" d="M29.7868 14.8625H15.4282V44.3156H29.7868C30.359 44.3128 30.907 44.0846 31.3121 43.6805C31.7171 43.2765 31.9467 42.7291 31.951 42.1569V17.0212C31.9467 16.449 31.7171 15.9016 31.3121 15.4976C30.907 15.0935 30.359 14.8653 29.7868 14.8625Z" fill="black"/>
<path opacity="0.2" d="M28.6069 16.0406H15.4282V45.4938H28.6069C29.1791 45.4909 29.727 45.2628 30.1321 44.8587C30.5372 44.4546 30.7667 43.9072 30.771 43.3351V18.1993C30.7667 17.6272 30.5372 17.0798 30.1321 16.6757C29.727 16.2717 29.1791 16.0435 28.6069 16.0406Z" fill="black"/>
<path opacity="0.2" d="M28.6069 16.0406H15.4282V43.1375H28.6069C29.1791 43.1347 29.727 42.9065 30.1321 42.5024C30.5372 42.0984 30.7667 41.551 30.771 40.9788V18.1993C30.7667 17.6272 30.5372 17.0798 30.1321 16.6757C29.727 16.2717 29.1791 16.0435 28.6069 16.0406Z" fill="black"/>
<path opacity="0.2" d="M27.427 16.0406H15.4282V43.1375H27.427C27.9991 43.1347 28.5471 42.9065 28.9522 42.5024C29.3573 42.0984 29.5868 41.551 29.5911 40.9788V18.1993C29.5868 17.6272 29.3573 17.0798 28.9522 16.6757C28.5471 16.2717 27.9991 16.0435 27.427 16.0406Z" fill="black"/>
<path d="M5.78912 16.0407H27.4268C27.9999 16.0402 28.5498 16.2673 28.9556 16.6721C29.3614 17.0768 29.5899 17.6262 29.5909 18.1993V39.8007C29.5899 40.3739 29.3614 40.9232 28.9556 41.328C28.5498 41.7328 27.9999 41.9599 27.4268 41.9594H5.78912C5.50525 41.9599 5.22407 41.9044 4.96164 41.7962C4.69922 41.6879 4.4607 41.529 4.25972 41.3285C4.05874 41.1281 3.89923 40.8899 3.79032 40.6278C3.68142 40.3656 3.62524 40.0846 3.625 39.8007V18.1993C3.62524 17.9155 3.68142 17.6344 3.79032 17.3723C3.89923 17.1101 4.05874 16.872 4.25972 16.6715C4.4607 16.471 4.69922 16.3121 4.96164 16.2039C5.22407 16.0956 5.50525 16.0402 5.78912 16.0407Z" fill="url(#paint0_linear_1513_9222)"/>
<path d="M10.3311 36.0198L14.8822 28.98L10.7135 21.9802H14.0612L16.3359 26.4625C16.5461 26.8866 16.6984 27.202 16.7672 27.4122H16.7981C16.9467 27.0715 17.1044 26.7434 17.2693 26.4226L19.7017 21.9874H22.7829L18.5072 28.9474L22.8917 36.0252H19.6129L16.9847 31.1115C16.8627 30.9003 16.759 30.6789 16.6748 30.45H16.6313C16.5547 30.6731 16.4525 30.8865 16.3268 31.0862L13.6207 36.0198H10.3311Z" fill="white"/>
<path d="M52.211 5.4375H35.4907V17.2188H54.3752V7.59619C54.3749 7.31232 54.3187 7.03127 54.2098 6.76912C54.1009 6.50697 53.9414 6.26885 53.7404 6.06838C53.5395 5.8679 53.3009 5.709 53.0385 5.60075C52.7761 5.4925 52.4949 5.43703 52.211 5.4375Z" fill="#33C481"/>
<path d="M35.4907 29H54.3752V40.7812H35.4907V29Z" fill="#107C41"/>
<defs>
<linearGradient id="paint0_linear_1513_9222" x1="8.14537" y1="14.3442" x2="25.0705" y2="43.6559" gradientUnits="userSpaceOnUse">
<stop stop-color="#18884F"/>
<stop offset="0.5" stop-color="#117E43"/>
<stop offset="1" stop-color="#0B6631"/>
</linearGradient>
</defs>
</svg>
