<svg width="16" height="16" viewBox="0 0 16 16" fill="none" xmlns="http://www.w3.org/2000/svg">
<path fill-rule="evenodd" clip-rule="evenodd" d="M8.00001 14.4C9.69739 14.4 11.3253 13.7257 12.5255 12.5255C13.7257 11.3253 14.4 9.69739 14.4 8.00001C14.4 6.30262 13.7257 4.67476 12.5255 3.47452C11.3253 2.27429 9.69739 1.60001 8.00001 1.60001C6.30262 1.60001 4.67476 2.27429 3.47452 3.47452C2.27429 4.67476 1.60001 6.30262 1.60001 8.00001C1.60001 9.69739 2.27429 11.3253 3.47452 12.5255C4.67476 13.7257 6.30262 14.4 8.00001 14.4ZM10.9656 6.96561C11.1113 6.81472 11.192 6.61264 11.1901 6.40288C11.1883 6.19313 11.1042 5.99248 10.9559 5.84415C10.8075 5.69582 10.6069 5.61169 10.3971 5.60987C10.1874 5.60804 9.98529 5.68868 9.83441 5.83441L7.20001 8.46881L6.16561 7.43441C6.01472 7.28868 5.81264 7.20804 5.60288 7.20987C5.39313 7.21169 5.19248 7.29582 5.04415 7.44415C4.89582 7.59248 4.81169 7.79313 4.80987 8.00288C4.80804 8.21264 4.88868 8.41472 5.03441 8.56561L6.63441 10.1656C6.78443 10.3156 6.98787 10.3998 7.20001 10.3998C7.41214 10.3998 7.61558 10.3156 7.76561 10.1656L10.9656 6.96561Z" fill="#75839D"/>
</svg>
