<svg width="24" height="24" viewBox="0 0 24 24" fill="none" xmlns="http://www.w3.org/2000/svg">
<path d="M19.0547 2H5.05469C4.2593 2.00087 3.49675 2.31722 2.93433 2.87964C2.3719 3.44206 2.05556 4.20462 2.05469 5V19C2.05556 19.7954 2.3719 20.5579 2.93433 21.1204C3.49675 21.6828 4.2593 21.9991 5.05469 22H19.0547C19.8501 21.9991 20.6126 21.6828 21.175 21.1204C21.7375 20.5579 22.0538 19.7954 22.0547 19V5C22.0538 4.20462 21.7375 3.44206 21.175 2.87964C20.6126 2.31722 19.8501 2.00087 19.0547 2ZM5.05469 4H19.0547C19.3198 4.00026 19.574 4.10571 19.7615 4.29319C19.949 4.48066 20.0544 4.73486 20.0547 5V13H17.5898C17.2605 12.9997 16.9363 13.0809 16.646 13.2363C16.3556 13.3917 16.1082 13.6165 15.9258 13.8906L14.5195 16H9.58985L8.1836 13.8906C8.00117 13.6165 7.75377 13.3917 7.46343 13.2363C7.1731 13.0809 6.84884 12.9997 6.51954 13H4.05469V5C4.05495 4.73486 4.16039 4.48066 4.34787 4.29319C4.53535 4.10571 4.78955 4.00026 5.05469 4ZM19.0547 20H5.05469C4.78955 19.9997 4.53535 19.8943 4.34787 19.7068C4.16039 19.5193 4.05495 19.2651 4.05469 19V15H6.51954L7.92579 17.1094C8.10822 17.3835 8.35562 17.6083 8.64595 17.7637C8.93629 17.9191 9.26054 18.0003 9.58985 18H14.5195C14.8488 18.0003 15.1731 17.9191 15.4634 17.7637C15.7538 17.6083 16.0012 17.3835 16.1836 17.1094L17.5898 15H20.0547V19C20.0544 19.2651 19.949 19.5193 19.7615 19.7068C19.574 19.8943 19.3198 19.9997 19.0547 20Z" fill="#0061FF"/>
</svg>
