<svg width="24" height="24" viewBox="0 0 24 24" fill="none" xmlns="http://www.w3.org/2000/svg">
<path d="M21.3282 10.6237L21.3291 10.6245C21.4056 10.6921 21.4595 10.7816 21.4836 10.8808C21.5078 10.98 21.5009 11.0842 21.4641 11.1795L21.4639 11.18C21.4276 11.2739 21.3638 11.3548 21.2809 11.4119C21.198 11.4688 21.1 11.4995 20.9994 11.5H20.0004H19.5004V12V21C19.5004 21.1326 19.4477 21.2597 19.3539 21.3535C19.2601 21.4473 19.133 21.5 19.0004 21.5H5.00036C4.86775 21.5 4.74058 21.4473 4.64681 21.3535C4.55304 21.2597 4.50036 21.1326 4.50036 21V12V11.5H4.00036H3.0013C2.90076 11.4995 2.80269 11.4688 2.71987 11.4119C2.63689 11.3548 2.5731 11.2739 2.53684 11.18L2.53665 11.1795C2.49978 11.0842 2.49296 10.98 2.5171 10.8808C2.54123 10.7816 2.59516 10.6921 2.67165 10.6245L2.67254 10.6237L11.6704 2.62559C11.6707 2.62532 11.671 2.62506 11.6713 2.62479C11.7624 2.54513 11.8793 2.50122 12.0004 2.50122C12.1214 2.50122 12.2383 2.54514 12.3295 2.62479C12.3298 2.62506 12.3301 2.62532 12.3304 2.62559L21.3282 10.6237ZM13.0004 20.5H13.5004V20V17C13.5004 16.6021 13.3423 16.2206 13.061 15.9393C12.7797 15.658 12.3982 15.5 12.0004 15.5C11.6025 15.5 11.221 15.658 10.9397 15.9393C10.6584 16.2206 10.5004 16.6021 10.5004 17V20V20.5H11.0004H13.0004ZM18.0004 20.5H18.5004V20V12V11.5H18.0004H6.00036H5.50036V12V20V20.5H6.00036H9.00036H9.50036V20V17C9.50036 16.3369 9.76375 15.701 10.2326 15.2322C10.7014 14.7633 11.3373 14.5 12.0004 14.5C12.6634 14.5 13.2993 14.7633 13.7681 15.2322C14.237 15.701 14.5004 16.3369 14.5004 17V20V20.5H15.0004H18.0004ZM5.29825 9.62619L4.31488 10.5H5.63036H18.3704H19.6858L18.7025 9.62619L12.3325 3.96619L12.0004 3.67109L11.6683 3.96619L5.29825 9.62619Z" fill="black" stroke="#424C5D"/>
</svg>
