<svg width="163" height="36" viewBox="0 0 163 36" fill="none" xmlns="http://www.w3.org/2000/svg">
<path d="M51.0711 10.8102C55.0076 10.8102 58.2094 13.9296 58.2094 17.7646C58.2094 21.5997 55.0076 24.7191 51.0711 24.7191H46.1761V10.8102H51.0711ZM51.0711 6.82888H44.3356C43.1085 6.82888 42.0895 7.81907 42.0895 9.01705V26.5148C42.0895 27.7102 43.1059 28.703 44.3356 28.703H51.0711C57.2799 28.703 62.296 23.8161 62.296 17.7672C62.296 11.7183 57.2799 6.82888 51.0711 6.82888Z" fill="black"/>
<path d="M82.0055 26.7143C82.0055 27.802 81.0812 28.7024 79.9648 28.7024C78.8484 28.7024 77.9241 27.802 77.9241 26.7143V20.75C77.9241 18.5439 76.1073 16.7738 73.8428 16.7738C71.5784 16.7738 69.7615 18.5439 69.7615 20.75V26.7143C69.7615 27.802 68.8373 28.7024 67.7209 28.7024C66.6044 28.7024 65.6802 27.802 65.6802 26.7143V8.81892C65.6802 7.73125 66.6044 6.83083 67.7209 6.83083C68.8373 6.83083 69.7615 7.73125 69.7615 8.81892V13.8828C70.9411 13.2004 72.3446 12.7951 73.8428 12.7951C78.3375 12.7951 82.0055 16.3685 82.0055 20.7474V26.7143Z" fill="black"/>
<path d="M90.0425 26.7146C90.0425 27.8023 89.1183 28.7027 88.0018 28.7027C86.8854 28.7027 85.9612 27.8023 85.9612 26.7146V14.7861C85.9612 13.6984 86.8854 12.798 88.0018 12.798C89.1183 12.798 90.0425 13.6984 90.0425 14.7861V26.7146Z" fill="black"/>
<path d="M116.955 26.7143C116.955 27.802 116.031 28.7024 114.914 28.7024C114.372 28.7024 113.861 28.4843 113.479 28.1124L105.73 20.5627L97.9833 28.1124C97.6015 28.4843 97.0906 28.7024 96.5482 28.7024C95.4318 28.7024 94.5076 27.802 94.5076 26.7143V8.81892C94.5076 7.73125 95.4318 6.83083 96.5482 6.83083C97.6647 6.83083 98.5889 7.73125 98.5889 8.81892V21.93L104.297 16.3685C104.679 15.9658 105.222 15.7785 105.733 15.7785C106.243 15.7785 106.786 15.9658 107.168 16.3685L112.876 21.93V8.81892C112.876 7.73125 113.8 6.83083 114.917 6.83083C116.033 6.83083 116.957 7.73125 116.957 8.81892V26.7143H116.955Z" fill="black"/>
<path d="M125.501 26.7146C125.501 27.8023 124.577 28.7027 123.46 28.7027C122.344 28.7027 121.42 27.8023 121.42 26.7146V14.7861C121.42 13.6984 122.344 12.798 123.46 12.798C124.577 12.798 125.501 13.6984 125.501 14.7861V26.7146Z" fill="black"/>
<path d="M138.641 24.7258C139.215 24.7258 139.66 24.2923 139.66 23.7305C139.66 23.1687 139.215 22.7351 138.641 22.7351H134.56C131.753 22.7351 129.457 20.4982 129.457 17.7636C129.457 15.0291 131.753 12.7921 134.56 12.7921H140.682C141.798 12.7921 142.722 13.6926 142.722 14.7802C142.722 15.8679 141.798 16.7683 140.682 16.7683H134.56C133.986 16.7683 133.538 17.2019 133.538 17.7636C133.538 18.3254 133.983 18.759 134.56 18.759H138.641C141.448 18.759 143.741 20.9959 143.741 23.7305C143.741 26.4651 141.445 28.702 138.641 28.702H131.497C130.381 28.702 129.457 27.8016 129.457 26.7139C129.457 25.6262 130.381 24.7258 131.497 24.7258H138.641Z" fill="black"/>
<path d="M154.838 28.7027C150.34 28.7027 146.675 25.1293 146.675 20.7504C146.675 16.3714 150.34 12.798 154.838 12.798C159.332 12.798 163 16.3714 163 20.7504C163 21.838 162.076 22.7385 160.96 22.7385H151.296C151.999 23.9493 153.305 24.7265 154.835 24.7265H156.876C157.992 24.7265 158.916 25.627 158.916 26.7146C158.916 27.8023 157.992 28.7027 156.876 28.7027H154.838ZM151.296 18.7597H158.374C157.673 17.5797 156.333 16.7716 154.835 16.7716C153.305 16.7716 151.999 17.5797 151.296 18.7597Z" fill="black"/>
<path d="M88.0027 11.3047C89.2708 11.3047 90.2987 10.3032 90.2987 9.06775C90.2987 7.83234 89.2708 6.83083 88.0027 6.83083C86.7346 6.83083 85.7066 7.83234 85.7066 9.06775C85.7066 10.3032 86.7346 11.3047 88.0027 11.3047Z" fill="url(#paint0_linear_267_11223)"/>
<path d="M123.461 11.3047C124.729 11.3047 125.757 10.3032 125.757 9.06775C125.757 7.83234 124.729 6.83083 123.461 6.83083C122.193 6.83083 121.165 7.83234 121.165 9.06775C121.165 10.3032 122.193 11.3047 123.461 11.3047Z" fill="url(#paint1_linear_267_11223)"/>
<path d="M25.4305 0H2.34083C1.04798 0 0 1.02098 0 2.28053V27.1329C0 28.0564 0.571384 28.8876 1.44558 29.239C2.31713 29.5904 3.32561 29.3955 3.99706 28.7439L15.2694 17.762C16.1831 16.8718 16.1831 15.4276 15.2694 14.5374C14.3557 13.6473 12.8733 13.6473 11.9596 14.5374L4.68166 21.6278V4.56106H25.4332C28.9378 4.56106 31.7869 7.33925 31.7869 10.7511V24.7754C31.7869 28.1898 28.9352 30.9654 25.4332 30.9654H14.2688L21.5467 23.875C22.4604 22.9849 22.4604 21.5406 21.5467 20.6505C20.633 19.7603 19.1506 19.7603 18.2369 20.6505L6.96193 31.635C6.29312 32.2865 6.09301 33.269 6.45374 34.1207C6.81711 34.9724 7.67024 35.5291 8.61552 35.5291H25.4279C31.513 35.5291 36.4633 30.7063 36.4633 24.778V10.7536C36.4685 4.82528 31.5183 0 25.4305 0Z" fill="url(#paint2_linear_267_11223)"/>
<path d="M25.3349 19.2446C26.6278 19.2446 27.6757 18.2236 27.6757 16.9641V10.8484C27.6757 9.5889 26.6278 8.56792 25.3349 8.56792H19.0576C17.7647 8.56792 16.7167 9.5889 16.7167 10.8484C16.7167 12.108 17.7647 13.129 19.0576 13.129H22.9941V16.9641C22.9941 18.2236 24.042 19.2446 25.3349 19.2446Z" fill="url(#paint3_linear_267_11223)"/>
<defs>
<linearGradient id="paint0_linear_267_11223" x1="85.7073" y1="9.06686" x2="90.2982" y2="9.06686" gradientUnits="userSpaceOnUse">
<stop stop-color="#0068FF"/>
<stop offset="1" stop-color="#0000E1"/>
</linearGradient>
<linearGradient id="paint1_linear_267_11223" x1="121.166" y1="9.06686" x2="125.757" y2="9.06686" gradientUnits="userSpaceOnUse">
<stop stop-color="#FF9852"/>
<stop offset="0.2774" stop-color="#FF8A3A"/>
<stop offset="1" stop-color="#FF6700"/>
</linearGradient>
<linearGradient id="paint2_linear_267_11223" x1="22.8401" y1="10.7936" x2="3.74928" y2="30.3892" gradientUnits="userSpaceOnUse">
<stop stop-color="#0068FF"/>
<stop offset="1" stop-color="#0000E1"/>
</linearGradient>
<linearGradient id="paint3_linear_267_11223" x1="27.4669" y1="8.77234" x2="20.502" y2="15.9214" gradientUnits="userSpaceOnUse">
<stop stop-color="#FF9852"/>
<stop offset="0.2774" stop-color="#FF8A3A"/>
<stop offset="1" stop-color="#FF6700"/>
</linearGradient>
</defs>
</svg>
