<svg width="24" height="24" viewBox="0 0 24 24" fill="none" xmlns="http://www.w3.org/2000/svg">
<path d="M15.5496 9.00005C15.6741 9.04746 15.8064 9.0712 15.9396 9.07005H19.9396C20.2048 9.07005 20.4592 8.96469 20.6467 8.77716C20.8343 8.58962 20.9396 8.33527 20.9396 8.07005C20.9396 7.80483 20.8343 7.55048 20.6467 7.36294C20.4592 7.17541 20.2048 7.07005 19.9396 7.07005H18.3496L21.6396 3.78005C21.7443 3.6904 21.8293 3.58009 21.8893 3.45602C21.9494 3.33196 21.9831 3.19682 21.9884 3.0591C21.9937 2.92139 21.9705 2.78405 21.9202 2.65573C21.87 2.5274 21.7937 2.41086 21.6963 2.3134C21.5988 2.21595 21.4823 2.13969 21.3539 2.08941C21.2256 2.03914 21.0883 2.01593 20.9506 2.02125C20.8128 2.02657 20.6777 2.0603 20.5536 2.12033C20.4296 2.18035 20.3193 2.26537 20.2296 2.37005L16.9396 5.65005V4.06005C16.9396 3.79483 16.8343 3.54048 16.6467 3.35294C16.4592 3.16541 16.2048 3.06005 15.9396 3.06005C15.6744 3.06005 15.42 3.16541 15.2325 3.35294C15.045 3.54048 14.9396 3.79483 14.9396 4.06005V8.06005C14.9385 8.19328 14.9622 8.32554 15.0096 8.45005C15.0588 8.57289 15.1318 8.68476 15.2245 8.77917C15.3172 8.87358 15.4277 8.94866 15.5496 9.00005ZM19.4396 13.0001C19.2196 13.0001 18.9896 12.9301 18.7696 12.8801C18.3241 12.7819 17.8863 12.6515 17.4596 12.4901C16.9957 12.3213 16.4858 12.33 16.0279 12.5147C15.5701 12.6993 15.1967 13.0467 14.9796 13.4901L14.7596 13.9401C13.7856 13.3982 12.8906 12.7253 12.0996 11.9401C11.3144 11.1491 10.6414 10.254 10.0996 9.28005L10.5196 9.00005C10.963 8.78297 11.3104 8.40958 11.495 7.95174C11.6796 7.4939 11.6884 6.98396 11.5196 6.52005C11.3608 6.09247 11.2305 5.65485 11.1296 5.21005C11.0796 4.99005 11.0396 4.76005 11.0096 4.53005C10.8882 3.82567 10.5192 3.18779 9.96923 2.73129C9.41923 2.27479 8.72431 2.02966 8.00961 2.04005H5.00961C4.57864 2.036 4.15186 2.12486 3.75832 2.30058C3.36478 2.4763 3.01372 2.73475 2.72904 3.05833C2.44436 3.38192 2.23275 3.76305 2.1086 4.17577C1.98445 4.58849 1.95069 5.02311 2.00961 5.45005C2.54235 9.63943 4.45564 13.5319 7.44726 16.5127C10.4389 19.4934 14.3383 21.3926 18.5296 21.9101H18.9096C19.647 21.9111 20.359 21.6406 20.9096 21.1501C21.226 20.8671 21.4787 20.5202 21.6511 20.1324C21.8235 19.7445 21.9116 19.3245 21.9096 18.9001V15.9001C21.8974 15.2054 21.6444 14.5366 21.194 14.0077C20.7435 13.4788 20.1234 13.1227 19.4396 13.0001ZM19.9396 19.0001C19.9394 19.142 19.909 19.2824 19.8504 19.4117C19.7918 19.541 19.7063 19.6563 19.5996 19.7501C19.4879 19.8465 19.3572 19.9186 19.216 19.9616C19.0748 20.0047 18.9262 20.0178 18.7796 20.0001C15.0345 19.5199 11.5558 17.8065 8.89233 15.1303C6.22881 12.4541 4.53202 8.96739 4.06961 5.22005C4.0537 5.07357 4.06765 4.92538 4.11061 4.78444C4.15358 4.6435 4.22468 4.51274 4.31961 4.40005C4.41332 4.29338 4.52867 4.20789 4.65799 4.14927C4.78731 4.09064 4.92763 4.06023 5.06961 4.06005H8.06961C8.30216 4.05488 8.52924 4.13093 8.71176 4.27512C8.89428 4.41931 9.02082 4.62262 9.06961 4.85005C9.10961 5.12338 9.15961 5.39338 9.21961 5.66005C9.33513 6.1872 9.48887 6.70523 9.67961 7.21005L8.27961 7.86005C8.15991 7.91497 8.05223 7.993 7.96277 8.08965C7.87331 8.1863 7.80381 8.29967 7.75828 8.42325C7.71275 8.54683 7.69208 8.67818 7.69746 8.80977C7.70284 8.94136 7.73415 9.0706 7.78961 9.19005C9.22881 12.2728 11.7069 14.7509 14.7896 16.1901C15.0331 16.2901 15.3062 16.2901 15.5496 16.1901C15.6743 16.1454 15.7889 16.0765 15.8868 15.9872C15.9846 15.898 16.0638 15.7902 16.1196 15.6701L16.7396 14.2701C17.2566 14.4549 17.7842 14.6085 18.3196 14.7301C18.5863 14.7901 18.8563 14.8401 19.1296 14.8801C19.357 14.9288 19.5604 15.0554 19.7045 15.2379C19.8487 15.4204 19.9248 15.6475 19.9196 15.8801L19.9396 19.0001Z" fill="#0061FF"/>
</svg>
