<svg width="24" height="24" viewBox="0 0 24 24" fill="none" xmlns="http://www.w3.org/2000/svg">
<path d="M20.4996 9.60073C19.9996 5.00073 15.8996 1.50073 11.1996 2.00073C6.49957 2.50073 3.09957 6.60073 3.59957 11.3007C3.79957 13.3007 4.69957 15.1007 6.09957 16.5007L11.3996 21.8007C11.7996 22.2007 12.3996 22.2007 12.7996 21.8007L18.0996 16.5007C19.7996 14.7007 20.6996 12.2007 20.4996 9.60073ZM11.9996 15.0007C9.49957 15.0007 7.49957 13.0007 7.49957 10.5007C7.49957 8.00073 9.49957 6.00073 11.9996 6.00073C14.4996 6.00073 16.4996 8.00073 16.4996 10.5007C16.4996 12.9007 14.4996 15.0007 11.9996 15.0007Z" fill="#0061FF"/>
</svg>
