<svg width="480" height="320" viewBox="0 0 480 320" fill="none" xmlns="http://www.w3.org/2000/svg">
<path d="M251.642 150.866L249.035 147.108H244.469C244.356 147.107 244.245 147.074 244.148 147.015C244.052 146.956 243.974 146.871 243.921 146.771C243.869 146.671 243.845 146.558 243.852 146.445C243.858 146.332 243.896 146.223 243.959 146.13L246.732 142.499L245.282 138.145C245.244 138.034 245.238 137.914 245.265 137.799C245.292 137.685 245.351 137.58 245.435 137.497C245.519 137.414 245.624 137.357 245.739 137.331C245.855 137.306 245.975 137.313 246.086 137.353L250.407 138.869L254.101 136.178C254.196 136.114 254.306 136.077 254.42 136.071C254.534 136.065 254.647 136.089 254.748 136.143C254.849 136.196 254.933 136.276 254.992 136.374C255.05 136.471 255.081 136.583 255.081 136.697L254.973 141.257L258.697 144.016C258.792 144.085 258.865 144.178 258.909 144.286C258.953 144.394 258.966 144.512 258.947 144.627C258.928 144.741 258.876 144.849 258.799 144.936C258.722 145.024 258.623 145.088 258.511 145.122L254.131 146.433L252.72 150.778C252.674 150.878 252.603 150.965 252.513 151.029C252.423 151.092 252.317 151.131 252.207 151.14C252.097 151.149 251.986 151.128 251.887 151.08C251.787 151.032 251.703 150.958 251.642 150.866Z" fill="#F37458"/>
<path d="M372.278 68.1331L374.689 62.5654L371.455 57.4185C371.372 57.287 371.327 57.1348 371.326 56.9792C371.325 56.8237 371.368 56.671 371.45 56.5385C371.531 56.406 371.649 56.299 371.788 56.2297C371.928 56.1604 372.084 56.1316 372.239 56.1465L378.295 56.714L382.214 52.0465C382.315 51.9286 382.447 51.8409 382.595 51.7931C382.743 51.7453 382.901 51.7393 383.052 51.7757C383.204 51.8122 383.342 51.8897 383.451 51.9997C383.561 52.1096 383.638 52.2478 383.674 52.3988L385.007 58.3285L390.642 60.5889C390.786 60.6481 390.911 60.746 391.002 60.8717C391.094 60.9975 391.149 61.1462 391.161 61.3014C391.173 61.4565 391.142 61.6119 391.071 61.7504C391 61.8889 390.892 62.0051 390.759 62.086L385.526 65.1781L385.115 71.235C385.104 71.3899 385.051 71.5387 384.96 71.6647C384.869 71.7906 384.744 71.8886 384.601 71.9477C384.457 72.0067 384.299 72.0245 384.146 71.9988C383.993 71.9731 383.85 71.9051 383.733 71.8025L379.167 67.7907L373.287 69.278C373.133 69.3231 372.97 69.3234 372.816 69.2788C372.662 69.2343 372.523 69.1468 372.417 69.0266C372.312 68.9063 372.242 68.7584 372.217 68.6002C372.193 68.4419 372.214 68.2799 372.278 68.1331Z" fill="#F8CC7F"/>
<path d="M57.4037 221.318L54.3071 215.447L47.6829 214.645C47.5123 214.624 47.3509 214.556 47.2168 214.449C47.0828 214.341 46.9815 214.199 46.9244 214.037C46.8673 213.875 46.8567 213.7 46.8938 213.533C46.9308 213.365 47.0141 213.211 47.1342 213.089L51.8084 208.323L50.5345 201.748C50.5039 201.582 50.5204 201.41 50.5819 201.253C50.6435 201.095 50.7478 200.958 50.8832 200.856C51.0185 200.755 51.1795 200.693 51.3481 200.677C51.5167 200.662 51.6863 200.694 51.8378 200.769L57.8152 203.705L63.6947 200.466C63.8436 200.381 64.0135 200.34 64.1848 200.347C64.3561 200.354 64.5219 200.41 64.6631 200.507C64.8044 200.604 64.9153 200.739 64.9832 200.896C65.0511 201.053 65.0732 201.226 65.047 201.396L64.0671 208.001L68.9666 212.541C69.0911 212.658 69.1803 212.808 69.2242 212.974C69.268 213.139 69.2649 213.313 69.215 213.477C69.1651 213.641 69.0705 213.787 68.9418 213.9C68.8131 214.013 68.6554 214.088 68.4865 214.116L61.9015 215.222L59.0499 221.318C58.9759 221.473 58.8593 221.605 58.7137 221.697C58.568 221.789 58.3991 221.837 58.2268 221.837C58.0544 221.837 57.8856 221.789 57.7399 221.697C57.5942 221.605 57.4776 221.473 57.4037 221.318Z" fill="#A0BFE4"/>
<path d="M410.886 79.3567L410.955 82.5857L405.771 83.2805L405.301 88.0164L401.499 89.171L402.086 91.0987L407.162 89.5527L407.613 85.0613L413.012 84.3372L412.895 79.4741L410.886 79.3567Z" fill="#476EB5"/>
<path d="M123.489 46.293C123.637 45.2639 124.185 44.3343 125.013 43.7046C125.842 43.0749 126.885 42.7956 127.918 42.9269C128.684 43.034 129.402 43.3651 129.98 43.8787C130.558 44.3923 130.971 45.0653 131.167 45.8129C131.363 46.5605 131.332 47.3493 131.08 48.0798C130.828 48.8102 130.364 49.4498 129.749 49.9178C129.133 50.3858 128.392 50.6613 127.62 50.7095C126.847 50.7578 126.078 50.5767 125.408 50.1891C124.739 49.8015 124.199 49.2246 123.858 48.5313C123.516 47.8379 123.388 47.0591 123.489 46.293ZM125.576 40.4904L126.614 23.4743C126.636 23.1407 126.725 22.8151 126.877 22.5169C127.028 22.2188 127.238 21.9543 127.495 21.7394C127.751 21.5246 128.048 21.3638 128.369 21.2667C128.689 21.1697 129.025 21.1384 129.358 21.1748L131.053 21.3607C131.386 21.3988 131.707 21.5037 131.998 21.6691C132.288 21.8344 132.543 22.0568 132.745 22.3229C132.947 22.5889 133.094 22.8931 133.175 23.2171C133.257 23.5411 133.271 23.8782 133.219 24.2081L130.495 41.0384L125.576 40.4904Z" fill="#F58D80"/>
<path d="M112.68 131.932C112.797 136.159 113.885 145.21 123.459 146.707C129.407 147.637 137.03 142.304 136.54 138.38C136.05 134.456 134.963 124.475 128.701 122.195C123.566 120.287 112.425 122.489 112.68 131.932Z" fill="#194655"/>
<path d="M192.651 268.355C194.013 274.04 195.071 282.24 195.473 282.699C195.659 282.915 196.051 284.343 196.247 284.578C202.44 286.829 207.879 284.51 212.19 281.956C208.81 281.359 204.253 280.733 203.626 280.292C201.274 278.629 201.833 272.729 201.411 267.435C199.706 267.728 195.669 266.672 192.651 268.355Z" fill="#F8A491"/>
<path d="M195.345 282.377C195.345 284.617 196.825 289.412 197.305 289.402C197.785 289.392 216.443 287.788 218.197 284.94C219.245 283.228 216.384 282.778 212.219 282.005C207.878 284.51 195.855 283.776 195.345 282.377Z" fill="#476EB5"/>
<path d="M104.322 281.007C101.391 283.309 98.314 285.42 95.1109 287.328C94.8561 287.445 93.3666 287.445 93.0923 287.563C89.2608 292.915 90.0447 298.776 91.348 303.6C92.8375 300.508 94.5817 296.193 95.2677 295.772C99.0885 293.569 103.068 291.652 107.174 290.038C104.802 287.553 105.135 284.392 104.322 281.007Z" fill="#F8A491"/>
<path d="M114.12 162.295L100.823 186.444L87.3589 203.343C88.3388 204.957 89.3187 206.611 90.1516 208.304C94.6984 204.439 104.39 196.229 107.849 191.669C112.954 184.967 122.205 169.066 122.205 169.066L114.12 162.295Z" fill="#F8A491"/>
<path d="M149.466 204.321L135.247 225.232C135.247 225.232 134.434 223.823 139.52 225.692C144.606 227.561 177.452 233.676 179.402 235.986C180.774 237.63 190.965 269.793 192.925 273.922C195.865 275.126 200.176 273.795 203.204 273.355C203.4 257.865 195.179 229.645 192.994 226.387C188.094 218.989 164.753 211.005 154.248 206.523C152.553 205.799 151.23 205.143 150.407 204.752C149.799 204.458 149.466 204.321 149.466 204.321Z" fill="#4D90FF"/>
<path d="M94.8558 287.406C92.6804 286.848 88.2414 286.858 88.1336 287.289C88.0258 287.719 84.5668 306.134 86.8401 308.581C88.212 310.058 89.4075 307.426 91.3183 303.63C90.0445 298.805 93.3958 287.533 94.8558 287.406Z" fill="#476EB5"/>
<path d="M145.733 219.067C145.86 217.492 149.231 208.304 150.417 204.742C150.417 204.625 149.574 202.56 148.623 199.585L147.261 199.801L127.046 200.72C127.046 200.72 118.903 214.419 119.853 220.76C121.176 229.567 133.925 260.879 131.984 262.347C128.486 265.008 111.338 274.93 102.528 280.83C103.097 284.236 104.674 288.991 106.83 291.711C114.003 289.216 144.988 276.75 148.173 267.18C150.985 258.726 145.527 221.739 145.733 219.067Z" fill="#4D90FF"/>
<path d="M145.409 141.893C145.409 141.893 139.843 150.631 136.59 150.944L148.202 161.707C148.202 161.707 156.11 149.868 156.933 147.832C156.903 147.793 149.73 141.394 145.409 141.893Z" fill="#F8CC7F"/>
<path d="M149.476 194.673C149.247 198.06 149.578 201.462 150.456 204.742C145.792 205.721 129.241 207.854 125.194 202.932C125.047 202.756 130.926 192.403 130.093 188.176C128.898 181.943 123.714 171.375 123.234 170.808C122.519 169.829 119.863 174.78 119.863 174.78C116.757 174.78 109.652 167.588 109.652 167.588C109.652 167.588 117.002 154.789 119.03 153.586C121.059 152.382 137.776 150.572 137.786 150.572C139.011 150.474 142.372 153.39 143.303 154.31C153.915 164.839 151.073 179.927 149.476 194.673Z" fill="#F9E0B2"/>
<path d="M128.408 145.2C128.408 145.2 130.23 151.208 130.24 153.654C130.25 156.101 131.22 159.428 136.365 158.928C141.509 158.429 137.286 153.263 136.561 150.944C135.85 147.756 135.314 144.532 134.954 141.286L128.408 145.2Z" fill="#F8A491"/>
<path d="M135.443 144.995C135.159 142.989 134.954 141.315 134.954 141.315L128.408 145.23C128.408 145.23 128.78 146.462 129.192 148.028C130.42 148.226 131.679 148.041 132.798 147.498C133.917 146.955 134.84 146.081 135.443 144.995Z" fill="#F37458"/>
<path d="M123.067 127.049C121.322 128.396 120.119 130.322 119.676 132.48C118.98 136.022 121.097 144.779 128.711 146.179C136.325 147.578 138.814 140.2 136.727 134.857C134.639 129.515 130.592 122.88 123.067 127.049Z" fill="#F8A491"/>
<path d="M137.433 132.617C137.433 134.104 136.737 135.317 135.865 135.317C134.993 135.317 134.287 134.123 134.277 132.626C134.268 131.129 134.973 129.926 135.845 129.926C136.717 129.926 137.423 131.119 137.433 132.617Z" fill="#F8A491"/>
<path d="M122.989 140.043C123.969 141.237 124.145 142.764 123.332 143.439C122.519 144.114 121.049 143.693 120.049 142.46C119.05 141.227 118.883 139.74 119.697 139.065C120.51 138.39 121.98 138.84 122.989 140.043Z" fill="#F8A491"/>
<path d="M115.257 123.702C115.551 119.622 118.451 104.406 109.132 102.968C99.8132 101.53 97.7946 111.726 92.6696 98.0265C87.8779 85.3548 73.6593 90.2669 73.0714 99.8856C71.6905 99.762 70.3004 99.9805 69.0244 100.522C66.8063 101.538 65.0823 103.391 64.23 105.675C63.3777 107.958 63.4667 110.486 64.4776 112.704C64.7911 113.477 64.6148 114.23 65.0851 114.867C63.9974 119.055 64.752 123.849 68.0249 128.712C76.8441 142.01 85.7515 128.018 91.7387 128.712C97.726 129.407 93.8259 134.123 99.0097 137.773C104.193 141.423 108.368 140.464 116.805 130.523L118.882 127.773C118.362 127.79 117.844 127.693 117.365 127.488C116.887 127.283 116.459 126.975 116.113 126.587C115.767 126.198 115.511 125.738 115.363 125.24C115.215 124.741 115.179 124.217 115.257 123.702Z" fill="#194655"/>
<path d="M377.12 239.528C380.334 238.191 383.454 236.638 386.458 234.88C386.84 234.674 388.418 233.51 388.653 233.344C392.769 235.79 394.268 237.874 397.472 241.172C395.072 241.299 394.062 239.332 393.141 239.538C392.034 239.782 388.536 242.121 383.078 246.387C382.166 243.266 379.413 241.73 377.12 239.528Z" fill="#F8A492"/>
<path d="M311.024 287.308C311.784 290.667 312.871 293.945 314.268 297.093C314.375 297.338 315.101 297.524 315.248 297.778C312.151 301.418 310.809 307.485 307.046 310.137C307.32 307.749 308.917 303.287 308.868 302.309C308.81 301.174 307.085 297.348 303.822 291.261C306.967 290.86 308.476 289.207 311.024 287.308Z" fill="#F8A492"/>
<path d="M312.983 298.091C313.083 297.824 313.236 297.58 313.435 297.374C313.633 297.169 313.871 297.006 314.135 296.897C314.399 296.788 314.683 296.734 314.969 296.739C315.254 296.744 315.536 296.808 315.796 296.927C316.776 297.553 318.128 298.248 319.118 298.933C319.454 299.114 319.738 299.378 319.942 299.7C320.146 300.022 320.264 300.392 320.284 300.772C320.205 301.34 307.006 316.751 305.32 316.976C303.635 317.201 306.751 304.168 308.613 302.827C310.259 301.633 311.082 302.866 312.983 298.091Z" fill="#4D90FF"/>
<path d="M388.261 234.89C388.02 234.744 387.811 234.551 387.647 234.323C387.483 234.094 387.367 233.835 387.307 233.561C387.246 233.286 387.242 233.002 387.295 232.726C387.348 232.45 387.456 232.187 387.614 231.954C388.417 231.083 389.329 229.899 390.191 229.019C390.427 228.719 390.738 228.486 391.092 228.344C391.446 228.201 391.831 228.154 392.21 228.207C392.749 228.383 405.576 244.107 405.487 245.82C405.399 247.532 393.131 242.121 392.141 240.056C391.259 238.197 392.621 237.61 388.261 234.89Z" fill="#4D90FF"/>
<path d="M316.08 229.87C316.08 229.87 342.107 264.891 346.634 265.214C350.867 265.517 383.694 247.239 383.694 247.239L379.422 237.806L353.14 247.239L334.836 212.648L316.08 229.87Z" fill="#B85742"/>
<path d="M331.063 200.27C331.063 200.27 335.825 201.405 338.55 208.656C341.274 215.907 336.717 221.934 325.301 232.434C314.189 242.669 303.224 252.278 303.224 252.278L312.229 289.314L304.743 295.684C304.743 295.684 287.388 258.012 286.918 249.049C286.732 245.634 313.376 205.936 313.376 205.936L331.063 200.27Z" fill="#F37458"/>
<path d="M310.926 154.926L296.414 163.028L284.958 168.547C284.958 168.547 282.146 159.017 283.087 154.339C283.325 153.68 283.677 153.068 284.126 152.529C286.017 149.691 281.97 145.278 281.97 145.278C281.97 145.278 279.53 144.584 277.864 148.605C276.198 152.627 279.275 154.339 279.275 154.339C279.275 154.339 275.777 166.512 277.237 175.387C278.011 180.035 289.652 176.63 298.922 172.618C303.588 170.608 308.093 168.243 312.396 165.543L310.926 154.926Z" fill="#F8A491"/>
<path d="M314.189 153.537C313.962 153.353 313.686 153.241 313.395 153.213C313.104 153.185 312.811 153.243 312.553 153.38C310.76 154.056 293.337 163.606 293.337 163.606C293.337 163.606 294.905 171.962 298.981 174.536L307.8 171.855L314.513 154.917C314.603 154.681 314.621 154.423 314.563 154.177C314.506 153.931 314.375 153.708 314.189 153.537Z" fill="#4D90FF"/>
<path d="M354.287 117.802C347.683 113.761 339.432 114.544 334.522 119.974C330.5 118.45 326.037 118.577 322.107 120.327C314.718 123.771 308.173 132.773 313.748 139.309C312.563 147.989 317.756 153.009 324.233 153.605C327.761 160.66 340.235 161.385 347.418 155.562C353.356 157.852 360.402 156.874 364.782 152.627C365.707 151.632 366.689 150.691 367.722 149.809C367.3 150.014 384.253 147.774 383.479 132.851C382.695 117.597 364.449 111.725 354.287 117.802Z" fill="#F58761"/>
<path d="M324.242 152.382L335.022 152.969L333.228 167.99C333.228 167.99 328.035 182.442 330.151 189.389C332.268 196.337 334.316 201.396 334.316 201.396C334.316 201.396 328.192 208.421 311.023 206.983C311.023 206.983 311.249 194.527 311.023 190.75C310.798 186.972 306.408 171.258 307.016 167.716C307.623 164.173 311.415 154.339 312.395 153.517C313.375 152.696 317.295 152.265 317.295 152.265L324.242 152.382Z" fill="#4D90FF"/>
<path d="M324.753 144.134C324.753 144.134 324.567 145.347 324.39 146.903C324.123 148.812 324.044 150.742 324.155 152.666C324.488 155.054 322.195 161.365 317.139 161.59C312.083 161.815 317.031 154.623 317.413 152.255C317.796 149.887 317.796 141.227 317.796 141.227L324.753 144.134Z" fill="#F8A491"/>
<path d="M317.834 144.897C317.834 142.891 317.834 141.227 317.834 141.227L324.792 144.163C324.792 144.163 324.606 145.415 324.419 147.01C323.238 147.385 321.969 147.382 320.789 147.003C319.609 146.625 318.576 145.888 317.834 144.897Z" fill="#F37458"/>
<path d="M325.282 126.295C327.212 127.094 328.796 128.55 329.751 130.405C331.279 133.478 331.554 142.01 324.939 145.19C318.325 148.371 314.16 142.255 314.758 136.854C315.356 131.452 317.345 124.387 325.282 126.295Z" fill="#F8A491"/>
<path d="M313.552 135.004C313.924 136.364 314.865 137.294 315.659 137.088C316.452 136.883 316.805 135.591 316.433 134.221C316.061 132.851 315.12 131.922 314.326 132.137C313.532 132.352 313.18 133.634 313.552 135.004Z" fill="#F8A491"/>
<path d="M328.946 137.92C328.339 139.27 328.584 140.699 329.495 141.12C330.407 141.541 331.641 140.767 332.259 139.427C332.876 138.086 332.631 136.638 331.72 136.227C330.808 135.816 329.564 136.57 328.946 137.92Z" fill="#F8A491"/>
<path d="M185.477 203.587C184.497 200.652 143.263 80.8048 141.469 75.5699C140.113 71.7018 137.286 68.5231 133.599 66.7226C129.912 64.9222 125.663 64.645 121.773 65.9512L60.3229 86.3823C58.4014 87.0079 56.6235 88.0084 55.0925 89.3258C53.5614 90.6432 52.3078 92.2513 51.4043 94.0565C50.5008 95.8618 49.9655 97.8283 49.8295 99.8419C49.6935 101.855 49.9595 103.876 50.612 105.786L94.6198 233.804C95.9758 237.669 98.802 240.846 102.487 242.647C106.171 244.447 110.417 244.725 114.306 243.422L175.757 222.981C177.678 222.357 179.456 221.357 180.987 220.041C182.518 218.725 183.772 217.118 184.677 215.314C185.581 213.509 186.118 211.544 186.255 209.531C186.392 207.518 186.128 205.498 185.477 203.587ZM170.553 206.816L108.476 227.463C106.231 228.214 103.781 228.053 101.654 227.014C99.5271 225.976 97.8946 224.145 97.1088 221.915L56.4131 103.516C56.0406 102.414 55.8903 101.25 55.9708 100.09C56.0513 98.93 56.361 97.7975 56.8821 96.7577C57.4032 95.7179 58.1254 94.7914 59.0069 94.0318C59.8884 93.2721 60.9118 92.6943 62.0181 92.3316L124.096 71.6852C126.339 70.9322 128.789 71.0923 130.915 72.1308C133.041 73.1694 134.671 75.0026 135.453 77.2333C145.34 105.982 175.267 193.049 176.158 195.632C176.531 196.734 176.681 197.898 176.601 199.058C176.52 200.218 176.21 201.351 175.689 202.39C175.168 203.43 174.446 204.357 173.564 205.116C172.683 205.876 171.659 206.454 170.553 206.816Z" fill="#34548A"/>
<path d="M154.63 220.701C155.61 223.451 151.23 227.385 144.919 229.508C138.608 231.631 132.729 231.074 131.778 228.314C130.828 225.555 135.179 221.621 141.489 219.508C147.8 217.394 153.65 217.942 154.63 220.701Z" fill="#194655"/>
<path d="M152.955 220.917C153.847 223.51 150.251 227.042 144.92 228.813C139.589 230.584 134.543 229.929 133.661 227.336C132.779 224.743 136.365 221.22 141.696 219.439C147.027 217.658 152.063 218.382 152.955 220.917Z" fill="#34548A"/>
<path d="M379.197 83.7403L310.143 68.1527C301.02 66.0979 292.024 71.4894 290.045 80.1981L258.501 219.361C256.541 228.07 262.323 236.808 271.456 238.872L340.5 254.46C349.633 256.515 358.629 251.123 360.598 242.405L392.112 103.232C394.121 94.5332 388.32 85.8049 379.197 83.7403ZM356.492 230.124C355.874 232.579 354.307 234.688 352.134 235.991C349.961 237.293 347.36 237.682 344.9 237.072L275.091 221.318C272.607 220.813 270.426 219.345 269.025 217.235C267.625 215.125 267.121 212.546 267.624 210.065L296.767 81.3919C297.07 80.1753 297.611 79.0303 298.358 78.0225C299.105 77.0148 300.044 76.164 301.121 75.5187C302.197 74.8735 303.391 74.4465 304.633 74.2622C305.875 74.0779 307.141 74.1398 308.359 74.4445L378.119 90.1984C380.603 90.7031 382.785 92.1718 384.185 94.2817C385.585 96.3917 386.089 98.9704 385.586 101.451L356.492 230.124Z" fill="#8CB0DD"/>
<path d="M322.087 240.761C321.411 243.755 315.12 244.89 308.026 243.285C300.931 241.681 295.738 237.952 296.414 235.017C297.09 232.081 303.391 230.888 310.485 232.483C317.58 234.078 322.773 237.766 322.087 240.761Z" fill="#476EB5"/>
<path d="M320.393 240.027C319.756 242.845 314.386 244.029 308.399 242.679C302.411 241.328 298.07 237.952 298.678 235.134C299.285 232.316 304.685 231.132 310.672 232.492C316.659 233.853 321.03 237.219 320.393 240.027Z" fill="#8CB0DD"/>
<path d="M334.571 156.864C334.571 156.864 357.266 151.365 362.322 150.435C367.378 149.506 384.938 143.194 385.614 142.92C386.291 142.646 388.829 133.634 389.808 134.231C390.788 134.828 388.29 138.771 389.524 139.28C390.759 139.789 401.342 135.063 401.411 135.914C401.548 137.519 395.051 139.055 395.257 139.828C395.463 140.601 401.891 137.597 402.675 138.703C403.459 139.809 396.335 140.944 396.197 141.56C396.06 142.177 403.057 141.374 402.675 142.695C402.469 143.419 396.452 143.272 396.697 144.104C396.942 144.936 401.538 145.758 401.224 146.56C400.911 147.363 397.471 145.366 395.11 145.963C392.748 146.56 390.72 145.787 387.27 147.832C383.821 149.877 372.337 158.508 364.194 160.289C356.05 162.07 338.089 166.052 338.089 166.052L334.571 156.864Z" fill="#F8A491"/>
<path d="M329.054 153.38C329.828 153.018 332.18 152.95 334.983 152.979C336.021 152.979 337.472 152.979 338.569 152.979C342.675 152.862 346.565 153.058 346.565 153.058C346.565 153.058 348.623 162.999 346.908 165.543C346.908 165.543 330.877 167.823 331.23 168.939L329.054 153.38Z" fill="#4D90FF"/>
<path d="M273.474 153.439L274.855 151.697C275.348 150.943 276.12 150.416 277.001 150.23C278.295 150.102 278.256 148.488 276.884 148.713C276.128 148.836 275.384 149.022 274.659 149.271C275.614 148.806 276.537 148.28 277.423 147.695C277.697 146.717 276.198 146.286 274.189 147.774C272.18 149.261 273.474 153.439 273.474 153.439Z" fill="#F8A491"/>
<path d="M88.1831 205.799C87.5673 206.125 86.9776 206.498 86.4192 206.914C86.4156 206.885 86.4156 206.856 86.4192 206.826L87.7127 205.456C89.016 204.478 88.3301 203.402 87.1052 204.057C86.4176 204.418 85.7619 204.837 85.1454 205.31C85.9322 204.59 86.6416 203.789 87.262 202.922C87.262 201.865 85.6353 201.944 84.2144 204.038C82.97 205.848 84.8024 208.999 85.3413 209.742C85.667 210.405 86.1819 210.957 86.821 211.327L87.1542 209.273C87.2646 208.842 87.4591 208.436 87.7264 208.081C87.9938 207.725 88.3288 207.425 88.7122 207.198C89.9567 206.64 89.3982 205.134 88.1831 205.799Z" fill="#F8A491"/>
<path d="M278.481 147.118C278.481 147.118 281.705 144.535 282.215 145.631C282.724 146.727 282.509 149.114 282.029 148.948C281.549 148.781 281.607 147.079 280.226 147.519C279.844 147.646 277.923 148.253 278.481 147.118Z" fill="#F8A491"/>
<path d="M334.934 58.8864L219.128 34.2281C217.581 33.8992 216.113 33.2689 214.809 32.3732C213.506 31.4776 212.391 30.3341 211.53 29.0083C210.67 27.6824 210.079 26.2002 209.792 24.6462C209.505 23.0922 209.528 21.497 209.858 19.9518L212.073 9.54051C212.741 6.42042 214.622 3.69274 217.303 1.95698C219.983 0.221213 223.245 -0.380583 226.37 0.283863L342.176 24.9421C345.302 25.6067 348.036 27.484 349.777 30.1613C351.517 32.8386 352.121 36.0966 351.456 39.2185L349.231 49.6298C348.564 52.7499 346.683 55.4776 344.002 57.2133C341.321 58.9491 338.059 59.5509 334.934 58.8864Z" fill="#0061FF"/>
<path d="M314.316 50.2951L324.978 64.8454L328.398 54.0819L314.316 50.2951Z" fill="#0061FF"/>
<path d="M247.319 17.613C246.761 20.2256 243.929 21.8304 240.989 21.2041C238.049 20.5779 236.089 17.9555 236.668 15.3331C237.246 12.7107 240.058 11.1158 243.008 11.742C245.957 12.3683 247.878 15.0004 247.319 17.613Z" fill="white"/>
<path d="M242.822 21.2922L239.256 20.5388C238.485 20.3736 237.689 20.3618 236.913 20.5041C236.138 20.6464 235.398 20.94 234.737 21.3681C234.075 21.7961 233.504 22.3503 233.057 22.9988C232.61 23.6473 232.296 24.3775 232.132 25.1475L231.21 29.4725L246.517 32.7407L247.438 28.4157C247.603 27.6454 247.615 26.85 247.473 26.075C247.33 25.3001 247.037 24.5607 246.608 23.8992C246.179 23.2377 245.624 22.667 244.975 22.2197C244.325 21.7724 243.594 21.4572 242.822 21.2922Z" fill="white"/>
<path d="M293.17 30.6957C292.092 35.7545 283.9 38.2986 274.865 36.3808C265.83 34.4629 259.392 28.7974 260.48 23.7385C261.567 18.6796 269.75 16.1355 278.775 18.0632C287.8 19.9908 294.247 25.6172 293.17 30.6957Z" fill="white"/>
<path d="M278.256 34.6292L273.033 39.5413L285.409 36.6156L284.948 28.6408L278.256 34.6292Z" fill="white"/>
<path d="M316.237 33.9052L318.109 32.9267C318.388 32.7882 318.61 32.5578 318.739 32.2743C318.867 31.9908 318.894 31.6716 318.814 31.3708C318.374 29.6263 317.573 27.9931 316.462 26.5762C316.268 26.3464 316.003 26.1879 315.708 26.1259C315.413 26.0638 315.106 26.1018 314.836 26.2337L311.563 27.8287C311.359 27.9279 311.185 28.0768 311.054 28.2615C310.924 28.4463 310.843 28.6609 310.818 28.8854C310.282 33.021 311.309 37.2076 313.699 40.6275C316.396 44.4454 320.012 47.5244 324.213 49.5808C324.435 49.6785 324.678 49.7164 324.919 49.6906C325.16 49.6649 325.39 49.5764 325.585 49.434L328.603 47.1932C328.859 47.0035 329.039 46.729 329.111 46.4188C329.183 46.1087 329.142 45.7831 328.995 45.5004C328.032 43.6075 326.519 42.049 324.654 41.0287C324.41 40.895 324.129 40.8401 323.852 40.8717C323.575 40.9032 323.314 41.0195 323.106 41.2048L321.979 42.1833C321.756 42.3839 321.471 42.5044 321.171 42.5257C320.871 42.5469 320.573 42.4678 320.323 42.3007C319.226 41.5571 317.383 39.7762 315.59 35.5784C315.474 35.2688 315.476 34.9275 315.595 34.6191C315.714 34.3107 315.943 34.0567 316.237 33.9052Z" fill="white"/>
<path d="M194.314 118.635L183.698 136.077C182.621 137.846 183.184 140.151 184.956 141.226L202.424 151.827C204.195 152.902 206.503 152.34 207.58 150.571L218.196 133.129C219.273 131.36 218.71 129.055 216.938 127.98L199.471 117.378C197.699 116.303 195.391 116.866 194.314 118.635Z" fill="#0061FF"/>
<path d="M211.612 137.538C211.763 137.324 211.87 137.082 211.925 136.827C211.981 136.571 211.985 136.306 211.936 136.049C211.888 135.792 211.788 135.547 211.643 135.329C211.498 135.111 211.311 134.924 211.093 134.779C206.911 131.083 202.12 128.136 196.933 126.07C196.702 125.942 196.448 125.861 196.186 125.832C195.923 125.804 195.658 125.829 195.405 125.906C195.153 125.983 194.918 126.11 194.716 126.279C194.514 126.449 194.348 126.657 194.228 126.892C191.808 134.035 192.641 131.354 191.602 135.503C191.482 135.971 191.54 136.467 191.764 136.895C191.989 137.324 192.364 137.654 192.817 137.822C193.29 138.011 193.817 138.014 194.292 137.833C194.768 137.652 195.158 137.299 195.385 136.844C195.639 136.315 195.884 135.787 196.129 135.268C196.208 135.119 196.316 134.988 196.447 134.882C196.578 134.776 196.729 134.698 196.892 134.653C197.054 134.607 197.224 134.594 197.391 134.616C197.558 134.638 197.719 134.693 197.864 134.779C199.645 135.684 201.358 136.718 202.989 137.871C203.131 137.96 203.254 138.077 203.35 138.215C203.447 138.353 203.514 138.509 203.549 138.673C203.583 138.837 203.585 139.007 203.553 139.172C203.52 139.337 203.455 139.493 203.361 139.632L202.322 140.993C202.018 141.4 201.885 141.91 201.951 142.414C202.017 142.918 202.277 143.377 202.675 143.693C203.041 144.002 203.505 144.171 203.983 144.171C204.462 144.171 204.926 144.002 205.292 143.693C206.056 143.038 210.279 138.928 211.612 137.538Z" fill="white"/>
<path d="M198.099 128.849C198.314 128.984 198.49 129.173 198.608 129.397L199.196 128.419L197.952 127.665L197.374 128.644C197.629 128.646 197.88 128.717 198.099 128.849Z" fill="#0061FF"/>
<path d="M196.13 129.339C196.264 129.121 196.453 128.942 196.679 128.82L195.699 128.243L194.944 129.476L195.924 130.063C195.925 129.807 195.996 129.557 196.13 129.339Z" fill="#0061FF"/>
<path d="M196.61 131.296C196.39 131.164 196.21 130.975 196.091 130.748L195.503 131.726L196.747 132.48L197.335 131.501C197.08 131.495 196.831 131.424 196.61 131.296Z" fill="#0061FF"/>
<path d="M198.785 130.092C198.774 130.347 198.7 130.596 198.569 130.816C198.437 131.033 198.247 131.209 198.021 131.325L199 131.912L199.755 130.669L198.785 130.092Z" fill="#0061FF"/>
<path d="M198.099 130.523C197.972 130.705 197.781 130.833 197.564 130.879C197.347 130.925 197.12 130.887 196.93 130.772C196.74 130.658 196.601 130.475 196.541 130.261C196.482 130.047 196.506 129.819 196.609 129.622C196.736 129.44 196.927 129.312 197.144 129.266C197.361 129.22 197.588 129.258 197.778 129.373C197.968 129.487 198.107 129.67 198.167 129.884C198.227 130.098 198.202 130.326 198.099 130.523Z" fill="#0061FF"/>
<path d="M209.113 137.343C208.922 137.657 208.642 137.908 208.309 138.064C207.975 138.219 207.603 138.272 207.239 138.217C206.875 138.161 206.535 137.998 206.264 137.75C205.992 137.502 205.8 137.179 205.713 136.822C205.625 136.465 205.645 136.089 205.771 135.744C205.897 135.398 206.122 135.098 206.419 134.88C206.716 134.663 207.071 134.538 207.439 134.522C207.807 134.505 208.171 134.598 208.486 134.789C208.695 134.915 208.877 135.082 209.022 135.279C209.167 135.476 209.271 135.699 209.329 135.936C209.388 136.173 209.398 136.42 209.361 136.661C209.324 136.902 209.24 137.134 209.113 137.343Z" fill="#0061FF"/>
<path d="M218.864 71.0589C219.142 69.901 219.679 68.8208 220.434 67.8991C221.189 66.9774 222.143 66.2379 223.224 65.7358C226.576 64.1898 230.191 65.9217 231.71 69.1899C233.464 72.9767 232.396 78.9065 226.037 86.5877C216.051 86.4801 210.819 83.4663 209.065 79.6795C207.546 76.4113 208.555 72.5364 211.906 70.9806C212.994 70.458 214.187 70.1932 215.394 70.2068C216.601 70.2203 217.788 70.5119 218.864 71.0589Z" fill="#F58D80"/>
<path d="M87.288 32.8915L65.1111 43.4447C62.4924 44.6908 61.3813 47.8208 62.6292 50.4356L68.5815 62.9083C69.8294 65.5231 72.9639 66.6327 75.5825 65.3866L97.7594 54.8335C100.378 53.5873 101.489 50.4574 100.241 47.8425L94.289 35.3699C93.0411 32.755 89.9067 31.6454 87.288 32.8915Z" fill="#F9E0B2"/>
<path d="M66.5255 56.1074L61.7729 70.2468L72.3266 62.4481L66.5255 56.1074Z" fill="#F9E0B2"/>
<path d="M74.3552 50.6375L77.2165 49.2187C77.2165 49.2187 79.4899 44.8252 79.1763 43.8271C78.8628 42.829 77.2753 41.1265 77.7065 40.6079C78.0362 40.1833 78.5193 39.9046 79.0523 39.8315C79.5853 39.7583 80.1258 39.8965 80.558 40.2164C81.5379 40.8525 82.6942 44.3751 83.1352 44.4338C84.2102 44.1013 85.2479 43.6586 86.2317 43.1128C86.6142 42.9247 87.0408 42.8444 87.4656 42.8807C87.8904 42.9169 88.2973 43.0682 88.6423 43.3183C88.8744 43.4835 89.0415 43.7245 89.1148 43.9995C89.1882 44.2746 89.1631 44.5666 89.0441 44.8252L88.6717 45.6569L89.4948 46.0777C89.786 46.2282 90.0059 46.4873 90.1068 46.7988C90.2077 47.1102 90.1815 47.4489 90.0338 47.7411L89.7202 48.3674L90.2494 48.5826C90.4111 48.6501 90.5567 48.7509 90.6767 48.8784C90.7967 49.0059 90.8883 49.1573 90.9457 49.3226C91.003 49.488 91.0248 49.6635 91.0095 49.8379C90.9942 50.0122 90.9422 50.1813 90.8569 50.3342L90.5629 50.8626L90.6903 50.9506C90.943 51.1321 91.1184 51.4017 91.1819 51.706C91.2454 52.0103 91.1924 52.3273 91.0333 52.5945L90.7295 53.1033L83.1646 56.9293C82.468 57.2893 81.7035 57.4993 80.9206 57.5457L78.069 58.446C77.9215 58.4921 77.7623 58.4839 77.6203 58.4228C77.4782 58.3618 77.3628 58.252 77.2949 58.1133L74.071 51.5279C74.029 51.4513 74.0031 51.3669 73.9947 51.28C73.9863 51.193 73.9957 51.1052 74.0222 51.022C74.0488 50.9388 74.092 50.8617 74.1492 50.7957C74.2065 50.7296 74.2765 50.6758 74.3552 50.6375Z" fill="white"/>
<path d="M257.912 85.3059C274.679 81.5094 290.171 86.7639 292.513 97.048C293.679 102.195 291.337 107.626 286.634 112.234L296.884 125.865L279.862 117.303C275.649 119.729 271.089 121.498 266.34 122.548C249.573 126.344 234.081 121.09 231.739 110.806C229.397 100.522 241.136 89.0928 257.912 85.3059Z" fill="#F9E0B2"/>
<path d="M274.062 103.154C273.974 105.294 273.251 107.359 271.987 109.089C270.723 110.819 268.974 112.136 266.961 112.874C264.947 113.612 262.76 113.737 260.675 113.234C258.591 112.73 256.702 111.621 255.248 110.047C253.795 108.472 252.841 106.503 252.508 104.387C252.175 102.271 252.477 100.105 253.377 98.1607C254.277 96.2166 255.734 94.5825 257.563 93.4649C259.393 92.3473 261.513 91.7962 263.656 91.8814C266.533 91.9984 269.245 93.2517 271.197 95.3657C273.148 97.4796 274.179 100.281 274.062 103.154Z" fill="#F8CC7F"/>
<path d="M257.354 104.191C257.318 104.954 257.433 105.717 257.694 106.435C257.954 107.154 258.354 107.814 258.871 108.377C259.387 108.94 260.011 109.396 260.704 109.718C261.398 110.04 262.149 110.222 262.914 110.253C263.678 110.284 264.441 110.163 265.159 109.899C265.876 109.634 266.535 109.23 267.095 108.71C267.656 108.191 268.108 107.565 268.426 106.87C268.744 106.175 268.921 105.424 268.947 104.661L257.354 104.191Z" fill="#F0EFEF"/>
<path d="M46.948 133.204L41.4213 134.309L42.1073 139.515L36.6982 140.836L36.7471 145.895L32.8667 147.549L33.6996 149.506L38.8932 147.294L38.854 142.509L44.4689 141.13L43.7927 136.012L48.8099 135.004L46.948 133.204Z" fill="#F58D80"/>
<path d="M415.512 176.023L413.974 170.602L408.829 171.698L407.075 166.434L402.029 166.874L400.069 163.146L398.178 164.144L400.804 169.125L405.576 168.704L407.409 174.193L412.465 173.107L413.866 178.019L415.512 176.023Z" fill="#F8CC7F"/>
<path d="M47.8691 75.4035L44.7726 76.3526L42.6952 71.5482L38.0014 72.3799L35.8652 69.0334L34.1699 70.1196L37.0313 74.5816L41.4801 73.7988L43.6457 78.7989L48.2905 77.3703L47.8691 75.4035Z" fill="#4D90FF"/>
<path d="M162.518 94.817C161.042 93.8679 159.364 93.275 157.619 93.085C156.364 92.9676 150.887 92.9774 150.181 94.2886C149.476 95.5998 155.218 99.3279 155.522 100.884C155.825 102.44 152.2 126.481 151.141 131.217C150.632 133.575 148.643 138.008 146.751 141.903C149.466 142.333 152.768 144.545 154.846 146.12C157.511 140.308 160.235 133.761 160.578 130.689C161.303 124.524 163.596 95.7074 162.518 94.817Z" fill="#F8A491"/>
<path d="M178.403 53.3284C176.531 53.1719 166.771 60.6085 166.771 60.6085L166.33 61.1858C166.33 61.1858 179.52 63.407 180.137 62.996C181.803 61.8805 179.941 53.4556 178.403 53.3284ZM166.8 60.8433C169.985 58.5341 176.541 55.6964 177.952 55.0995C178.8 57.093 179.208 59.2457 179.147 61.4109C177.589 61.2837 170.661 61.4402 166.8 60.8433Z" fill="#476EB5"/>
<path d="M164.146 47.1443C162.45 42.6236 160.804 42.8389 159.628 42.9857C158.452 43.1325 153.2 46.8997 153.69 49.7178C154.18 52.5359 164.714 60.9314 164.714 60.9314L165.41 60.1291C165.41 60.1291 165.831 51.6748 164.146 47.1443ZM155.326 49.4438C155.081 48.0152 158.727 44.972 159.932 44.5513C160.162 44.5124 160.397 44.5124 160.628 44.5513C160.853 44.6198 161.608 45.0308 162.646 47.6825C163.895 51.6637 164.636 55.7864 164.851 59.9529C160.628 56.4988 155.611 50.6865 155.297 49.4634L155.326 49.4438Z" fill="#476EB5"/>
<path d="M164.552 59.7273L164.071 61.4115C163.909 61.9779 164.237 62.5682 164.804 62.73L165.379 62.8939C165.946 63.0557 166.538 62.7276 166.7 62.1612L167.181 60.4771C167.343 59.9107 167.015 59.3204 166.448 59.1586L165.873 58.9947C165.306 58.8329 164.714 59.1609 164.552 59.7273Z" fill="#476EB5"/>
<path d="M175.492 99.5529L139.235 89.2004C138.288 88.9337 137.479 88.3164 136.973 87.4745C136.467 86.6326 136.302 85.6295 136.511 84.6699L142.87 54.9723L190.161 68.4561L179.519 98.2515C179.068 99.4942 177.295 100.072 175.492 99.5529Z" fill="#F37458"/>
<path d="M190.308 75.3937L138.951 60.8433L139.353 57.399C139.408 56.9124 139.569 56.4437 139.824 56.0255C140.079 55.6073 140.422 55.2497 140.83 54.9777C141.237 54.7057 141.7 54.5257 142.184 54.4504C142.669 54.3751 143.164 54.4063 143.635 54.5418L190.054 67.9179C191.71 68.3876 192.709 69.7771 192.219 70.9121L190.308 75.3937Z" fill="#F9E0B2"/>
<path d="M165.588 60.8704L163.588 67.8611L164.568 68.1406L166.568 61.1499L165.588 60.8704Z" fill="#476EB5"/>
<path d="M164.57 68.0846L157.064 94.3459L158.289 94.695L165.795 68.4338L164.57 68.0846Z" fill="#476EB5"/>
<path d="M153.16 94.7778L153.287 93.2318C152.127 92.8993 150.985 92.504 149.868 92.0478L149.662 90.8736C149.015 89.259 148.29 90.4039 148.074 90.7757C148.029 91.5499 148.088 92.3266 148.251 93.085C148.251 93.085 150.7 95.6682 151.749 96.6467C152.268 97.1262 153.915 98.4667 153.915 98.4667L155.228 96.6467L153.16 94.7778Z" fill="#F8A491"/>
</svg>
