<svg width="40" height="40" viewBox="0 0 40 40" fill="none" xmlns="http://www.w3.org/2000/svg">
<path d="M20.0228 2.89648C17.8478 2.89648 15.6942 3.33618 13.6848 4.19048C11.6754 5.04477 9.84958 6.29692 8.31165 7.87545C5.20567 11.0634 3.46074 15.3873 3.46074 19.8957C3.44627 23.8211 4.77046 27.6279 7.20376 30.6563L3.89136 34.0561C3.66155 34.2952 3.50587 34.5987 3.44397 34.9285C3.38207 35.2583 3.41672 35.5994 3.54355 35.909C3.68112 36.2149 3.90412 36.4719 4.18425 36.6475C4.46439 36.823 4.78902 36.9092 5.11695 36.895H20.0228C24.4153 36.895 28.6279 35.104 31.7339 31.916C34.8399 28.728 36.5848 24.4042 36.5848 19.8957C36.5848 15.3873 34.8399 11.0634 31.7339 7.87545C28.6279 4.68747 24.4153 2.89648 20.0228 2.89648ZM20.0228 33.4951H9.10839L10.6487 31.9142C10.9571 31.5957 11.1303 31.1649 11.1303 30.7158C11.1303 30.2667 10.9571 29.8358 10.6487 29.5173C8.48001 27.2939 7.12952 24.3675 6.82729 21.2366C6.52506 18.1058 7.28979 14.9643 8.99118 12.3473C10.6926 9.73025 13.2254 7.79968 16.158 6.88446C19.0907 5.96925 22.2418 6.12601 25.0745 7.32804C27.9072 8.53007 30.2463 10.703 31.6931 13.4766C33.1399 16.2503 33.6051 19.453 33.0093 22.5391C32.4135 25.6253 30.7936 28.4039 28.4256 30.4017C26.0576 32.3994 23.088 33.4927 20.0228 33.4951Z" fill="#80B0FF"/>
</svg>
