<svg width="24" height="24" viewBox="0 0 24 24" fill="none" xmlns="http://www.w3.org/2000/svg">
<path d="M12.3547 9.5229L12.3547 9.52292L12.3582 9.52642L16.6407 13.7589C16.6835 13.8058 16.717 13.8605 16.7394 13.92C16.7626 13.9818 16.7734 14.0476 16.7711 14.1136C16.7687 14.1796 16.7534 14.2445 16.7258 14.3046C16.6983 14.3646 16.6591 14.4186 16.6105 14.4634L16.604 14.4695L16.5976 14.4758C16.5509 14.5221 16.4955 14.5588 16.4345 14.5837C16.3736 14.6086 16.3084 14.6212 16.2426 14.6208L16.2418 14.6208C16.1109 14.6203 15.9855 14.5684 15.8924 14.4764C15.8922 14.4762 15.892 14.476 15.8918 14.4758L12.3533 10.9372L11.9997 10.5837L11.6462 10.9372L8.1072 14.4762C8.10705 14.4763 8.10691 14.4765 8.10676 14.4766C8.01312 14.5695 7.88659 14.6216 7.7547 14.6216C7.62261 14.6216 7.49589 14.5693 7.4022 14.4762L7.40181 14.4758C7.35494 14.4293 7.31774 14.374 7.29236 14.3131C7.26698 14.2522 7.25391 14.1868 7.25391 14.1208C7.25391 14.0548 7.26698 13.9894 7.29236 13.9285C7.31774 13.8676 7.35494 13.8123 7.40181 13.7658L7.40181 13.7658L7.40326 13.7644L11.6433 9.52435L11.6433 9.52435L11.6447 9.5229C11.6912 9.47604 11.7465 9.43884 11.8074 9.41345C11.8683 9.38807 11.9337 9.375 11.9997 9.375C12.0657 9.375 12.1311 9.38807 12.192 9.41345C12.2529 9.43884 12.3082 9.47604 12.3547 9.5229Z" fill="black" stroke="#424C5D"/>
</svg>
