<svg width="163" height="36" viewBox="0 0 163 36" fill="none" xmlns="http://www.w3.org/2000/svg">
<path d="M51.0713 10.8099C55.0077 10.8099 58.2095 13.9292 58.2095 17.7643C58.2095 21.5993 55.0077 24.7186 51.0713 24.7186H46.1764V10.8099H51.0713ZM51.0713 6.82865H44.3359C43.1089 6.82865 42.0899 7.81883 42.0899 9.0168V26.5143C42.0899 27.7097 43.1062 28.7024 44.3359 28.7024H51.0713C57.28 28.7024 62.296 23.8156 62.296 17.7668C62.296 11.718 57.28 6.82865 51.0713 6.82865Z" fill="black"/>
<path d="M82.0042 26.7144C82.0042 27.802 81.08 28.7024 79.9636 28.7024C78.8472 28.7024 77.923 27.802 77.923 26.7144V20.7502C77.923 18.5441 76.1062 16.7741 73.8417 16.7741C71.5773 16.7741 69.7605 18.5441 69.7605 20.7502V26.7144C69.7605 27.802 68.8363 28.7024 67.7198 28.7024C66.6034 28.7024 65.6792 27.802 65.6792 26.7144V8.81928C65.6792 7.73162 66.6034 6.83122 67.7198 6.83122C68.8363 6.83122 69.7605 7.73162 69.7605 8.81928V13.8831C70.9401 13.2007 72.3435 12.7954 73.8417 12.7954C78.3364 12.7954 82.0042 16.3688 82.0042 20.7476V26.7144Z" fill="black"/>
<path d="M90.0407 26.7144C90.0407 27.802 89.1165 28.7024 88 28.7024C86.8836 28.7024 85.9594 27.802 85.9594 26.7144V14.786C85.9594 13.6984 86.8836 12.798 88 12.798C89.1165 12.798 90.0407 13.6984 90.0407 14.786V26.7144Z" fill="black"/>
<path d="M116.953 26.7144C116.953 27.802 116.029 28.7024 114.912 28.7024C114.37 28.7024 113.859 28.4844 113.477 28.1124L105.728 20.5629L97.9818 28.1124C97.6 28.4844 97.0892 28.7024 96.5468 28.7024C95.4304 28.7024 94.5061 27.802 94.5061 26.7144V8.81928C94.5061 7.73162 95.4304 6.83122 96.5468 6.83122C97.6632 6.83122 98.5874 7.73162 98.5874 8.81928V21.9302L104.296 16.3688C104.678 15.966 105.22 15.7788 105.731 15.7788C106.242 15.7788 106.784 15.966 107.166 16.3688L112.874 21.9302V8.81928C112.874 7.73162 113.799 6.83122 114.915 6.83122C116.031 6.83122 116.956 7.73162 116.956 8.81928V26.7144H116.953Z" fill="black"/>
<path d="M125.5 26.7144C125.5 27.802 124.575 28.7024 123.459 28.7024C122.343 28.7024 121.418 27.802 121.418 26.7144V14.786C121.418 13.6984 122.343 12.798 123.459 12.798C124.575 12.798 125.5 13.6984 125.5 14.786V26.7144Z" fill="black"/>
<path d="M138.639 24.7262C139.213 24.7262 139.658 24.2926 139.658 23.7309C139.658 23.1691 139.213 22.7355 138.639 22.7355H134.558C131.751 22.7355 129.455 20.4987 129.455 17.7641C129.455 15.0296 131.751 12.7927 134.558 12.7927H140.68C141.796 12.7927 142.72 13.6931 142.72 14.7807C142.72 15.8684 141.796 16.7688 140.68 16.7688H134.558C133.984 16.7688 133.536 17.2023 133.536 17.7641C133.536 18.3259 133.981 18.7594 134.558 18.7594H138.639C141.446 18.7594 143.739 20.9963 143.739 23.7309C143.739 26.4654 141.443 28.7023 138.639 28.7023H131.496C130.379 28.7023 129.455 27.8019 129.455 26.7142C129.455 25.6266 130.379 24.7262 131.496 24.7262H138.639Z" fill="black"/>
<path d="M154.838 28.7024C150.34 28.7024 146.675 25.129 146.675 20.7502C146.675 16.3713 150.34 12.798 154.838 12.798C159.332 12.798 163 16.3713 163 20.7502C163 21.8378 162.076 22.7382 160.96 22.7382H151.296C151.999 23.949 153.305 24.7263 154.835 24.7263H156.876C157.992 24.7263 158.916 25.6267 158.916 26.7144C158.916 27.802 157.992 28.7024 156.876 28.7024H154.838ZM151.296 18.7596H158.374C157.673 17.5796 156.333 16.7715 154.835 16.7715C153.305 16.7715 151.999 17.5796 151.296 18.7596Z" fill="black"/>
<path d="M87.9999 11.305C89.2679 11.305 90.2959 10.3035 90.2959 9.06811C90.2959 7.83271 89.2679 6.83122 87.9999 6.83122C86.7318 6.83122 85.7038 7.83271 85.7038 9.06811C85.7038 10.3035 86.7318 11.305 87.9999 11.305Z" fill="url(#paint0_linear_1217_6663)"/>
<path d="M123.459 11.305C124.727 11.305 125.755 10.3035 125.755 9.06811C125.755 7.83271 124.727 6.83122 123.459 6.83122C122.191 6.83122 121.163 7.83271 121.163 9.06811C121.163 10.3035 122.191 11.305 123.459 11.305Z" fill="url(#paint1_linear_1217_6663)"/>
<path d="M25.4302 0H2.3408C1.04796 0 0 1.02096 0 2.28049V27.1325C0 28.056 0.571375 28.8871 1.44555 29.2386C2.3171 29.59 3.32556 29.395 3.997 28.7435L15.2692 17.7617C16.1828 16.8716 16.1828 15.4273 15.2692 14.5372C14.3555 13.6471 12.8731 13.6471 11.9594 14.5372L4.68159 21.6275V4.56099H25.4328C28.9374 4.56099 31.7864 7.33914 31.7864 10.7509V24.775C31.7864 28.1894 28.9348 30.965 25.4328 30.965H14.2686L21.5464 23.8746C22.4601 22.9845 22.4601 21.5403 21.5464 20.6501C20.6327 19.76 19.1503 19.76 18.2366 20.6501L6.96183 31.6345C6.29303 32.2861 6.09292 33.2685 6.45365 34.1202C6.81701 34.9719 7.67012 35.5285 8.61539 35.5285H25.4275C31.5125 35.5285 36.4627 30.7059 36.4627 24.7776V10.7535C36.468 4.82521 31.5178 0 25.4302 0Z" fill="url(#paint2_linear_1217_6663)"/>
<path d="M25.3326 19.2444C26.6254 19.2444 27.6734 18.2235 27.6734 16.9639V10.8484C27.6734 9.58888 26.6254 8.56791 25.3326 8.56791H19.0553C17.7625 8.56791 16.7145 9.58888 16.7145 10.8484C16.7145 12.1079 17.7625 13.1289 19.0553 13.1289H22.9918V16.9639C22.9918 18.2235 24.0397 19.2444 25.3326 19.2444Z" fill="url(#paint3_linear_1217_6663)"/>
<defs>
<linearGradient id="paint0_linear_1217_6663" x1="85.7045" y1="9.06721" x2="90.2954" y2="9.06721" gradientUnits="userSpaceOnUse">
<stop stop-color="#0068FF"/>
<stop offset="1" stop-color="#0000E1"/>
</linearGradient>
<linearGradient id="paint1_linear_1217_6663" x1="121.164" y1="9.06721" x2="125.755" y2="9.06721" gradientUnits="userSpaceOnUse">
<stop stop-color="#FF9852"/>
<stop offset="0.2774" stop-color="#FF8A3A"/>
<stop offset="1" stop-color="#FF6700"/>
</linearGradient>
<linearGradient id="paint2_linear_1217_6663" x1="22.8397" y1="10.7934" x2="3.74922" y2="30.3887" gradientUnits="userSpaceOnUse">
<stop stop-color="#0068FF"/>
<stop offset="1" stop-color="#0000E1"/>
</linearGradient>
<linearGradient id="paint3_linear_1217_6663" x1="27.4645" y1="8.77234" x2="20.4997" y2="15.9213" gradientUnits="userSpaceOnUse">
<stop stop-color="#FF9852"/>
<stop offset="0.2774" stop-color="#FF8A3A"/>
<stop offset="1" stop-color="#FF6700"/>
</linearGradient>
</defs>
</svg>
