<svg width="50" height="50" viewBox="0 0 50 50" fill="none" xmlns="http://www.w3.org/2000/svg">
<path d="M43.7501 25C42.5001 25 41.6667 25.8333 41.6667 27.0833V39.5833C41.6667 40.8333 40.8334 41.6667 39.5834 41.6667H10.4167C9.16675 41.6667 8.33341 40.8333 8.33341 39.5833V27.0833C8.33341 25.8333 7.50008 25 6.25008 25C5.00008 25 4.16675 25.8333 4.16675 27.0833V39.5833C4.16675 43.125 6.87508 45.8333 10.4167 45.8333H39.5834C43.1251 45.8333 45.8334 43.125 45.8334 39.5833V27.0833C45.8334 25.8333 45.0001 25 43.7501 25ZM18.1251 16.0417L22.9167 11.25V31.25C22.9167 32.5 23.7501 33.3333 25.0001 33.3333C26.2501 33.3333 27.0834 32.5 27.0834 31.25V11.25L31.8751 16.0417C32.7084 16.875 33.9584 16.875 34.7917 16.0417C35.6251 15.2083 35.6251 13.9583 34.7917 13.125L26.4584 4.79167C26.2501 4.58333 26.0417 4.375 25.8334 4.375C25.4167 4.16667 24.7917 4.16667 24.1667 4.375C23.9584 4.375 23.7501 4.58333 23.5417 4.79167L15.2084 13.125C14.3751 13.9583 14.3751 15.2083 15.2084 16.0417C16.0417 16.875 17.2917 16.875 18.1251 16.0417Z" fill="#0061FF"/>
</svg>
