<svg width="45" height="30" viewBox="0 0 45 30" fill="none" xmlns="http://www.w3.org/2000/svg">
<path fill-rule="evenodd" clip-rule="evenodd" d="M20.7683 21.1086V15.8651H23.5519C24.6925 15.8651 25.6553 15.4936 26.4401 14.7607L26.6285 14.5749C28.0621 13.0576 27.968 10.6939 26.4401 9.29014C25.6762 8.54697 24.6297 8.14442 23.5519 8.16506H19.0835V21.1086H20.7683ZM20.769 14.2756V9.75464H23.5949C24.202 9.75464 24.7776 9.98172 25.2067 10.3946C26.1173 11.2616 26.1382 12.7067 25.2591 13.6047C24.8299 14.0485 24.2229 14.2962 23.5949 14.2756H20.769ZM34.488 12.9441C33.7659 12.2938 32.7823 11.9635 31.537 11.9635C29.9359 11.9635 28.7324 12.5415 27.9371 13.6873L29.4231 14.6059C29.9673 13.8214 30.7103 13.4292 31.6521 13.4292C32.2486 13.4292 32.8241 13.646 33.2741 14.0382C33.7136 14.4098 33.9648 14.9465 33.9648 15.5142V15.8961C33.316 15.5452 32.4997 15.3594 31.4951 15.3594C30.3231 15.3594 29.3813 15.6278 28.6801 16.1748C27.979 16.7219 27.6232 17.4444 27.6232 18.363C27.6023 19.1991 27.9685 19.9939 28.6173 20.5306C29.2766 21.1087 30.1138 21.3977 31.0975 21.3977C32.259 21.3977 33.1799 20.8919 33.881 19.8804H33.9543V21.1087H35.5658V15.6484C35.5658 14.5027 35.2101 13.5944 34.488 12.9441ZM29.9139 19.4777C29.5685 19.23 29.3592 18.8275 29.3592 18.394C29.3592 17.9088 29.5895 17.5063 30.0395 17.1863C30.5 16.8663 31.0757 16.7012 31.756 16.7012C32.6979 16.6908 33.4306 16.8973 33.9539 17.3102C33.9539 18.012 33.6713 18.621 33.1166 19.1371C32.6142 19.6326 31.9339 19.9113 31.2222 19.9113C30.7512 19.9216 30.2907 19.7668 29.9139 19.4777ZM39.1862 25L44.8162 12.2526H42.9848L40.3792 18.6108H40.3478L37.6793 12.2526H35.848L39.542 20.541L37.4491 25H39.1862Z" fill="#3C4043"/>
<path d="M14.9532 14.7297C14.9532 14.2239 14.9114 13.7182 14.8277 13.2227H7.72217V16.0819H11.7929C11.6255 17.0005 11.0813 17.8263 10.286 18.3423V20.2003H12.7138C14.137 18.91 14.9532 17.0005 14.9532 14.7297Z" fill="#4285F4"/>
<path d="M7.72094 21.9962C9.75108 21.9962 11.4673 21.3356 12.7126 20.2002L10.2848 18.3423C9.60458 18.7964 8.73601 19.0545 7.72094 19.0545C5.75359 19.0545 4.08972 17.7436 3.49323 15.9889H0.992188V17.9088C2.26887 20.417 4.87456 21.9962 7.72094 21.9962Z" fill="#34A853"/>
<path d="M3.49405 15.989C3.18006 15.0703 3.18006 14.0691 3.49405 13.1401V11.2306H0.992603C-0.0854251 13.3259 -0.0854251 15.8032 0.992603 17.8985L3.49405 15.989Z" fill="#FBBC04"/>
<path d="M7.72094 10.0746C8.7988 10.0539 9.8348 10.4565 10.6092 11.1893L12.7649 9.06302C11.394 7.80375 9.59411 7.11219 7.72094 7.13283C4.87456 7.13283 2.26887 8.7224 0.992188 11.2306L3.49323 13.1505C4.08972 11.3854 5.75359 10.0746 7.72094 10.0746Z" fill="#EA4335"/>
</svg>
