<svg width="135" height="120" viewBox="0 0 135 120" fill="none" xmlns="http://www.w3.org/2000/svg">
<path opacity="0.5" d="M126.392 89.343C128.519 94.6514 125.969 100.94 121.693 104.743C117.414 108.545 111.758 110.362 106.22 111.818C96.0238 114.501 85.5972 116.303 75.0908 117.216C57.1221 118.772 38.9998 116.652 21.9413 110.806C18.65 109.677 15.7857 108.535 13.9896 107.486C6.80574 103.297 1.3405 95.9639 0.20607 87.7331C-0.925034 79.5056 2.65337 70.6042 9.63359 66.089C15.0862 62.5611 22.5777 61.3472 25.7259 55.6773C28.2484 51.1279 26.8897 45.5407 26.3915 40.3637C24.1086 16.6622 42.2498 -0.72621 61.1165 2.3539C70.9039 3.95177 79.5833 11.8944 81.1527 21.6712C81.4638 23.6146 81.5151 25.6165 82.1293 27.4877C84.2247 33.8824 92.0647 36.5406 98.7842 36.0786C105.507 35.6132 111.957 32.9909 118.688 32.7153C125.419 32.4431 133.183 35.6182 134.725 42.1669C136.271 48.7389 130.997 54.7642 126.218 59.5398C108.939 76.8043 123.214 81.4151 126.392 89.343Z" fill="#EDF3FF"/>
<path d="M111.632 47.3039C112.317 47.7225 112.883 48.31 113.276 49.0101C113.669 49.7103 113.875 50.4996 113.875 51.3024V54.7149L95.125 66.1735V57.7782H97.4688C98.0904 57.7782 98.6865 57.5312 99.126 57.0917C99.5656 56.6521 99.8125 56.056 99.8125 55.4344V47.2313C99.8125 46.6097 99.5656 46.0135 99.126 45.574C98.6865 45.1345 98.0904 44.8875 97.4688 44.8875H95.125V37.2985L96.3156 37.8516L111.632 47.3039Z" fill="#FFAE1F"/>
<path d="M97.4688 44.8877C98.0904 44.8877 98.6865 45.1346 99.126 45.5742C99.5656 46.0137 99.8125 46.6098 99.8125 47.2314V55.4346C99.8125 56.0562 99.5656 56.6523 99.126 57.0919C98.6865 57.5314 98.0904 57.7783 97.4688 57.7783H36.5312C35.9096 57.7783 35.3135 57.5314 34.874 57.0919C34.4344 56.6523 34.1875 56.0562 34.1875 55.4346V47.2314C34.1875 46.6098 34.4344 46.0137 34.874 45.5742C35.3135 45.1346 35.9096 44.8877 36.5312 44.8877H97.4688Z" fill="#FBFCFE"/>
<path d="M38.875 66.1734L67 83.3602L95.125 66.1734L113.875 54.7148V96.9023C113.875 99.665 112.778 102.315 110.825 104.268C108.871 106.222 106.222 107.32 103.459 107.32H30.5406C27.778 107.32 25.1286 106.222 23.1753 104.268C21.222 102.315 20.1248 99.665 20.125 96.9023V54.7148L38.875 66.1734Z" fill="#FFBD39"/>
<path d="M95.125 57.7783V66.1736L67 83.3604L38.875 66.1736V57.7783H95.125Z" fill="#7695EA"/>
<path d="M75.0367 25.3359C75.0364 26.3121 75.2284 27.2788 75.6018 28.1808C75.9751 29.0827 76.5225 29.9023 77.2127 30.5927C77.9028 31.2831 78.7222 31.8307 79.6241 32.2044C80.5259 32.578 81.4926 32.7703 82.4688 32.7703H93.0602L95.125 35.0719V44.8875H38.875V20.1141C38.8748 18.1427 39.6576 16.2519 41.0514 14.8577C42.4451 13.4635 44.3356 12.6801 46.307 12.6797H74.6594L75.0367 12.7172V25.3359Z" fill="#7695EA"/>
<path d="M75.0765 12.7219L93.0601 32.7703H82.4687C81.4925 32.7703 80.5258 32.578 79.624 32.2043C78.7221 31.8307 77.9027 31.283 77.2126 30.5927C76.5224 29.9023 75.975 29.0827 75.6017 28.1807C75.2283 27.2788 75.0363 26.3121 75.0366 25.3359V12.7172L75.0765 12.7219Z" fill="#FFBD39"/>
<path d="M34.1875 55.4344C34.1875 56.056 34.4344 56.6521 34.874 57.0917C35.3135 57.5312 35.9096 57.7782 36.5312 57.7782H38.875V66.1735L20.125 54.7149V51.3024C20.1251 50.4996 20.3314 49.7103 20.7241 49.0101C21.1169 48.31 21.6829 47.7225 22.368 47.3039L38.875 37.2985V44.8875H36.5312C35.9096 44.8875 35.3135 45.1345 34.874 45.574C34.4344 46.0135 34.1875 46.6097 34.1875 47.2313V55.4344Z" fill="#FFAE1F"/>
<path d="M69.6204 38.5359H69.1095C68.7365 38.5359 68.3788 38.3878 68.1151 38.124C67.8514 37.8603 67.7032 37.5026 67.7032 37.1297C67.7032 36.7567 67.8514 36.399 68.1151 36.1353C68.3788 35.8716 68.7365 35.7234 69.1095 35.7234H69.6204C69.9934 35.7234 70.3511 35.8716 70.6148 36.1353C70.8785 36.399 71.0267 36.7567 71.0267 37.1297C71.0267 37.5026 70.8785 37.8603 70.6148 38.124C70.3511 38.3878 69.9934 38.5359 69.6204 38.5359ZM64.0892 38.5359H54.4446C54.0717 38.5359 53.714 38.3878 53.4503 38.124C53.1865 37.8603 53.0384 37.5026 53.0384 37.1297C53.0384 36.7567 53.1865 36.399 53.4503 36.1353C53.714 35.8716 54.0717 35.7234 54.4446 35.7234H64.0892C64.4621 35.7234 64.8198 35.8716 65.0835 36.1353C65.3473 36.399 65.4954 36.7567 65.4954 37.1297C65.4954 37.5026 65.3473 37.8603 65.0835 38.124C64.8198 38.3878 64.4621 38.5359 64.0892 38.5359ZM49.3118 38.5359H46.6235C46.2506 38.5359 45.8929 38.3878 45.6292 38.124C45.3654 37.8603 45.2173 37.5026 45.2173 37.1297C45.2173 36.7567 45.3654 36.399 45.6292 36.1353C45.8929 35.8716 46.2506 35.7234 46.6235 35.7234H49.3118C49.6848 35.7234 50.0425 35.8716 50.3062 36.1353C50.5699 36.399 50.7181 36.7567 50.7181 37.1297C50.7181 37.5026 50.5699 37.8603 50.3062 38.124C50.0425 38.3878 49.6848 38.5359 49.3118 38.5359ZM60.4376 30.1898H46.6235C46.2506 30.1898 45.8929 30.0417 45.6292 29.7779C45.3654 29.5142 45.2173 29.1565 45.2173 28.7836C45.2173 28.4106 45.3654 28.0529 45.6292 27.7892C45.8929 27.5255 46.2506 27.3773 46.6235 27.3773H60.4376C60.8106 27.3773 61.1682 27.5255 61.432 27.7892C61.6957 28.0529 61.8438 28.4106 61.8438 28.7836C61.8438 29.1565 61.6957 29.5142 61.432 29.7779C61.1682 30.0417 60.8106 30.1898 60.4376 30.1898Z" fill="#FBFCFE"/>
<path d="M40.9587 54.0257C40.4264 54.0255 39.9061 53.8674 39.4637 53.5715C39.0212 53.2757 38.6763 52.8553 38.4727 52.3635C38.2692 51.8716 38.2159 51.3305 38.3198 50.8085C38.4237 50.2864 38.6801 49.8069 39.0565 49.4305C39.4329 49.0541 39.9124 48.7978 40.4344 48.6939C40.9565 48.59 41.4976 48.6432 41.9894 48.8468C42.4812 49.0504 42.9017 49.3952 43.1975 49.8377C43.4934 50.2802 43.6514 50.8004 43.6517 51.3327C43.651 52.0467 43.3671 52.7314 42.8622 53.2362C42.3573 53.7411 41.6727 54.0251 40.9587 54.0257ZM40.9587 51.2132C40.9429 51.2129 40.9272 51.2157 40.9126 51.2216C40.8979 51.2275 40.8846 51.2363 40.8735 51.2475C40.8623 51.2586 40.8535 51.272 40.8476 51.2866C40.8417 51.3012 40.8388 51.3169 40.8392 51.3327C40.839 51.3486 40.842 51.3643 40.8479 51.379C40.8538 51.3937 40.8626 51.4071 40.8737 51.4184C40.8848 51.4297 40.898 51.4387 40.9126 51.445C40.9272 51.4512 40.9428 51.4544 40.9587 51.4546C40.991 51.4546 41.022 51.4418 41.0449 51.4189C41.0677 51.396 41.0806 51.365 41.0806 51.3327C41.0806 51.3168 41.0775 51.3011 41.0713 51.2864C41.0652 51.2717 41.0562 51.2584 41.0448 51.2473C41.0334 51.2361 41.02 51.2274 41.0052 51.2215C40.9904 51.2157 40.9746 51.2128 40.9587 51.2132ZM53.9806 54.0257C53.4482 54.0259 52.9277 53.8683 52.4849 53.5727C52.0421 53.2771 51.6969 52.8569 51.4929 52.3651C51.289 51.8733 51.2355 51.3321 51.3391 50.8099C51.4427 50.2877 51.6989 49.8079 52.0752 49.4313C52.4515 49.0547 52.931 48.7981 53.4531 48.694C53.9752 48.59 54.5165 48.643 55.0084 48.8465C55.5004 49.0501 55.9209 49.3949 56.2169 49.8374C56.5129 50.28 56.671 50.8003 56.6712 51.3327C56.6706 52.0463 56.387 52.7306 55.8826 53.2354C55.3782 53.7402 54.6942 54.0244 53.9806 54.0257ZM53.9806 51.2132C53.9647 51.2128 53.9489 51.2157 53.9341 51.2215C53.9193 51.2274 53.9058 51.2361 53.8945 51.2473C53.8831 51.2584 53.8741 51.2717 53.8679 51.2864C53.8618 51.3011 53.8587 51.3168 53.8587 51.3327C53.8587 51.3647 53.8714 51.3954 53.894 51.4181C53.9167 51.4407 53.9474 51.4534 53.9794 51.4534C54.0114 51.4534 54.0421 51.4407 54.0647 51.4181C54.0874 51.3954 54.1001 51.3647 54.1001 51.3327C54.1004 51.3169 54.0975 51.3012 54.0916 51.2866C54.0858 51.272 54.077 51.2586 54.0658 51.2475C54.0546 51.2363 54.0413 51.2275 54.0267 51.2216C54.012 51.2157 53.9963 51.2129 53.9806 51.2132ZM67.0001 54.0257C66.4677 54.0259 65.9472 53.8683 65.5044 53.5727C65.0616 53.2771 64.7164 52.8569 64.5125 52.3651C64.3085 51.8733 64.255 51.3321 64.3586 50.8099C64.4623 50.2877 64.7184 49.8079 65.0947 49.4313C65.471 49.0547 65.9505 48.7981 66.4726 48.694C66.9947 48.59 67.536 48.643 68.0279 48.8465C68.5199 49.0501 68.9405 49.3949 69.2364 49.8374C69.5324 50.28 69.6905 50.8003 69.6907 51.3327C69.6901 52.0463 69.4065 52.7306 68.9021 53.2354C68.3977 53.7402 67.7137 54.0244 67.0001 54.0257ZM67.0001 51.2132C66.9681 51.2129 66.9373 51.2254 66.9145 51.2478C66.8916 51.2702 66.8786 51.3007 66.8782 51.3327C66.8782 51.365 66.8911 51.396 66.9139 51.4189C66.9368 51.4418 66.9678 51.4546 67.0001 51.4546C67.0324 51.4546 67.0634 51.4418 67.0863 51.4189C67.1091 51.396 67.122 51.365 67.122 51.3327C67.1216 51.3007 67.1086 51.2702 67.0857 51.2478C67.0629 51.2254 67.0321 51.2129 67.0001 51.2132ZM80.0196 54.0257C79.4873 54.0255 78.9671 53.8674 78.5246 53.5715C78.0821 53.2757 77.7373 52.8553 77.5337 52.3635C77.3301 51.8716 77.2769 51.3305 77.3808 50.8085C77.4847 50.2864 77.741 49.8069 78.1174 49.4305C78.4938 49.0541 78.9733 48.7978 79.4954 48.6939C80.0174 48.59 80.5586 48.6432 81.0504 48.8468C81.5422 49.0504 81.9626 49.3952 82.2585 49.8377C82.5543 50.2802 82.7124 50.8004 82.7126 51.3327C82.712 52.0467 82.4281 52.7314 81.9232 53.2362C81.4183 53.7411 80.7337 54.0251 80.0196 54.0257ZM80.0196 51.2132C80.0038 51.2129 79.9882 51.2157 79.9735 51.2216C79.9589 51.2275 79.9456 51.2363 79.9344 51.2475C79.9232 51.2586 79.9144 51.272 79.9085 51.2866C79.9026 51.3012 79.8998 51.3169 79.9001 51.3327C79.9001 51.3486 79.9032 51.3643 79.9093 51.3789C79.9153 51.3936 79.9242 51.4069 79.9354 51.4181C79.9467 51.4293 79.96 51.4382 79.9746 51.4442C79.9893 51.4503 80.0049 51.4534 80.0208 51.4534C80.0366 51.4534 80.0523 51.4503 80.067 51.4442C80.0816 51.4382 80.0949 51.4293 80.1061 51.4181C80.1174 51.4069 80.1262 51.3936 80.1323 51.3789C80.1384 51.3643 80.1415 51.3486 80.1415 51.3327C80.1415 51.3168 80.1384 51.3011 80.1322 51.2864C80.1261 51.2717 80.1171 51.2584 80.1057 51.2473C80.0944 51.2361 80.0809 51.2274 80.0661 51.2215C80.0513 51.2157 80.0355 51.2128 80.0196 51.2132ZM93.0415 54.0257C92.5091 54.0259 91.9886 53.8683 91.5458 53.5727C91.103 53.2771 90.7578 52.8569 90.5539 52.3651C90.3499 51.8733 90.2964 51.3321 90.4 50.8099C90.5037 50.2877 90.7598 49.8079 91.1361 49.4313C91.5124 49.0547 91.9919 48.7981 92.514 48.694C93.0362 48.59 93.5774 48.643 94.0694 48.8465C94.5613 49.0501 94.9818 49.3949 95.2778 49.8374C95.5738 50.28 95.7319 50.8003 95.7321 51.3327C95.7315 52.0463 95.4479 52.7306 94.9435 53.2354C94.4391 53.7402 93.7551 54.0244 93.0415 54.0257ZM93.0415 51.2132C93.0256 51.2128 93.0098 51.2157 92.995 51.2215C92.9802 51.2274 92.9667 51.2361 92.9554 51.2473C92.944 51.2584 92.935 51.2717 92.9289 51.2864C92.9227 51.3011 92.9196 51.3168 92.9196 51.3327C92.9196 51.365 92.9325 51.396 92.9553 51.4189C92.9782 51.4418 93.0092 51.4546 93.0415 51.4546C93.0573 51.4544 93.073 51.4512 93.0876 51.445C93.1022 51.4387 93.1154 51.4297 93.1265 51.4184C93.1376 51.4071 93.1464 51.3937 93.1523 51.379C93.1582 51.3643 93.1612 51.3486 93.161 51.3327C93.1614 51.3169 93.1585 51.3012 93.1526 51.2866C93.1467 51.272 93.1379 51.2586 93.1267 51.2475C93.1156 51.2363 93.1023 51.2275 93.0876 51.2216C93.073 51.2157 93.0573 51.2129 93.0415 51.2132Z" fill="#2A53C8"/>
</svg>
