<svg width="160" height="40" viewBox="0 0 160 40" fill="none" xmlns="http://www.w3.org/2000/svg">
<path d="M13.3337 13.3334H15.556V26.6668H13.3337V13.3334ZM17.2226 20.0001L26.6671 26.6668V13.3334L17.2226 20.0001Z" fill="white"/>
<path d="M53.3337 28.8889L60.556 24.4445V15.5556L53.3337 11.1111V28.8889ZM60.556 24.4445L67.7782 20L60.556 15.5556V24.4445Z" fill="white"/>
<path d="M93.3337 26.6666L102.778 20L93.3337 13.3333V26.6666ZM104.445 13.3333V26.6666H106.667V13.3333H104.445Z" fill="white"/>
<path d="M143.867 19.9777C143.867 18.0111 142.734 16.3222 141.089 15.4999V17.9555L143.812 20.6777C143.845 20.4555 143.867 20.2222 143.867 19.9777ZM146.645 19.9777C146.645 21.0222 146.423 21.9999 146.045 22.9111L147.723 24.5888C148.456 23.2111 148.867 21.6444 148.867 19.9777C148.867 15.2222 145.545 11.2444 141.089 10.2444V12.5222C144.301 13.4777 146.645 16.4555 146.645 19.9777ZM130.278 9.97772L128.867 11.3777L134.112 16.6333H128.867V23.2999H133.312L138.867 28.8555V21.3777L143.589 26.0999C142.845 26.6777 142.012 27.1333 141.089 27.4111V29.6999C142.623 29.3555 144.012 28.6444 145.189 27.6888L147.456 29.9666L148.867 28.5555L138.867 18.5555L130.289 9.97772H130.278ZM138.856 11.0777L136.534 13.3888L138.856 15.7111V11.0888V11.0777Z" fill="white"/>
</svg>
