<svg width="40" height="40" viewBox="0 0 40 40" fill="none" xmlns="http://www.w3.org/2000/svg">
<path d="M30.6667 27.0321C29.3156 27.0321 28.1067 27.5442 27.1822 28.3464L14.5067 21.2631C14.5956 20.8705 14.6667 20.4779 14.6667 20.0683C14.6667 19.6586 14.5956 19.2661 14.5067 18.8735L27.04 11.8584C28 12.7118 29.2622 13.241 30.6667 13.241C33.6178 13.241 36 10.9538 36 8.12048C36 5.28715 33.6178 3 30.6667 3C27.7156 3 25.3333 5.28715 25.3333 8.12048C25.3333 8.53012 25.4044 8.92269 25.4933 9.31526L12.96 16.3303C12 15.4769 10.7378 14.9478 9.33333 14.9478C6.38222 14.9478 4 17.2349 4 20.0683C4 22.9016 6.38222 25.1888 9.33333 25.1888C10.7378 25.1888 12 24.6596 12.96 23.8062L25.6178 30.9066C25.5289 31.2651 25.4756 31.6406 25.4756 32.0161C25.4756 34.7641 27.8044 37 30.6667 37C33.5289 37 35.8578 34.7641 35.8578 32.0161C35.8578 29.2681 33.5289 27.0321 30.6667 27.0321Z" fill="#80B0FF"/>
</svg>
