<svg width="875" height="588" viewBox="0 0 875 588" fill="none" xmlns="http://www.w3.org/2000/svg">
<g opacity="0.5">
<rect x="0.5" y="0.5" width="218.5" height="146.75" stroke="white"/>
<rect x="0.5" y="147.25" width="218.5" height="146.75" stroke="white"/>
<rect x="0.5" y="294" width="218.5" height="146.75" stroke="white"/>
<rect x="0.5" y="440.75" width="218.5" height="146.75" stroke="white"/>
<rect x="219" y="0.5" width="218.5" height="146.75" stroke="white"/>
<rect x="219" y="147.25" width="218.5" height="146.75" stroke="white"/>
<rect x="219" y="294" width="218.5" height="146.75" stroke="white"/>
<rect x="219" y="440.75" width="218.5" height="146.75" stroke="white"/>
<rect x="437.5" y="0.5" width="218.5" height="146.75" stroke="white"/>
<rect x="437.5" y="147.25" width="218.5" height="146.75" stroke="white"/>
<rect x="437.5" y="294" width="218.5" height="146.75" stroke="white"/>
<rect x="437.5" y="440.75" width="218.5" height="146.75" stroke="white"/>
<rect x="656" y="0.5" width="218.5" height="146.75" stroke="white"/>
<rect x="656" y="147.25" width="218.5" height="146.75" stroke="white"/>
<rect x="656" y="294" width="218.5" height="146.75" stroke="white"/>
<rect x="656" y="440.75" width="218.5" height="146.75" stroke="white"/>
</g>
</svg>
