<svg width="40" height="40" viewBox="0 0 40 40" fill="none" xmlns="http://www.w3.org/2000/svg">
<path d="M39.9878 5.37667C39.988 5.05587 39.9031 4.74075 39.7418 4.46339C39.5805 4.18603 39.3485 3.95635 39.0694 3.79773C38.7904 3.63912 38.4742 3.55723 38.1532 3.56042C37.8322 3.56361 37.5177 3.65175 37.2419 3.81588C36.178 4.44861 35.0326 4.93317 33.8375 5.25611C32.1307 3.79269 29.9539 2.99188 27.7049 3.00006C25.2376 3.0029 22.868 3.96372 21.0964 5.67963C19.3248 7.39554 18.29 9.73223 18.2103 12.1963C13.3464 11.4212 8.93804 8.88452 5.82595 5.06982C5.63844 4.8425 5.39897 4.66357 5.12774 4.54812C4.85651 4.43267 4.56146 4.38408 4.2675 4.40646C3.9737 4.43064 3.69022 4.52595 3.44156 4.68418C3.19291 4.8424 2.98657 5.05876 2.84038 5.31456C2.09067 6.62187 1.66008 8.08743 1.5836 9.59223C1.50711 11.097 1.78688 12.5986 2.40018 13.9751L2.39663 13.9787C2.12099 14.1483 1.8935 14.3858 1.73594 14.6684C1.57838 14.951 1.496 15.2692 1.4967 15.5927C1.49336 15.8595 1.50938 16.1263 1.54463 16.3908C1.73027 18.6761 2.74385 20.8151 4.39529 22.4069C4.28326 22.6202 4.21489 22.8536 4.19416 23.0936C4.17344 23.3336 4.20078 23.5752 4.27459 23.8045C4.99457 26.046 6.5257 27.9383 8.56835 29.1112C6.49307 29.9131 4.25229 30.1926 2.0434 29.9253C1.63457 29.874 1.22044 29.9631 0.868946 30.178C0.517453 30.3928 0.249465 30.7206 0.108943 31.1077C-0.0315797 31.4947 -0.036293 31.918 0.0955756 32.308C0.227444 32.6981 0.488065 33.0318 0.834687 33.2544C4.63367 35.6993 9.05697 36.9991 13.5757 36.9985C18.7 37.0561 23.6997 35.4199 27.7971 32.3445C31.8945 29.269 34.8599 24.9267 36.2319 19.993C36.8736 17.8438 37.2013 15.6132 37.2047 13.3704C37.2047 13.2515 37.2047 13.1292 37.2028 13.0068C38.1518 11.9841 38.887 10.7825 39.3652 9.47229C39.8434 8.16209 40.0551 6.76967 39.9878 5.37667ZM33.9776 11.2101C33.6774 11.5649 33.5255 12.0216 33.5534 12.4853C33.5711 12.785 33.5694 13.0865 33.5694 13.3704C33.5656 15.2656 33.2876 17.1504 32.744 18.9661C31.6234 23.1641 29.1254 26.8648 25.65 29.4757C22.1746 32.0865 17.9229 33.4565 13.5757 33.3662C12.0142 33.3666 10.458 33.1833 8.93939 32.8199C10.8759 32.1963 12.6866 31.2349 14.2875 29.9803C14.5824 29.7483 14.7982 29.4309 14.9053 29.0715C15.0124 28.7121 15.0056 28.3284 14.8858 27.973C14.766 27.6176 14.5391 27.308 14.2362 27.0866C13.9333 26.8651 13.5693 26.7428 13.194 26.7364C11.6833 26.7129 10.2406 26.1044 9.17007 25.039C9.44166 24.9876 9.71146 24.9237 9.97949 24.8475C10.3721 24.7358 10.7157 24.4953 10.9549 24.1648C11.1942 23.8343 11.3151 23.433 11.2983 23.0254C11.2815 22.6179 11.1279 22.2278 10.8623 21.9181C10.5966 21.6084 10.2344 21.397 9.83393 21.318C8.957 21.1449 8.13182 20.7721 7.42253 20.2286C6.71325 19.685 6.13896 18.9854 5.74431 18.184C6.0728 18.2288 6.40339 18.2566 6.73476 18.2673C7.12842 18.2733 7.51378 18.1539 7.8351 17.9266C8.15642 17.6993 8.39705 17.3757 8.5222 17.0027C8.64212 16.6264 8.63595 16.2212 8.50462 15.8486C8.37329 15.476 8.12396 15.1564 7.79445 14.9382C6.99497 14.406 6.34007 13.684 5.88842 12.8368C5.43677 11.9896 5.20246 11.0437 5.20648 10.0839C5.20648 9.96327 5.21002 9.84265 5.21713 9.72382C9.29087 13.5201 14.5748 15.758 20.1379 16.0432C20.4187 16.0543 20.6984 16.0014 20.9557 15.8887C21.2131 15.7759 21.4415 15.6062 21.6236 15.3923C21.8039 15.1764 21.9315 14.9216 21.9965 14.648C22.0615 14.3743 22.062 14.0894 21.998 13.8156C21.8941 13.3822 21.8411 12.9381 21.84 12.4924C21.8417 10.9388 22.4601 9.44918 23.5596 8.35056C24.6591 7.25194 26.1498 6.63402 27.7047 6.63238C28.5047 6.63024 29.2965 6.79384 30.03 7.11285C30.7635 7.43186 31.4229 7.89935 31.9665 8.48582C32.1762 8.71117 32.44 8.87919 32.733 8.97389C33.026 9.06859 33.3383 9.08682 33.6403 9.02684C34.387 8.88165 35.1229 8.68611 35.8431 8.44156C35.3519 9.44586 34.7241 10.3775 33.9776 11.2101Z" fill="#80B0FF"/>
</svg>
