<svg width="32" height="32" viewBox="0 0 32 32" fill="none" xmlns="http://www.w3.org/2000/svg">
<path d="M23.9999 17.5733V13.3333C23.998 11.4441 23.3276 9.61658 22.1074 8.17433C20.8872 6.73207 19.196 5.76815 17.3333 5.45329V3.99996C17.3333 3.64634 17.1928 3.3072 16.9427 3.05715C16.6927 2.8071 16.3535 2.66663 15.9999 2.66663C15.6463 2.66663 15.3072 2.8071 15.0571 3.05715C14.8071 3.3072 14.6666 3.64634 14.6666 3.99996V5.45329C12.8038 5.76815 11.1126 6.73207 9.89243 8.17433C8.67225 9.61658 8.00183 11.4441 7.99992 13.3333V17.5733C7.22185 17.8484 6.54792 18.3574 6.0705 19.0305C5.59309 19.7037 5.33557 20.508 5.33325 21.3333V24C5.33325 24.3536 5.47373 24.6927 5.72378 24.9428C5.97382 25.1928 6.31296 25.3333 6.66659 25.3333H10.8533C11.1603 26.4631 11.8306 27.4605 12.7607 28.1716C13.6908 28.8827 14.8291 29.268 15.9999 29.268C17.1707 29.268 18.309 28.8827 19.2391 28.1716C20.1692 27.4605 20.8395 26.4631 21.1466 25.3333H25.3333C25.6869 25.3333 26.026 25.1928 26.2761 24.9428C26.5261 24.6927 26.6666 24.3536 26.6666 24V21.3333C26.6643 20.508 26.4067 19.7037 25.9293 19.0305C25.4519 18.3574 24.778 17.8484 23.9999 17.5733ZM10.6666 13.3333C10.6666 11.9188 11.2285 10.5623 12.2287 9.56206C13.2289 8.56186 14.5854 7.99996 15.9999 7.99996C17.4144 7.99996 18.771 8.56186 19.7712 9.56206C20.7713 10.5623 21.3333 11.9188 21.3333 13.3333V17.3333H10.6666V13.3333ZM15.9999 26.6666C15.5345 26.6638 15.078 26.5393 14.6757 26.3054C14.2734 26.0715 13.9393 25.7363 13.7066 25.3333H18.2933C18.0606 25.7363 17.7265 26.0715 17.3241 26.3054C16.9218 26.5393 16.4653 26.6638 15.9999 26.6666ZM23.9999 22.6666H7.99992V21.3333C7.99992 20.9797 8.14039 20.6405 8.39044 20.3905C8.64049 20.1404 8.97963 20 9.33325 20H22.6666C23.0202 20 23.3593 20.1404 23.6094 20.3905C23.8594 20.6405 23.9999 20.9797 23.9999 21.3333V22.6666Z" fill="#424C5D"/>
</svg>
