<svg width="24" height="24" viewBox="0 0 24 24" fill="none" xmlns="http://www.w3.org/2000/svg">
<path d="M20.17 9.23064L6.17001 3.45064C5.64029 3.23143 5.05884 3.16858 4.49451 3.26955C3.93018 3.37052 3.4066 3.63107 2.98575 4.02036C2.5649 4.40965 2.2644 4.91137 2.11983 5.46613C1.97526 6.0209 1.99268 6.60547 2.17001 7.15064L3.71001 12.0006L2.13001 16.8506C1.94788 17.398 1.92742 17.9862 2.07108 18.5449C2.21475 19.1036 2.51644 19.609 2.94001 20.0006C3.48465 20.5057 4.19729 20.7908 4.94001 20.8006C5.33474 20.8004 5.72554 20.7222 6.09001 20.5706L20.14 14.7906C20.6872 14.5631 21.1547 14.1785 21.4836 13.6856C21.8125 13.1926 21.988 12.6133 21.988 12.0206C21.988 11.428 21.8125 10.8487 21.4836 10.3557C21.1547 9.86273 20.6872 9.4782 20.14 9.25064L20.17 9.23064ZM5.36001 18.7006C5.18361 18.7734 4.99007 18.7942 4.80225 18.7605C4.61442 18.7268 4.44015 18.6401 4.30001 18.5106C4.168 18.3845 4.07304 18.2246 4.02545 18.0483C3.97785 17.872 3.97943 17.6861 4.03001 17.5106L5.49001 13.0006H19.22L5.36001 18.7006ZM5.49001 11.0006L4.00001 6.53064C3.94943 6.35519 3.94785 6.16924 3.99545 5.99296C4.04304 5.81667 4.138 5.65679 4.27001 5.53064C4.36412 5.43192 4.47742 5.35349 4.60296 5.30018C4.7285 5.24686 4.86362 5.2198 5.00001 5.22064C5.13406 5.2209 5.26669 5.2481 5.39001 5.30064L19.22 11.0006H5.49001Z" fill="#424C5D"/>
</svg>
