<svg width="24" height="24" viewBox="0 0 24 24" fill="none" xmlns="http://www.w3.org/2000/svg">
<path d="M15.5787 12.7517C15.8498 12.2079 15.9935 11.6094 15.9987 11.0017V6.00175C15.9877 5.01394 15.6115 4.06517 14.9426 3.33819C14.2738 2.61121 13.3595 2.15745 12.3761 2.06432C11.3926 1.97119 10.4095 2.24527 9.61603 2.83378C8.8226 3.42228 8.275 4.28358 8.07872 5.25175L15.5787 12.7517ZM18.9987 11.0017C18.9987 10.7365 18.8934 10.4822 18.7058 10.2946C18.5183 10.1071 18.2639 10.0017 17.9987 10.0017C17.7335 10.0017 17.4791 10.1071 17.2916 10.2946C17.1041 10.4822 16.9987 10.7365 16.9987 11.0017C16.9958 11.8754 16.7574 12.7321 16.3087 13.4817L17.7787 15.0017C18.5835 13.8239 19.0091 12.4282 18.9987 11.0017ZM11.9987 15.0017H12.1587L7.99872 10.8317V11.0017C7.99872 12.0626 8.42015 13.08 9.17029 13.8302C9.92044 14.5803 10.9379 15.0017 11.9987 15.0017ZM20.7087 19.2917L4.70872 3.29175C4.61548 3.19851 4.50479 3.12455 4.38297 3.07409C4.26115 3.02363 4.13058 2.99765 3.99872 2.99765C3.86686 2.99765 3.73629 3.02363 3.61447 3.07409C3.49265 3.12455 3.38196 3.19851 3.28872 3.29175C3.10042 3.48005 2.99463 3.73544 2.99463 4.00175C2.99463 4.26805 3.10042 4.52344 3.28872 4.71175L19.2887 20.7117C19.3817 20.8055 19.4923 20.8799 19.6141 20.9306C19.736 20.9814 19.8667 21.0075 19.9987 21.0075C20.1307 21.0075 20.2614 20.9814 20.3833 20.9306C20.5052 20.8799 20.6158 20.8055 20.7087 20.7117C20.8024 20.6188 20.8768 20.5082 20.9276 20.3863C20.9784 20.2645 21.0045 20.1338 21.0045 20.0017C21.0045 19.8697 20.9784 19.739 20.9276 19.6172C20.8768 19.4953 20.8024 19.3847 20.7087 19.2917Z" fill="white"/>
<path d="M14.998 20.0023H12.998V17.9223C13.5639 17.8435 14.1181 17.6957 14.648 17.4823L13.048 15.8823C12.7039 15.9627 12.3515 16.003 11.998 16.0023C10.672 16.0023 9.4002 15.4755 8.46251 14.5378C7.52483 13.6001 6.99805 12.3284 6.99805 11.0023C6.99805 10.7371 6.89269 10.4827 6.70515 10.2952C6.51762 10.1076 6.26326 10.0023 5.99805 10.0023C5.73283 10.0023 5.47848 10.1076 5.29094 10.2952C5.1034 10.4827 4.99805 10.7371 4.99805 11.0023C5.00002 12.6841 5.60745 14.309 6.70923 15.5797C7.811 16.8505 9.33345 17.682 10.998 17.9223V20.0023H8.99805C8.73283 20.0023 8.47848 20.1076 8.29094 20.2952C8.1034 20.4827 7.99805 20.7371 7.99805 21.0023C7.99805 21.2675 8.1034 21.5218 8.29094 21.7094C8.47848 21.8969 8.73283 22.0023 8.99805 22.0023H14.998C15.2633 22.0023 15.5176 21.8969 15.7052 21.7094C15.8927 21.5218 15.998 21.2675 15.998 21.0023C15.998 20.7371 15.8927 20.4827 15.7052 20.2952C15.5176 20.1076 15.2633 20.0023 14.998 20.0023Z" fill="white"/>
</svg>
