<svg width="20" height="20" viewBox="0 0 20 20" fill="none" xmlns="http://www.w3.org/2000/svg">
<path d="M10.0001 1.66666C8.35191 1.66666 6.74074 2.1554 5.37033 3.07108C3.99992 3.98675 2.93182 5.28824 2.30109 6.81096C1.67036 8.33368 1.50533 10.0092 1.82687 11.6257C2.14842 13.2423 2.94209 14.7271 4.10753 15.8925C5.27297 17.058 6.75782 17.8517 8.37433 18.1732C9.99084 18.4947 11.6664 18.3297 13.1891 17.699C14.7118 17.0683 16.0133 16.0002 16.929 14.6297C17.8447 13.2593 18.3334 11.6482 18.3334 9.99999C18.3334 8.90564 18.1179 7.82201 17.6991 6.81096C17.2803 5.79991 16.6665 4.88125 15.8926 4.10743C15.1188 3.33361 14.2002 2.71978 13.1891 2.30099C12.1781 1.8822 11.0944 1.66666 10.0001 1.66666ZM10.0001 16.6667C8.68154 16.6667 7.39261 16.2757 6.29628 15.5431C5.19996 14.8106 4.34547 13.7694 3.84089 12.5512C3.3363 11.333 3.20428 9.99259 3.46152 8.69939C3.71875 7.40618 4.35369 6.2183 5.28604 5.28594C6.21839 4.35359 7.40628 3.71866 8.69948 3.46142C9.99269 3.20419 11.3331 3.33621 12.5513 3.84079C13.7695 4.34538 14.8107 5.19986 15.5432 6.29619C16.2758 7.39252 16.6668 8.68145 16.6668 9.99999C16.6668 11.7681 15.9644 13.4638 14.7141 14.714C13.4639 15.9643 11.7682 16.6667 10.0001 16.6667ZM13.3334 9.16666H10.8334V6.66666C10.8334 6.44564 10.7456 6.23368 10.5893 6.0774C10.4331 5.92112 10.2211 5.83332 10.0001 5.83332C9.77907 5.83332 9.56711 5.92112 9.41083 6.0774C9.25455 6.23368 9.16675 6.44564 9.16675 6.66666V9.16666H6.66675C6.44574 9.16666 6.23378 9.25445 6.0775 9.41073C5.92122 9.56702 5.83342 9.77898 5.83342 9.99999C5.83342 10.221 5.92122 10.433 6.0775 10.5892C6.23378 10.7455 6.44574 10.8333 6.66675 10.8333H9.16675V13.3333C9.16675 13.5543 9.25455 13.7663 9.41083 13.9226C9.56711 14.0789 9.77907 14.1667 10.0001 14.1667C10.2211 14.1667 10.4331 14.0789 10.5893 13.9226C10.7456 13.7663 10.8334 13.5543 10.8334 13.3333V10.8333H13.3334C13.5544 10.8333 13.7664 10.7455 13.9227 10.5892C14.079 10.433 14.1668 10.221 14.1668 9.99999C14.1668 9.77898 14.079 9.56702 13.9227 9.41073C13.7664 9.25445 13.5544 9.16666 13.3334 9.16666Z" fill="#75839D"/>
</svg>
