<svg width="24" height="24" viewBox="0 0 24 24" fill="none" xmlns="http://www.w3.org/2000/svg">
<path d="M21.1 12H19.1C18.5 12 18.1 12.4 18.1 13C18.1 13.6 18.5 14 19.1 14V16H17.9C18 15.7 18.1 15.3 18.1 15C18.1 13.3 16.8 12 15.1 12C14 12 13 12.6 12.5 13.5C12.2 14 12.4 14.6 12.9 14.9C13.4 15.2 14 15 14.3 14.5C14.5 14.2 14.8 14 15.2 14C15.8 14 16.2 14.4 16.2 15C16.2 15.6 15.8 16 15.2 16C14.6 16 14.2 16.4 14.2 17C14.2 17.6 14.6 18 15.2 18C15.8 18 16.2 18.4 16.2 19C16.2 19.6 15.8 20 15.2 20C14.8 20 14.5 19.8 14.3 19.5C14 19 13.4 18.9 12.9 19.1C12.4 19.3 12.3 20 12.5 20.5C13.3 21.9 15.2 22.4 16.6 21.6C17.5 21.1 18.1 20.1 18.1 19C18.1 18.7 18 18.3 17.9 18H19.1V21C19.1 21.6 19.5 22 20.1 22C20.7 22 21.1 21.6 21.1 21V14C21.7 14 22.1 13.6 22.1 13C22.1 12.4 21.6 12 21.1 12ZM14.1 7.00001H15.1C15.7 7.00001 16.1 7.40001 16.1 8.00001V9.00001C16.1 9.60001 16.5 10 17.1 10C17.7 10 18.1 9.60001 18.1 9.00001V8.00001C18.1 6.30001 16.8 5.00001 15.1 5.00001H14.1C13.5 5.00001 13.1 5.40001 13.1 6.00001C13.1 6.60001 13.5 7.00001 14.1 7.00001ZM9.1 11.2C9.2 11.7 9.8 12.1 10.3 11.9C10.8 11.7 11.2 11.2 11 10.7L9.2 3.70001C9 2.50001 7.7 1.80001 6.5 2.10001C5.7 2.30001 5 2.90001 4.8 3.70001L3 10.7C3 11.3 3.3 11.8 3.8 12C4.3 12.1 4.9 11.8 5 11.3L5.6 9.00001H8.5L9.1 11.2ZM6.1 7.00001L6.8 4.20001C6.8 4.10001 7 4.00001 7.2 4.00001C7.3 4.00001 7.3 4.10001 7.4 4.20001L8 7.00001H6.1ZM10.1 16H9.1C8.5 16 8.1 15.6 8.1 15V14C8.1 13.4 7.7 13 7.1 13C6.5 13 6.1 13.4 6.1 14V15C6.1 16.7 7.4 18 9.1 18H10.1C10.7 18 11.1 17.6 11.1 17C11.1 16.4 10.6 16 10.1 16Z" fill="black"/>
</svg>
