<svg width="40" height="40" viewBox="0 0 40 40" fill="none" xmlns="http://www.w3.org/2000/svg">
<path d="M26.8889 33.6H13.1111C11.7408 33.6 10.4267 33.0627 9.45773 32.1062C8.48879 31.1498 7.94444 29.8526 7.94444 28.5V11.5C7.94444 11.0491 7.763 10.6167 7.44002 10.2979C7.11704 9.97911 6.67898 9.8 6.22222 9.8C5.76546 9.8 5.32741 9.97911 5.00443 10.2979C4.68145 10.6167 4.5 11.0491 4.5 11.5V28.5C4.5 30.7543 5.40724 32.9163 7.02214 34.5104C8.63703 36.1045 10.8273 37 13.1111 37H26.8889C27.3456 37 27.7837 36.8209 28.1067 36.5021C28.4297 36.1833 28.6111 35.7509 28.6111 35.3C28.6111 34.8491 28.4297 34.4167 28.1067 34.0979C27.7837 33.7791 27.3456 33.6 26.8889 33.6ZM35.5 14.798C35.4821 14.6418 35.4474 14.488 35.3967 14.339V14.186C35.3139 14.0112 35.2034 13.8505 35.0694 13.71L24.7361 3.51C24.5937 3.37777 24.431 3.26874 24.2539 3.187H24.0989L23.5478 3H16.5556C15.1853 3 13.8711 3.53732 12.9022 4.49376C11.9332 5.45019 11.3889 6.7474 11.3889 8.1V25.1C11.3889 26.4526 11.9332 27.7498 12.9022 28.7062C13.8711 29.6627 15.1853 30.2 16.5556 30.2H30.3333C31.7036 30.2 33.0178 29.6627 33.9867 28.7062C34.9557 27.7498 35.5 26.4526 35.5 25.1V14.9C35.5 14.9 35.5 14.9 35.5 14.798ZM25.1667 8.797L29.6272 13.2H26.8889C26.4321 13.2 25.9941 13.0209 25.6711 12.7021C25.3481 12.3833 25.1667 11.9509 25.1667 11.5V8.797ZM32.0556 25.1C32.0556 25.5509 31.8741 25.9833 31.5511 26.3021C31.2281 26.6209 30.7901 26.8 30.3333 26.8H16.5556C16.0988 26.8 15.6607 26.6209 15.3378 26.3021C15.0148 25.9833 14.8333 25.5509 14.8333 25.1V8.1C14.8333 7.64913 15.0148 7.21673 15.3378 6.89792C15.6607 6.57911 16.0988 6.4 16.5556 6.4H21.7222V11.5C21.7222 12.8526 22.2666 14.1498 23.2355 15.1062C24.2044 16.0627 25.5186 16.6 26.8889 16.6H32.0556V25.1Z" fill="#0061FF"/>
</svg>
