<svg width="16" height="16" viewBox="0 0 16 16" fill="none" xmlns="http://www.w3.org/2000/svg">
<path d="M5.80659 5.13989L7.33325 3.60656V9.99989C7.33325 10.1767 7.40349 10.3463 7.52851 10.4713C7.65354 10.5963 7.82311 10.6666 7.99992 10.6666C8.17673 10.6666 8.3463 10.5963 8.47132 10.4713C8.59635 10.3463 8.66659 10.1767 8.66659 9.99989V3.60656L10.1933 5.13989C10.2552 5.20238 10.329 5.25197 10.4102 5.28582C10.4914 5.31966 10.5786 5.33709 10.6666 5.33709C10.7546 5.33709 10.8417 5.31966 10.923 5.28582C11.0042 5.25197 11.0779 5.20238 11.1399 5.13989C11.2024 5.07792 11.252 5.00418 11.2858 4.92294C11.3197 4.8417 11.3371 4.75457 11.3371 4.66656C11.3371 4.57855 11.3197 4.49141 11.2858 4.41017C11.252 4.32893 11.2024 4.2552 11.1399 4.19322L8.47325 1.52656C8.40985 1.46586 8.33509 1.41829 8.25325 1.38656C8.09094 1.31988 7.90889 1.31988 7.74659 1.38656C7.66475 1.41829 7.58999 1.46586 7.52659 1.52656L4.85992 4.19322C4.79776 4.25538 4.74845 4.32918 4.71481 4.41039C4.68117 4.49161 4.66386 4.57865 4.66386 4.66656C4.66386 4.75446 4.68117 4.84151 4.71481 4.92272C4.74845 5.00394 4.79776 5.07773 4.85992 5.13989C4.92208 5.20205 4.99587 5.25136 5.07709 5.285C5.1583 5.31864 5.24535 5.33595 5.33325 5.33595C5.42116 5.33595 5.5082 5.31864 5.58942 5.285C5.67063 5.25136 5.74443 5.20205 5.80659 5.13989ZM13.9999 7.99989C13.8231 7.99989 13.6535 8.07013 13.5285 8.19515C13.4035 8.32018 13.3333 8.48975 13.3333 8.66656V12.6666C13.3333 12.8434 13.263 13.0129 13.138 13.138C13.013 13.263 12.8434 13.3332 12.6666 13.3332H3.33325C3.15644 13.3332 2.98687 13.263 2.86185 13.138C2.73682 13.0129 2.66659 12.8434 2.66659 12.6666V8.66656C2.66659 8.48975 2.59635 8.32018 2.47132 8.19515C2.3463 8.07013 2.17673 7.99989 1.99992 7.99989C1.82311 7.99989 1.65354 8.07013 1.52851 8.19515C1.40349 8.32018 1.33325 8.48975 1.33325 8.66656V12.6666C1.33325 13.197 1.54397 13.7057 1.91904 14.0808C2.29411 14.4558 2.80282 14.6666 3.33325 14.6666H12.6666C13.197 14.6666 13.7057 14.4558 14.0808 14.0808C14.4559 13.7057 14.6666 13.197 14.6666 12.6666V8.66656C14.6666 8.48975 14.5963 8.32018 14.4713 8.19515C14.3463 8.07013 14.1767 7.99989 13.9999 7.99989Z" fill="#0061FF"/>
</svg>
