<svg width="32" height="32" viewBox="0 0 32 32" fill="none" xmlns="http://www.w3.org/2000/svg">
<path d="M10.2804 8.38692L4.94708 3.05359C4.82276 2.92927 4.67517 2.83066 4.51274 2.76338C4.35031 2.6961 4.17622 2.66147 4.00041 2.66147C3.8246 2.66147 3.65051 2.6961 3.48808 2.76338C3.32565 2.83066 3.17806 2.92927 3.05374 3.05359C2.80267 3.30466 2.66162 3.64519 2.66162 4.00026C2.66162 4.35533 2.80267 4.69585 3.05374 4.94692L6.16041 8.00026C5.18961 8.12419 4.29792 8.59974 3.65415 9.33688C3.01038 10.074 2.6592 11.0216 2.66708 12.0003V20.0003C2.66708 21.0611 3.0885 22.0785 3.83865 22.8287C4.5888 23.5788 5.60621 24.0003 6.66708 24.0003H18.6671C19.5925 23.9959 20.4878 23.6708 21.2004 23.0803L27.0537 28.9469C27.1777 29.0719 27.3252 29.1711 27.4876 29.2388C27.6501 29.3065 27.8244 29.3413 28.0004 29.3413C28.1764 29.3413 28.3507 29.3065 28.5132 29.2388C28.6757 29.1711 28.8231 29.0719 28.9471 28.9469C29.072 28.823 29.1712 28.6755 29.2389 28.513C29.3066 28.3505 29.3415 28.1763 29.3415 28.0003C29.3415 27.8242 29.3066 27.65 29.2389 27.4875C29.1712 27.325 29.072 27.1775 28.9471 27.0536L10.2804 8.38692ZM18.6671 21.3336H6.66708C6.31345 21.3336 5.97432 21.1931 5.72427 20.9431C5.47422 20.693 5.33374 20.3539 5.33374 20.0003V12.0003C5.33374 11.6466 5.47422 11.3075 5.72427 11.0574C5.97432 10.8074 6.31345 10.6669 6.66708 10.6669H8.78708L19.2804 21.1736C19.0918 21.2755 18.8814 21.3303 18.6671 21.3336ZM28.7071 9.53359C28.5044 9.41657 28.2745 9.35496 28.0404 9.35496C27.8064 9.35496 27.5764 9.41657 27.3737 9.53359L22.6671 11.8536C22.6291 10.8184 22.191 9.83822 21.4449 9.11951C20.6988 8.4008 19.703 7.99956 18.6671 8.00026H16.8804C16.5268 8.00026 16.1876 8.14073 15.9376 8.39078C15.6876 8.64083 15.5471 8.97997 15.5471 9.33359C15.5471 9.68721 15.6876 10.0264 15.9376 10.2764C16.1876 10.5264 16.5268 10.6669 16.8804 10.6669H18.6671C19.0207 10.6669 19.3598 10.8074 19.6099 11.0574C19.8599 11.3075 20.0004 11.6466 20.0004 12.0003V14.0003C19.9955 14.0846 19.9955 14.1692 20.0004 14.2536C20.0083 14.3455 20.0308 14.4355 20.0671 14.5203C20.0671 14.5203 20.1337 14.6003 20.1604 14.6536C20.2147 14.7552 20.2819 14.8493 20.3604 14.9336C20.3604 14.9336 20.4937 15.0136 20.5604 15.0669L20.7871 15.2136C20.8888 15.2275 20.992 15.2275 21.0937 15.2136C21.1558 15.2198 21.2183 15.2198 21.2804 15.2136C21.3648 15.2185 21.4494 15.2185 21.5337 15.2136C21.6256 15.2057 21.7156 15.1832 21.8004 15.1469L26.6671 12.8269V20.4536C26.6671 20.8072 26.8076 21.1464 27.0576 21.3964C27.3076 21.6465 27.6468 21.7869 28.0004 21.7869C28.354 21.7869 28.6932 21.6465 28.9432 21.3964C29.1933 21.1464 29.3337 20.8072 29.3337 20.4536V10.6669C29.3342 10.4403 29.2769 10.2174 29.1672 10.0191C29.0576 9.82077 28.8992 9.65369 28.7071 9.53359Z" fill="#FAFCFF"/>
</svg>
