<svg width="24" height="24" viewBox="0 0 24 24" fill="none" xmlns="http://www.w3.org/2000/svg">
<path d="M6.5 5.70387V6.4809L7.20718 6.15893L9.78428 4.98561C9.78429 4.98561 9.78429 4.98561 9.78429 4.98561C9.94228 4.91368 10.1275 4.92587 10.2733 5.01644L10.2733 5.01645C10.418 5.10629 10.5 5.25775 10.5 5.41463V9.31707V9.81707H11H13H13.5V9.31707V3.46341C13.5 3.2123 13.7121 2.9878 14 2.9878H19C19.2879 2.9878 19.5 3.2123 19.5 3.46341V20.0488V20.5488H20H21C21.2879 20.5488 21.5 20.7733 21.5 21.0244C21.5 21.2755 21.2879 21.5 21 21.5H3C2.71215 21.5 2.5 21.2755 2.5 21.0244C2.5 20.7733 2.71215 20.5488 3 20.5488H4H4.5V20.0488V7.69106C4.5 7.51314 4.60582 7.34329 4.78429 7.26204L4.78429 7.26203L5.20718 7.06949L5.5 6.93618V6.61444V2.97561C5.5 2.72451 5.71215 2.5 6 2.5C6.28785 2.5 6.5 2.72451 6.5 2.97561V5.70387ZM18 20.5488H18.5V20.0488V4.43902V3.93902H18H15H14.5V4.43902V9.31707V9.81707H15C15.2879 9.81707 15.5 10.0416 15.5 10.2927V20.0488V20.5488H16H18ZM14.5 11.2683V10.7683H14H10H9.5V11.2683V20.0488V20.5488H10H14H14.5V20.0488V11.2683ZM8 20.5488H8.5V20.0488V10.2927C8.5 10.0416 8.71216 9.81707 9 9.81707H9.5V9.31707V6.94653V6.1695L8.79282 6.49147L5.79282 7.85733L5.5 7.99065V8.31239V20.0488V20.5488H6H8Z" fill="#0061FF" stroke="#0061FF"/>
</svg>
