<svg width="24" height="24" viewBox="0 0 24 24" fill="none" xmlns="http://www.w3.org/2000/svg">
<path d="M14.8482 13.0668L14.8484 13.067C14.9053 13.0998 14.9552 13.1435 14.9952 13.1956C15.0353 13.2477 15.0646 13.3072 15.0817 13.3706C15.0987 13.4341 15.103 13.5003 15.0945 13.5654C15.0859 13.6306 15.0646 13.6934 15.0318 13.7503C14.9989 13.8072 14.9552 13.8571 14.9031 13.8971C14.8509 13.9371 14.7914 13.9664 14.728 13.9834C14.6645 14.0004 14.5983 14.0047 14.5332 13.9961C14.468 13.9875 14.4052 13.9662 14.3483 13.9333L14.3481 13.9332L11.75 12.4332L11.75 12.4332C11.674 12.3893 11.6108 12.3262 11.5669 12.2502C11.5231 12.1741 11.5 12.0879 11.5 12.0001V12V7C11.5 6.86739 11.5527 6.74022 11.6465 6.64645C11.7402 6.55268 11.8674 6.5 12 6.5C12.1326 6.5 12.2598 6.55268 12.3536 6.64645C12.4473 6.74022 12.5 6.86739 12.5 7V11.4228V11.7116L12.7501 11.8559L14.8482 13.0668ZM12 20.5H12.0006C14.254 20.4974 16.4143 19.6011 18.0077 18.0077C19.6011 16.4143 20.4974 14.254 20.5 12.0006V12C20.5 10.3189 20.0015 8.67547 19.0675 7.27765C18.1335 5.87984 16.806 4.79037 15.2528 4.14702C13.6996 3.50368 11.9906 3.33535 10.3417 3.66333C8.6929 3.9913 7.17834 4.80085 5.9896 5.98959C4.80085 7.17834 3.9913 8.69289 3.66333 10.3417C3.33536 11.9906 3.50368 13.6996 4.14703 15.2528C4.79037 16.806 5.87984 18.1335 7.27766 19.0675C8.67548 20.0015 10.3189 20.5 12 20.5ZM6.72209 4.10104C8.28427 3.05722 10.1209 2.50006 11.9997 2.5C14.5185 2.50287 16.9332 3.50471 18.7143 5.28574C20.4954 7.06684 21.4972 9.48171 21.5 12.0006C21.4999 13.8793 20.9427 15.7158 19.899 17.2779C18.8551 18.8402 17.3714 20.0578 15.6355 20.7769C13.8996 21.4959 11.9895 21.684 10.1466 21.3175C8.30383 20.9509 6.61109 20.0461 5.28249 18.7175C3.95389 17.3889 3.0491 15.6962 2.68254 13.8534C2.31598 12.0105 2.50412 10.1004 3.22315 8.36451C3.94218 6.62861 5.15982 5.14491 6.72209 4.10104Z" stroke="#0061FF"/>
</svg>
