<svg width="40" height="40" viewBox="0 0 40 40" fill="none" xmlns="http://www.w3.org/2000/svg">
<path d="M20.1445 3C10.7605 3 3.14453 10.616 3.14453 20C3.14453 29.384 10.7605 37 20.1445 37H28.6445V33.6H20.1445C12.7665 33.6 6.54453 27.378 6.54453 20C6.54453 12.622 12.7665 6.4 20.1445 6.4C27.5225 6.4 33.7445 12.622 33.7445 20V22.431C33.7445 23.774 32.5375 25.1 31.1945 25.1C29.8515 25.1 28.6445 23.774 28.6445 22.431V20C28.6445 15.308 24.8365 11.5 20.1445 11.5C15.4525 11.5 11.6445 15.308 11.6445 20C11.6445 24.692 15.4525 28.5 20.1445 28.5C22.4905 28.5 24.6325 27.548 26.1625 26.001C27.2675 27.514 29.1715 28.5 31.1945 28.5C34.5435 28.5 37.1445 25.78 37.1445 22.431V20C37.1445 10.616 29.5285 3 20.1445 3ZM20.1445 25.1C17.3225 25.1 15.0445 22.822 15.0445 20C15.0445 17.178 17.3225 14.9 20.1445 14.9C22.9665 14.9 25.2445 17.178 25.2445 20C25.2445 22.822 22.9665 25.1 20.1445 25.1Z" fill="#80B0FF"/>
</svg>
