<svg width="91" height="84" viewBox="0 0 91 84" fill="none" xmlns="http://www.w3.org/2000/svg">
<path d="M24.2601 14.6713L10.8583 1.22783C10.469 0.838562 10.0069 0.529775 9.4983 0.319103C8.98969 0.108431 8.44457 0 7.89406 0C7.34355 0 6.79843 0.108431 6.28982 0.319103C5.78121 0.529775 5.31908 0.838562 4.92981 1.22783C4.14364 2.014 3.70198 3.08027 3.70198 4.19208C3.70198 5.30389 4.14364 6.37017 4.92981 7.15633L14.4071 16.7171C9.59315 19.4537 5.15786 22.8083 1.21406 26.6953C0.436462 27.4776 0 28.5357 0 29.6387C0 30.7417 0.436462 31.7998 1.21406 32.5821C1.60073 32.9766 2.06183 33.2904 2.57066 33.5054C3.07949 33.7204 3.62593 33.8323 4.17831 33.8346C5.27358 33.83 6.32317 33.3951 7.10081 32.6238C11.0793 28.6783 15.6418 25.3691 20.6278 22.8126L26.8486 29.2421C21.6746 31.5037 16.9725 34.7187 12.9876 38.7193C12.5534 39.0968 12.2019 39.5599 11.9552 40.0795C11.7084 40.5992 11.5717 41.1643 11.5537 41.7393C11.5357 42.3143 11.6367 42.8869 11.8504 43.421C12.0641 43.9551 12.3858 44.4393 12.7955 44.8432C13.2052 45.2471 13.6939 45.562 14.231 45.7681C14.7681 45.9742 15.342 46.0671 15.9167 46.0409C16.4914 46.0147 17.0545 45.87 17.5706 45.6159C18.0868 45.3618 18.5448 45.0038 18.9161 44.5643C22.964 40.5345 27.8958 37.5039 33.3198 35.7133L40.0833 42.4351C34.2954 43.5487 28.9734 46.3697 24.8028 50.5346C24.3686 50.912 24.0172 51.3751 23.7704 51.8948C23.5237 52.4145 23.387 52.9796 23.369 53.5546C23.3509 54.1296 23.4519 54.7021 23.6656 55.2362C23.8793 55.7704 24.2011 56.2546 24.6108 56.6585C25.0204 57.0624 25.5091 57.3773 26.0463 57.5833C26.5834 57.7894 27.1573 57.8823 27.732 57.8561C28.3067 57.8299 28.8697 57.6853 29.3859 57.4312C29.902 57.1771 30.3601 56.8191 30.7313 56.3796C32.6548 54.4171 34.9468 52.8537 37.4758 51.779C40.0049 50.7043 42.7212 50.1396 45.4691 50.1171C46.3499 50.1194 47.2292 50.1892 48.0993 50.3258L80.0798 82.3063C80.4679 82.6977 80.9297 83.0083 81.4384 83.2202C81.9472 83.4322 82.4929 83.5413 83.0441 83.5413C83.5952 83.5413 84.1409 83.4322 84.6497 83.2202C85.1584 83.0083 85.6202 82.6977 86.0083 82.3063C86.3996 81.9182 86.7102 81.4565 86.9222 80.9477C87.1341 80.4389 87.2433 79.8932 87.2433 79.3421C87.2433 78.7909 87.1341 78.2452 86.9222 77.7365C86.7102 77.2277 86.3996 76.766 86.0083 76.3778L24.2601 14.6713ZM45.4691 58.4671C42.9919 58.4671 40.5703 59.2017 38.5105 60.5779C36.4508 61.9542 34.8455 63.9103 33.8975 66.199C32.9495 68.4876 32.7014 71.006 33.1847 73.4356C33.668 75.8652 34.8609 78.0969 36.6125 79.8486C38.3642 81.6003 40.5959 82.7932 43.0256 83.2764C45.4552 83.7597 47.9735 83.5117 50.2622 82.5637C52.5508 81.6157 54.507 80.0103 55.8832 77.9506C57.2595 75.8909 57.9941 73.4693 57.9941 70.9921C57.9941 67.6703 56.6745 64.4845 54.3256 62.1356C51.9767 59.7867 48.7909 58.4671 45.4691 58.4671ZM45.4691 75.1671C44.6433 75.1671 43.8361 74.9222 43.1496 74.4635C42.463 74.0047 41.9279 73.3527 41.6119 72.5898C41.2959 71.8269 41.2132 70.9875 41.3743 70.1776C41.5354 69.3677 41.933 68.6238 42.5169 68.0399C43.1008 67.456 43.8447 67.0584 44.6546 66.8973C45.4644 66.7362 46.3039 66.8189 47.0668 67.1349C47.8296 67.4509 48.4817 67.986 48.9404 68.6726C49.3992 69.3592 49.6441 70.1664 49.6441 70.9921C49.6441 72.0994 49.2042 73.1613 48.4212 73.9443C47.6383 74.7272 46.5763 75.1671 45.4691 75.1671ZM89.7658 26.6953C83.0942 20.0296 75.0033 14.9568 66.0969 11.8555C57.1905 8.75412 47.6987 7.70438 38.3298 8.78458C37.7815 8.84489 37.2505 9.0126 36.7671 9.27813C36.2836 9.54367 35.8572 9.90182 35.5121 10.3322C34.8153 11.2012 34.4923 12.3116 34.6141 13.4188C34.7359 14.5261 35.2925 15.5397 36.1616 16.2365C37.0307 16.9333 38.141 17.2564 39.2483 17.1346C47.3727 16.2073 55.6017 17.1179 63.3268 19.7989C71.052 22.48 78.0758 26.8629 83.8791 32.6238C84.6652 33.4045 85.7293 33.8408 86.8372 33.8369C87.9451 33.833 89.0061 33.3891 89.7867 32.603C90.5673 31.8168 91.0037 30.7527 90.9998 29.6448C90.9958 28.5369 90.552 27.476 89.7658 26.6953ZM72.0221 44.3973C72.8158 45.0874 73.8408 45.4524 74.892 45.4194C75.9433 45.3865 76.9434 44.9579 77.6923 44.2195C78.4413 43.4811 78.884 42.4872 78.9318 41.4365C78.9797 40.3858 78.6293 39.3558 77.9506 38.5523C72.3737 32.911 65.4013 28.8486 57.7436 26.7788C57.198 26.5681 56.6142 26.4744 56.0301 26.5037C55.4459 26.533 54.8745 26.6847 54.3527 26.949C53.831 27.2132 53.3706 27.5842 53.0014 28.0378C52.6321 28.4914 52.3623 29.0175 52.2095 29.582C52.0566 30.1465 52.024 30.7369 52.1138 31.3148C52.2037 31.8927 52.414 32.4453 52.731 32.9368C53.0481 33.4283 53.4649 33.8476 53.9544 34.1677C54.4439 34.4878 54.9952 34.7014 55.5726 34.7948C61.7939 36.5192 67.4616 39.8278 72.0221 44.3973Z" fill="#4D90FF"/>
</svg>
