<svg width="17" height="17" viewBox="0 0 17 17" fill="none" xmlns="http://www.w3.org/2000/svg">
<path d="M13.2535 5.10652C13.1876 5.04013 13.1093 4.98743 13.023 4.95147C12.9366 4.9155 12.844 4.89699 12.7505 4.89699C12.657 4.89699 12.5644 4.9155 12.4781 4.95147C12.3918 4.98743 12.3134 5.04013 12.2476 5.10652L6.97031 10.3909L4.75314 8.16664C4.68476 8.10059 4.60405 8.04866 4.51561 8.01381C4.42717 7.97895 4.33273 7.96186 4.23768 7.9635C4.14263 7.96515 4.04884 7.9855 3.96165 8.02339C3.87447 8.06128 3.7956 8.11598 3.72955 8.18435C3.66351 8.25272 3.61157 8.33343 3.57672 8.42187C3.54187 8.51032 3.52477 8.60476 3.52642 8.69981C3.52806 8.79486 3.54841 8.88865 3.5863 8.97583C3.6242 9.06302 3.67889 9.14188 3.74726 9.20793L6.46737 11.928C6.53322 11.9944 6.61157 12.0471 6.69789 12.0831C6.78421 12.1191 6.87679 12.1376 6.97031 12.1376C7.06382 12.1376 7.15641 12.1191 7.24273 12.0831C7.32905 12.0471 7.40739 11.9944 7.47324 11.928L13.2535 6.14781C13.3254 6.08148 13.3828 6.00097 13.422 5.91136C13.4612 5.82176 13.4815 5.72499 13.4815 5.62717C13.4815 5.52934 13.4612 5.43257 13.422 5.34297C13.3828 5.25336 13.3254 5.17285 13.2535 5.10652Z" fill="white"/>
</svg>
