<svg width="40" height="40" viewBox="0 0 40 40" fill="none" xmlns="http://www.w3.org/2000/svg">
<path d="M35.8645 3.63157C35.4244 3.23078 34.8934 2.96811 34.3278 2.8715C33.7623 2.7749 33.1834 2.84799 32.6527 3.08299L4.95607 15.3257C4.36376 15.5925 3.85957 16.0502 3.51041 16.6381C3.16126 17.2259 2.98366 17.9162 3.00118 18.6171C3.0187 19.3181 3.23052 19.9967 3.60852 20.5627C3.98652 21.1288 4.51282 21.5557 5.11757 21.7866L10.72 23.9199L13.8427 35.2256C13.8851 35.3767 13.9467 35.5204 14.0256 35.6527C14.0376 35.673 14.0545 35.6881 14.0672 35.7078C14.1584 35.8471 14.2686 35.9703 14.394 36.0729C14.4296 36.1027 14.4638 36.1305 14.5019 36.157C14.6486 36.2635 14.8111 36.3415 14.9821 36.3873L15.0004 36.389L15.0108 36.3938C15.1136 36.4167 15.2183 36.4284 15.3232 36.4285C15.3333 36.4285 15.3423 36.4233 15.3523 36.423C15.5106 36.42 15.6676 36.3902 15.8176 36.3345C15.8525 36.3215 15.8824 36.2998 15.9163 36.284C16.0281 36.2333 16.1341 36.1682 16.232 36.0902C16.3104 36.0179 16.3888 35.9456 16.4673 35.8733L20.6434 30.8252L26.8722 36.108C27.4206 36.5754 28.0955 36.8295 28.7905 36.8301C29.5187 36.8291 30.2244 36.554 30.7894 36.0509C31.3544 35.5479 31.7442 34.8475 31.8936 34.0672L36.936 6.96614C37.0503 6.35618 37.011 5.72369 36.8222 5.13632C36.6335 4.54896 36.3024 4.02883 35.8645 3.63157ZM15.936 24.4585C15.7217 24.6922 15.5753 24.99 15.515 25.3145L15.0366 27.8594L13.8248 23.4717L20.1077 19.8897L15.936 24.4585ZM28.7664 33.4327L21.4056 27.1899C21.0977 26.9294 20.7114 26.8054 20.3237 26.8428C19.936 26.8802 19.5754 27.0761 19.3138 27.3915L17.9763 29.0078L18.449 26.4926L29.3957 14.5077C29.657 14.222 29.8162 13.8433 29.8445 13.4402C29.8727 13.0371 29.7682 12.6362 29.5498 12.3102C29.3314 11.9842 29.0136 11.7546 28.6539 11.663C28.2942 11.5715 27.9165 11.6239 27.5891 11.811L11.8787 20.7664L6.12275 18.4603L33.9084 6.29027L28.7664 33.4327Z" fill="#80B0FF"/>
</svg>
