<svg width="22" height="22" viewBox="0 0 22 22" fill="none" xmlns="http://www.w3.org/2000/svg">
<path d="M10.9999 1.83333C5.95825 1.83333 1.83325 5.95833 1.83325 11C1.83325 16.0417 5.95825 20.1667 10.9999 20.1667C16.0416 20.1667 20.1666 16.0417 20.1666 11C20.1666 5.95833 16.0416 1.83333 10.9999 1.83333ZM14.8499 9.44166L10.4499 13.8417C10.0833 14.2083 9.53325 14.2083 9.16658 13.8417L7.14992 11.825C6.78325 11.4583 6.78325 10.9083 7.14992 10.5417C7.51659 10.175 8.06659 10.175 8.43325 10.5417L9.80825 11.9167L13.5666 8.15833C13.9333 7.79166 14.4833 7.79166 14.8499 8.15833C15.2166 8.52499 15.2166 9.07499 14.8499 9.44166Z" fill="#0061FF"/>
</svg>
