<svg width="24" height="24" viewBox="0 0 24 24" fill="none" xmlns="http://www.w3.org/2000/svg">
<path d="M22.0014 9.66966C21.9383 9.48674 21.8234 9.32608 21.6708 9.20716C21.5181 9.08823 21.3342 9.01615 21.1414 8.99966L15.4514 8.16966L12.9014 2.99966C12.8196 2.83059 12.6917 2.688 12.5325 2.58823C12.3734 2.48846 12.1893 2.43555 12.0014 2.43555C11.8136 2.43555 11.6295 2.48846 11.4704 2.58823C11.3112 2.688 11.1833 2.83059 11.1014 2.99966L8.55144 8.15966L2.86144 8.99966C2.67636 9.02596 2.50237 9.10362 2.35919 9.22381C2.21602 9.34401 2.1094 9.50193 2.05144 9.67966C1.99839 9.85333 1.99363 10.0382 2.03767 10.2143C2.08171 10.3905 2.1729 10.5514 2.30144 10.6797L6.43144 14.6797L5.43144 20.3597C5.39574 20.5471 5.41444 20.7409 5.48531 20.9181C5.55619 21.0953 5.6763 21.2485 5.83144 21.3597C5.98266 21.4678 6.16102 21.5316 6.34649 21.5439C6.53196 21.5563 6.71721 21.5167 6.88144 21.4297L12.0014 18.7597L17.1014 21.4397C17.2418 21.5188 17.4003 21.5602 17.5614 21.5597C17.7733 21.5604 17.9799 21.4939 18.1514 21.3697C18.3066 21.2585 18.4267 21.1053 18.4976 20.9281C18.5684 20.7509 18.5871 20.5571 18.5514 20.3697L17.5514 14.6897L21.6814 10.6897C21.8258 10.5673 21.9325 10.4066 21.9892 10.226C22.0458 10.0455 22.0501 9.85253 22.0014 9.66966ZM15.8514 13.6697C15.7342 13.7831 15.6464 13.9235 15.5959 14.0786C15.5453 14.2338 15.5335 14.3989 15.5614 14.5597L16.2814 18.7497L12.5214 16.7497C12.3768 16.6726 12.2154 16.6323 12.0514 16.6323C11.8875 16.6323 11.7261 16.6726 11.5814 16.7497L7.82144 18.7497L8.54144 14.5597C8.56938 14.3989 8.55756 14.2338 8.50701 14.0786C8.45646 13.9235 8.36872 13.7831 8.25144 13.6697L5.25144 10.6697L9.46144 10.0597C9.62344 10.0371 9.77744 9.9752 9.90994 9.87931C10.0424 9.78342 10.1494 9.65649 10.2214 9.50966L12.0014 5.69966L13.8814 9.51966C13.9535 9.66649 14.0604 9.79342 14.1929 9.88931C14.3254 9.9852 14.4794 10.0471 14.6414 10.0697L18.8514 10.6797L15.8514 13.6697Z" fill="#424C5D"/>
</svg>
