<svg width="335" height="56" viewBox="0 0 335 56" fill="none" xmlns="http://www.w3.org/2000/svg">
<rect width="334.951" height="56" rx="4" fill="white"/>
<path d="M28 19C26.0204 19.0062 24.1082 19.7202 22.609 21.013C21.46 22.003 20.6275 23.293 20.413 24.5875C17.899 25.1425 16 27.3325 16 29.977C16 33.049 18.562 35.5 21.6715 35.5H35.0305C37.753 35.5 40 33.355 40 30.6595C40 28.2055 38.137 26.206 35.749 25.8685C35.3845 21.9985 32.035 19 28 19ZM31.531 26.719C31.6007 26.7887 31.656 26.8715 31.6938 26.9626C31.7315 27.0537 31.7509 27.1514 31.7509 27.25C31.7509 27.3486 31.7315 27.4463 31.6938 27.5374C31.656 27.6285 31.6007 27.7113 31.531 27.781C31.4613 27.8507 31.3785 27.906 31.2874 27.9438C31.1963 27.9815 31.0986 28.0009 31 28.0009C30.9014 28.0009 30.8037 27.9815 30.7126 27.9438C30.6215 27.906 30.5387 27.8507 30.469 27.781L28.75 26.0605V31.75C28.75 31.9489 28.671 32.1397 28.5303 32.2803C28.3897 32.421 28.1989 32.5 28 32.5C27.8011 32.5 27.6103 32.421 27.4697 32.2803C27.329 32.1397 27.25 31.9489 27.25 31.75V26.0605L25.531 27.781C25.3902 27.9218 25.1992 28.0009 25 28.0009C24.8008 28.0009 24.6098 27.9218 24.469 27.781C24.3282 27.6402 24.2491 27.4492 24.2491 27.25C24.2491 27.0508 24.3282 26.8598 24.469 26.719L27.469 23.719C27.5387 23.6492 27.6214 23.5937 27.7125 23.5559C27.8037 23.5181 27.9013 23.4987 28 23.4987C28.0987 23.4987 28.1963 23.5181 28.2874 23.5559C28.3786 23.5937 28.4613 23.6492 28.531 23.719L31.531 26.719Z" fill="black"/>
<path d="M69.5 31C70.3747 30.9974 71.2163 30.6653 71.857 30.07L78.117 33.647C77.9073 34.4666 77.9998 35.3343 78.3775 36.0913C78.7552 36.8483 79.393 37.444 80.174 37.7692C80.955 38.0944 81.827 38.1275 82.6304 37.8623C83.4338 37.5971 84.1148 37.0515 84.5488 36.3253C84.9827 35.599 85.1406 34.7408 84.9935 33.9077C84.8464 33.0745 84.4042 32.3222 83.7478 31.7885C83.0914 31.2548 82.2647 30.9754 81.419 31.0013C80.5734 31.0273 79.7655 31.357 79.143 31.93L72.883 28.353C72.949 28.103 72.985 27.844 72.991 27.585L79.141 24.07C79.7332 24.6088 80.4927 24.9275 81.292 24.9727C82.0913 25.0179 82.8818 24.7869 83.531 24.3183C84.1802 23.8498 84.6484 23.1722 84.8572 22.3993C85.0661 21.6264 85.0027 20.8052 84.6779 20.0735C84.353 19.3418 83.7864 18.7441 83.0731 18.3806C82.3597 18.0171 81.5431 17.91 80.7602 18.0773C79.9772 18.2445 79.2756 18.6759 78.7731 19.2991C78.2705 19.9223 77.9976 20.6994 78 21.5C78.004 21.788 78.043 22.075 78.117 22.353L72.433 25.6C72.1034 25.0901 71.6468 24.6746 71.1081 24.3946C70.5693 24.1145 69.967 23.9794 69.3602 24.0025C68.7535 24.0257 68.1632 24.2063 67.6473 24.5266C67.1315 24.8469 66.7078 25.2959 66.418 25.8295C66.1282 26.3631 65.9822 26.9628 65.9944 27.5699C66.0065 28.177 66.1763 28.7705 66.4872 29.292C66.7981 29.8136 67.2394 30.2453 67.7676 30.5448C68.2958 30.8442 68.8928 31.0011 69.5 31Z" fill="black"/>
<g clip-path="url(#clip0_1513_9927)">
<path d="M126.902 16.0984H120.754C118.524 16.0984 116.754 16.6393 115.443 17.7213C114.164 18.8033 113.524 20.1311 113.524 21.7049C113.524 22.9508 113.975 24.041 114.877 24.9754C115.779 25.9098 116.983 26.377 118.492 26.377C118.59 26.377 118.738 26.3688 118.934 26.3525C119.131 26.3361 119.295 26.3279 119.426 26.3279C119.229 26.7869 119.131 27.1639 119.131 27.459C119.131 27.9836 119.426 28.6557 120.016 29.4754C117.426 29.6721 115.541 30.1311 114.361 30.8525C112.82 31.7377 112.049 32.9508 112.049 34.4918C112.049 35.6721 112.598 36.6721 113.697 37.4918C114.795 38.3115 116.377 38.7213 118.443 38.7213C120.869 38.7213 122.779 38.1639 124.172 37.0492C125.565 35.9344 126.262 34.6229 126.262 33.1148C126.262 32.459 126.123 31.8607 125.844 31.3197C125.565 30.7787 125.303 30.377 125.057 30.1148C124.811 29.8525 124.393 29.459 123.803 28.9344L122.721 28.0984C122.197 27.7377 121.934 27.3115 121.934 26.8197C121.934 26.4262 122.213 25.9508 122.77 25.3934C123.328 24.9672 123.746 24.6148 124.024 24.3361C124.303 24.0574 124.582 23.6311 124.861 23.0574C125.139 22.4836 125.279 21.8525 125.279 21.1639C125.279 19.6885 124.574 18.3443 123.164 17.1311H124.983L126.902 16.0984ZM124.295 34.2951C124.295 35.2459 123.91 36.0164 123.139 36.6066C122.369 37.1967 121.295 37.4918 119.918 37.4918C118.344 37.4918 117.074 37.1557 116.106 36.4836C115.139 35.8115 114.656 34.9344 114.656 33.8525C114.656 32.4754 115.508 31.459 117.213 30.8033C118.164 30.4754 119.213 30.3115 120.361 30.3115C120.656 30.3115 120.885 30.3279 121.049 30.3607C122.295 31.2131 123.147 31.9016 123.606 32.4262C124.065 32.9508 124.295 33.5738 124.295 34.2951ZM121.885 24.7049C121.393 25.2623 120.721 25.541 119.869 25.541C118.721 25.541 117.82 24.959 117.164 23.7951C116.508 22.6311 116.18 21.4426 116.18 20.2295C116.18 19.3115 116.393 18.5738 116.82 18.0164C117.344 17.3934 118.033 17.082 118.885 17.082C120 17.082 120.91 17.6803 121.615 18.877C122.32 20.0738 122.672 21.2951 122.672 22.541C122.672 23.459 122.41 24.1803 121.885 24.7049Z" fill="black"/>
</g>
<path d="M156.951 21.4C156.951 20.9226 157.14 20.4648 157.478 20.1272C157.816 19.7896 158.273 19.6 158.751 19.6H167.151C167.628 19.6 168.086 19.7896 168.424 20.1272C168.761 20.4648 168.951 20.9226 168.951 21.4V22H169.551C170.346 22 171.11 22.3161 171.672 22.8787C172.235 23.4413 172.551 24.2044 172.551 25V31C172.551 31.4774 172.361 31.9352 172.024 32.2728C171.686 32.6104 171.228 32.8 170.751 32.8H168.951V34.6C168.951 35.0774 168.761 35.5352 168.424 35.8728C168.086 36.2104 167.628 36.4 167.151 36.4H158.751C158.273 36.4 157.816 36.2104 157.478 35.8728C157.14 35.5352 156.951 35.0774 156.951 34.6V32.8H155.151C154.673 32.8 154.216 32.6104 153.878 32.2728C153.54 31.9352 153.351 31.4774 153.351 31V25C153.351 24.2044 153.667 23.4413 154.23 22.8787C154.792 22.3161 155.555 22 156.351 22H156.951V21.4ZM167.751 21.4C167.751 21.2409 167.688 21.0883 167.575 20.9757C167.463 20.8632 167.31 20.8 167.151 20.8H158.751C158.592 20.8 158.439 20.8632 158.327 20.9757C158.214 21.0883 158.151 21.2409 158.151 21.4V22H167.751V21.4ZM158.151 29.8V34.6C158.151 34.7591 158.214 34.9117 158.327 35.0243C158.439 35.1368 158.592 35.2 158.751 35.2H167.151C167.31 35.2 167.463 35.1368 167.575 35.0243C167.688 34.9117 167.751 34.7591 167.751 34.6V29.8C167.751 29.6409 167.688 29.4883 167.575 29.3757C167.463 29.2632 167.31 29.2 167.151 29.2H158.751C158.592 29.2 158.439 29.2632 158.327 29.3757C158.214 29.4883 158.151 29.6409 158.151 29.8Z" fill="black"/>
<path d="M218.985 22.2156L215.235 18.4656C215.092 18.3263 214.9 18.2489 214.701 18.25H207.201C206.803 18.25 206.422 18.408 206.14 18.6893C205.859 18.9706 205.701 19.3522 205.701 19.75V21.25H204.201C203.803 21.25 203.422 21.408 203.14 21.6893C202.859 21.9706 202.701 22.3522 202.701 22.75V36.25C202.701 36.6478 202.859 37.0294 203.14 37.3107C203.422 37.592 203.803 37.75 204.201 37.75H214.701C215.099 37.75 215.48 37.592 215.762 37.3107C216.043 37.0294 216.201 36.6478 216.201 36.25V34.75H217.701C218.099 34.75 218.48 34.592 218.762 34.3107C219.043 34.0294 219.201 33.6478 219.201 33.25V22.75C219.202 22.5505 219.125 22.3585 218.985 22.2156ZM211.701 34H207.201C207.002 34 206.811 33.921 206.671 33.7803C206.53 33.6397 206.451 33.4489 206.451 33.25C206.451 33.0511 206.53 32.8603 206.671 32.7197C206.811 32.579 207.002 32.5 207.201 32.5H211.701C211.9 32.5 212.091 32.579 212.231 32.7197C212.372 32.8603 212.451 33.0511 212.451 33.25C212.451 33.4489 212.372 33.6397 212.231 33.7803C212.091 33.921 211.9 34 211.701 34ZM211.701 31H207.201C207.002 31 206.811 30.921 206.671 30.7803C206.53 30.6397 206.451 30.4489 206.451 30.25C206.451 30.0511 206.53 29.8603 206.671 29.7197C206.811 29.579 207.002 29.5 207.201 29.5H211.701C211.9 29.5 212.091 29.579 212.231 29.7197C212.372 29.8603 212.451 30.0511 212.451 30.25C212.451 30.4489 212.372 30.6397 212.231 30.7803C212.091 30.921 211.9 31 211.701 31ZM217.701 33.25H216.201V25.75C216.202 25.5505 216.125 25.3585 215.985 25.2156L212.235 21.4656C212.092 21.3263 211.9 21.2489 211.701 21.25H207.201V19.75H214.392L217.701 23.0594V33.25Z" fill="black"/>
<path d="M250.551 22C250.551 21.3635 250.804 20.753 251.254 20.3029C251.704 19.8529 252.315 19.6 252.951 19.6H254.151V23.8C254.151 24.2774 254.341 24.7352 254.678 25.0728C255.016 25.4104 255.474 25.6 255.951 25.6H260.751C261.228 25.6 261.686 25.4104 262.024 25.0728C262.361 24.7352 262.551 24.2774 262.551 23.8V19.6H263.006C263.642 19.6001 264.253 19.8531 264.703 20.3032L266.648 22.2484C267.098 22.6984 267.351 23.3087 267.351 23.9452V34C267.351 34.6365 267.098 35.247 266.648 35.6971C266.198 36.1471 265.588 36.4 264.951 36.4V29.8C264.951 29.3226 264.761 28.8648 264.424 28.5272C264.086 28.1896 263.628 28 263.151 28H254.751C254.274 28 253.816 28.1896 253.478 28.5272C253.141 28.8648 252.951 29.3226 252.951 29.8V36.4C252.315 36.4 251.704 36.1471 251.254 35.6971C250.804 35.247 250.551 34.6365 250.551 34V22ZM261.351 19.6H255.351V23.8C255.351 23.9591 255.414 24.1117 255.527 24.2243C255.639 24.3368 255.792 24.4 255.951 24.4H260.751C260.91 24.4 261.063 24.3368 261.175 24.2243C261.288 24.1117 261.351 23.9591 261.351 23.8V19.6ZM263.751 29.8V36.4H254.151V29.8C254.151 29.6409 254.214 29.4883 254.327 29.3757C254.439 29.2632 254.592 29.2 254.751 29.2H263.151C263.31 29.2 263.463 29.2632 263.575 29.3757C263.688 29.4883 263.751 29.6409 263.751 29.8Z" fill="black"/>
<path d="M301.709 33.243L306.952 28M312.195 22.757L306.951 28M306.951 28L301.709 22.757M306.952 28L312.195 33.243" stroke="black" stroke-width="1.5" stroke-linecap="round" stroke-linejoin="round"/>
<defs>
<clipPath id="clip0_1513_9927">
<rect width="14.9508" height="24" fill="white" transform="translate(112 16)"/>
</clipPath>
</defs>
</svg>
