<svg width="188" height="36" viewBox="0 0 188 36" fill="none" xmlns="http://www.w3.org/2000/svg">
<path d="M10 24H26C26.55 24 27 23.55 27 23C27 22.45 26.55 22 26 22H10C9.45 22 9 22.45 9 23C9 23.55 9.45 24 10 24ZM10 19H26C26.55 19 27 18.55 27 18C27 17.45 26.55 17 26 17H10C9.45 17 9 17.45 9 18C9 18.55 9.45 19 10 19ZM9 13C9 13.55 9.45 14 10 14H26C26.55 14 27 13.55 27 13C27 12.45 26.55 12 26 12H10C9.45 12 9 12.45 9 13Z" fill="#75839D"/>
<path d="M105.598 12.9108C108.496 12.9108 110.853 15.1935 110.853 18C110.853 20.8065 108.496 23.0892 105.598 23.0892H101.994V12.9108H105.598ZM105.598 9.99725H100.639C99.7355 9.99725 98.9854 10.7219 98.9854 11.5986V24.4033C98.9854 25.2781 99.7336 26.0046 100.639 26.0046H105.598C110.168 26.0046 113.861 22.4284 113.861 18.0019C113.861 13.5753 110.168 9.99725 105.598 9.99725Z" fill="black"/>
<path d="M128.369 24.5498C128.369 25.3458 127.689 26.0047 126.867 26.0047C126.045 26.0047 125.365 25.3458 125.365 24.5498V20.1852C125.365 18.5708 124.027 17.2755 122.36 17.2755C120.693 17.2755 119.355 18.5708 119.355 20.1852V24.5498C119.355 25.3458 118.675 26.0047 117.853 26.0047C117.031 26.0047 116.351 25.3458 116.351 24.5498V11.4541C116.351 10.6581 117.031 9.99921 117.853 9.99921C118.675 9.99921 119.355 10.6581 119.355 11.4541V15.1598C120.224 14.6604 121.257 14.3638 122.36 14.3638C125.669 14.3638 128.369 16.9788 128.369 20.1833V24.5498Z" fill="black"/>
<path d="M134.285 24.5498C134.285 25.3458 133.605 26.0047 132.783 26.0047C131.961 26.0047 131.28 25.3458 131.28 24.5498V15.8206C131.28 15.0246 131.961 14.3657 132.783 14.3657C133.605 14.3657 134.285 15.0246 134.285 15.8206V24.5498Z" fill="black"/>
<path d="M154.099 24.5499C154.099 25.3458 153.418 26.0048 152.596 26.0048C152.197 26.0048 151.821 25.8452 151.54 25.573L145.835 20.0482L140.132 25.573C139.851 25.8452 139.475 26.0048 139.075 26.0048C138.254 26.0048 137.573 25.3458 137.573 24.5499V11.4541C137.573 10.6582 138.254 9.99927 139.075 9.99927C139.897 9.99927 140.578 10.6582 140.578 11.4541V21.0488L144.78 16.9789C145.061 16.6842 145.461 16.5471 145.837 16.5471C146.213 16.5471 146.612 16.6842 146.893 16.9789L151.096 21.0488V11.4541C151.096 10.6582 151.776 9.99927 152.598 9.99927C153.42 9.99927 154.101 10.6582 154.101 11.4541V24.5499H154.099Z" fill="black"/>
<path d="M160.392 24.5498C160.392 25.3458 159.711 26.0047 158.889 26.0047C158.067 26.0047 157.387 25.3458 157.387 24.5498V15.8206C157.387 15.0246 158.067 14.3657 158.889 14.3657C159.711 14.3657 160.392 15.0246 160.392 15.8206V24.5498Z" fill="black"/>
<path d="M170.064 23.0949C170.487 23.0949 170.814 22.7777 170.814 22.3666C170.814 21.9554 170.487 21.6382 170.064 21.6382H167.06C164.993 21.6382 163.303 20.0012 163.303 18.0001C163.303 15.9989 164.993 14.3619 167.06 14.3619H171.566C172.388 14.3619 173.069 15.0209 173.069 15.8168C173.069 16.6128 172.388 17.2717 171.566 17.2717H167.06C166.637 17.2717 166.307 17.5889 166.307 18.0001C166.307 18.4112 166.635 18.7284 167.06 18.7284H170.064C172.131 18.7284 173.819 20.3654 173.819 22.3666C173.819 24.3677 172.129 26.0047 170.064 26.0047H164.805C163.983 26.0047 163.303 25.3458 163.303 24.5498C163.303 23.7539 163.983 23.0949 164.805 23.0949H170.064Z" fill="black"/>
<path d="M181.989 26.0047C178.678 26.0047 175.979 23.3897 175.979 20.1852C175.979 16.9807 178.678 14.3657 181.989 14.3657C185.298 14.3657 187.998 16.9807 187.998 20.1852C187.998 20.9812 187.318 21.6401 186.496 21.6401H179.382C179.899 22.5262 180.861 23.095 181.987 23.095H183.489C184.311 23.095 184.992 23.7539 184.992 24.5498C184.992 25.3458 184.311 26.0047 183.489 26.0047H181.989ZM179.382 18.7285H184.592C184.077 17.8649 183.09 17.2736 181.987 17.2736C180.861 17.2736 179.899 17.8649 179.382 18.7285Z" fill="black"/>
<path d="M132.784 13.2732C133.718 13.2732 134.475 12.5403 134.475 11.6362C134.475 10.7322 133.718 9.99927 132.784 9.99927C131.851 9.99927 131.094 10.7322 131.094 11.6362C131.094 12.5403 131.851 13.2732 132.784 13.2732Z" fill="url(#paint0_linear_1811_6457)"/>
<path d="M158.889 13.2732C159.822 13.2732 160.579 12.5403 160.579 11.6362C160.579 10.7322 159.822 9.99927 158.889 9.99927C157.955 9.99927 157.198 10.7322 157.198 11.6362C157.198 12.5403 157.955 13.2732 158.889 13.2732Z" fill="url(#paint1_linear_1811_6457)"/>
<path d="M86.7219 5H69.7233C68.7715 5 68 5.74715 68 6.66888V24.8557C68 25.5316 68.4207 26.1398 69.0642 26.397C69.7059 26.6542 70.4483 26.5115 70.9426 26.0347L79.2413 17.9981C79.9139 17.3467 79.9139 16.2898 79.2413 15.6384C78.5686 14.987 77.4772 14.987 76.8046 15.6384L71.4466 20.8271V8.33776H86.7238C89.3039 8.33776 91.4014 10.3708 91.4014 12.8676V23.1305C91.4014 25.6292 89.302 27.6604 86.7238 27.6604H78.5046L83.8626 22.4716C84.5353 21.8202 84.5353 20.7633 83.8626 20.1119C83.19 19.4605 82.0986 19.4605 81.4259 20.1119L73.1254 28.1503C72.633 28.6271 72.4857 29.3461 72.7512 29.9694C73.0187 30.5926 73.6468 31 74.3427 31H86.7199C91.1998 31 94.8441 27.4708 94.8441 23.1324V12.8695C94.848 8.53112 91.2036 5 86.7219 5Z" fill="url(#paint2_linear_1811_6457)"/>
<path d="M86.6493 19.0832C87.6011 19.0832 88.3727 18.3361 88.3727 17.4143V12.939C88.3727 12.0172 87.6011 11.2701 86.6493 11.2701H82.028C81.0762 11.2701 80.3047 12.0172 80.3047 12.939C80.3047 13.8607 81.0762 14.6078 82.028 14.6078H84.926V17.4143C84.926 18.3361 85.6975 19.0832 86.6493 19.0832Z" fill="url(#paint3_linear_1811_6457)"/>
<defs>
<linearGradient id="paint0_linear_1811_6457" x1="131.094" y1="11.6356" x2="134.474" y2="11.6356" gradientUnits="userSpaceOnUse">
<stop stop-color="#0068FF"/>
<stop offset="1" stop-color="#0000E1"/>
</linearGradient>
<linearGradient id="paint1_linear_1811_6457" x1="157.199" y1="11.6356" x2="160.579" y2="11.6356" gradientUnits="userSpaceOnUse">
<stop stop-color="#FF9852"/>
<stop offset="0.2774" stop-color="#FF8A3A"/>
<stop offset="1" stop-color="#FF6700"/>
</linearGradient>
<linearGradient id="paint2_linear_1811_6457" x1="84.8148" y1="12.8987" x2="70.8467" y2="27.3224" gradientUnits="userSpaceOnUse">
<stop stop-color="#0068FF"/>
<stop offset="1" stop-color="#0000E1"/>
</linearGradient>
<linearGradient id="paint3_linear_1811_6457" x1="88.2189" y1="11.4197" x2="83.1229" y2="16.6819" gradientUnits="userSpaceOnUse">
<stop stop-color="#FF9852"/>
<stop offset="0.2774" stop-color="#FF8A3A"/>
<stop offset="1" stop-color="#FF6700"/>
</linearGradient>
</defs>
</svg>
