<svg width="383" height="317" viewBox="0 0 383 317" fill="none" xmlns="http://www.w3.org/2000/svg">
<path d="M218.792 150.865L216.186 147.108H211.619C211.506 147.106 211.395 147.074 211.299 147.014C211.202 146.955 211.124 146.871 211.071 146.77C211.019 146.67 210.995 146.557 211.002 146.445C211.008 146.332 211.046 146.223 211.109 146.129L213.883 142.499L212.432 138.144C212.394 138.032 212.388 137.912 212.415 137.798C212.442 137.683 212.501 137.578 212.585 137.496C212.669 137.413 212.774 137.355 212.89 137.33C213.005 137.304 213.125 137.312 213.236 137.351L217.558 138.868L221.252 136.177C221.347 136.113 221.457 136.076 221.571 136.069C221.684 136.063 221.798 136.088 221.899 136.141C222 136.195 222.084 136.274 222.143 136.372C222.201 136.47 222.232 136.582 222.232 136.696L222.124 141.256L225.848 144.015C225.943 144.084 226.016 144.177 226.06 144.285C226.104 144.393 226.118 144.511 226.098 144.626C226.079 144.741 226.028 144.848 225.951 144.935C225.874 145.023 225.774 145.087 225.662 145.121L221.282 146.432L219.87 150.777C219.825 150.878 219.754 150.965 219.664 151.028C219.573 151.092 219.468 151.13 219.358 151.139C219.247 151.148 219.137 151.128 219.038 151.08C218.938 151.031 218.853 150.957 218.792 150.865Z" fill="#F37458"/>
<path d="M339.44 68.1212L341.851 62.553L338.617 57.4057C338.534 57.2741 338.489 57.1219 338.488 56.9663C338.487 56.8107 338.53 56.658 338.612 56.5255C338.693 56.393 338.811 56.2861 338.95 56.2168C339.09 56.1474 339.246 56.1186 339.401 56.1335L345.457 56.7011L349.377 52.0332C349.478 51.9152 349.61 51.8275 349.758 51.7797C349.906 51.7319 350.064 51.7259 350.215 51.7624C350.367 51.7988 350.505 51.8763 350.615 51.9863C350.724 52.0963 350.801 52.2344 350.837 52.3855L352.17 58.3157L357.805 60.5763C357.949 60.6355 358.074 60.7334 358.166 60.8592C358.258 60.985 358.313 61.1337 358.325 61.2888C358.337 61.4439 358.306 61.5994 358.235 61.7379C358.164 61.8765 358.056 61.9926 357.923 62.0735L352.69 65.1659L352.278 71.2233C352.267 71.3782 352.214 71.527 352.123 71.653C352.032 71.779 351.908 71.877 351.764 71.9361C351.62 71.9951 351.463 72.0128 351.309 71.9872C351.156 71.9615 351.013 71.8935 350.896 71.7909L346.329 67.7787L340.45 69.2661C340.296 69.3112 340.132 69.3115 339.978 69.267C339.824 69.2225 339.686 69.1349 339.58 69.0147C339.474 68.8945 339.404 68.7465 339.379 68.5882C339.355 68.43 339.376 68.2679 339.44 68.1212Z" fill="#F8CC7F"/>
<path d="M24.5396 221.327L21.4428 215.455L14.818 214.653C14.6474 214.632 14.4859 214.564 14.3518 214.457C14.2178 214.35 14.1165 214.207 14.0594 214.045C14.0023 213.883 13.9917 213.708 14.0288 213.541C14.0658 213.373 14.1491 213.219 14.2692 213.097L18.9438 208.331L17.6698 201.755C17.6392 201.589 17.6557 201.417 17.7173 201.26C17.7789 201.102 17.8832 200.965 18.0185 200.863C18.1538 200.762 18.3149 200.7 18.4835 200.684C18.6521 200.669 18.8217 200.701 18.9732 200.776L24.9512 203.712L30.8311 200.473C30.9801 200.388 31.15 200.347 31.3213 200.354C31.4926 200.361 31.6584 200.417 31.7997 200.514C31.9409 200.611 32.0519 200.746 32.1198 200.903C32.1877 201.06 32.2098 201.233 32.1835 201.403L31.2035 208.008L36.1035 212.549C36.228 212.666 36.3172 212.816 36.3611 212.981C36.405 213.147 36.4018 213.321 36.3519 213.485C36.302 213.649 36.2074 213.795 36.0787 213.908C35.95 214.021 35.7923 214.096 35.6233 214.124L29.0378 215.23L26.186 221.327C26.112 221.482 25.9954 221.613 25.8497 221.705C25.704 221.797 25.5351 221.846 25.3628 221.846C25.1904 221.846 25.0216 221.797 24.8759 221.705C24.7302 221.613 24.6135 221.482 24.5396 221.327Z" fill="#A0BFE4"/>
<path d="M378.051 79.3486L378.12 82.578L372.935 83.2728L372.465 88.0091L368.663 89.1639L369.251 91.0917L374.327 89.5455L374.778 85.0538L380.178 84.3297L380.06 79.4661L378.051 79.3486Z" fill="#476EB5"/>
<path d="M90.6292 46.2787C90.7777 45.2494 91.3253 44.3197 92.1539 43.6899C92.9825 43.0602 94.0258 42.7809 95.0587 42.9122C95.8252 43.0192 96.5428 43.3505 97.121 43.8641C97.6993 44.3778 98.1123 45.0509 98.3081 45.7986C98.5039 46.5463 98.4737 47.3351 98.2213 48.0657C97.9689 48.7963 97.5056 49.4359 96.8897 49.904C96.2739 50.372 95.533 50.6475 94.7606 50.6958C93.9882 50.7441 93.2188 50.563 92.5493 50.1753C91.8798 49.7876 91.3402 49.2107 90.9985 48.5173C90.6568 47.8238 90.5283 47.0449 90.6292 46.2787ZM92.7166 40.4754L93.7553 23.4569C93.7772 23.1234 93.8664 22.7977 94.0177 22.4995C94.169 22.2013 94.3791 21.9368 94.6355 21.7219C94.8919 21.507 95.1893 21.3462 95.5096 21.2491C95.8299 21.1521 96.1666 21.1208 96.4993 21.1572L98.1947 21.3431C98.5271 21.3812 98.8483 21.4861 99.139 21.6515C99.4298 21.8169 99.6839 22.0393 99.8863 22.3054C100.089 22.5715 100.235 22.8757 100.316 23.1997C100.398 23.5238 100.413 23.8609 100.361 24.1909L97.6361 41.0234L92.7166 40.4754Z" fill="#F58D80"/>
<path d="M79.8198 131.93C79.9374 136.158 81.0252 145.21 90.5997 146.708C96.5483 147.637 104.173 142.304 103.683 138.38C103.193 134.455 102.105 124.473 95.8427 122.193C90.7075 120.285 79.565 122.487 79.8198 131.93Z" fill="#194655"/>
<path d="M159.797 268.371C161.159 274.056 162.218 282.257 162.619 282.717C162.806 282.932 163.198 284.361 163.394 284.596C169.587 286.846 175.026 284.527 179.338 281.973C175.957 281.376 171.4 280.75 170.773 280.309C168.421 278.646 168.98 272.745 168.558 267.451C166.853 267.744 162.815 266.687 159.797 268.371Z" fill="#F8A491"/>
<path d="M162.493 282.394C162.493 284.635 163.972 289.43 164.453 289.42C164.933 289.411 183.592 287.806 185.346 284.958C186.395 283.246 183.533 282.795 179.368 282.022C175.027 284.528 163.002 283.794 162.493 282.394Z" fill="#476EB5"/>
<path d="M71.461 281.024C68.5295 283.327 65.4524 285.439 62.2491 287.346C61.9943 287.464 60.5047 287.464 60.2303 287.581C56.3985 292.934 57.1825 298.796 58.4859 303.621C59.9755 300.528 61.7199 296.213 62.4059 295.792C66.2271 293.588 70.207 291.671 74.3128 290.057C71.9412 287.571 72.2744 284.41 71.461 281.024Z" fill="#F8A491"/>
<path d="M81.2606 162.297L67.962 186.45L54.4969 203.351C55.4769 204.966 56.4569 206.619 57.2899 208.313C61.8371 204.447 71.5292 196.236 74.9886 191.676C80.0944 184.972 89.3456 169.069 89.3456 169.069L81.2606 162.297Z" fill="#F8A491"/>
<path d="M116.608 204.33L102.389 225.243C102.389 225.243 101.575 223.834 106.661 225.703C111.748 227.573 144.597 233.689 146.547 235.999C147.919 237.643 158.111 269.81 160.071 273.94C163.011 275.144 167.323 273.813 170.351 273.373C170.547 257.881 162.325 229.657 160.14 226.398C155.24 219 131.896 211.014 121.391 206.532C119.695 205.808 118.372 205.152 117.549 204.761C116.942 204.467 116.608 204.33 116.608 204.33Z" fill="#4D90FF"/>
<path d="M61.9945 287.424C59.8189 286.866 55.3795 286.876 55.2717 287.307C55.1639 287.737 51.7045 306.155 53.9781 308.602C55.3501 310.079 56.5457 307.447 58.4567 303.65C57.1827 298.825 60.5343 287.551 61.9945 287.424Z" fill="#476EB5"/>
<path d="M112.876 219.078C113.004 217.502 116.375 208.313 117.561 204.751C117.561 204.633 116.718 202.568 115.767 199.593L114.405 199.809L94.1876 200.729C94.1876 200.729 86.0438 214.429 86.9944 220.771C88.3174 229.579 101.067 260.895 99.1268 262.363C95.6282 265.025 78.4783 274.948 69.6681 280.849C70.2365 284.255 71.8143 289.011 73.9703 291.732C81.1439 289.236 112.131 276.768 115.316 267.197C118.129 258.742 112.67 221.75 112.876 219.078Z" fill="#4D90FF"/>
<path d="M112.552 141.892C112.552 141.892 106.985 150.63 103.732 150.943L115.345 161.708C115.345 161.708 123.253 149.867 124.076 147.832C124.047 147.792 116.873 141.392 112.552 141.892Z" fill="#F8CC7F"/>
<path d="M116.619 194.681C116.39 198.069 116.721 201.471 117.599 204.751C112.934 205.73 96.3819 207.863 92.3345 202.941C92.1875 202.764 98.0675 192.411 97.2345 188.183C96.0389 181.949 90.8547 171.38 90.3745 170.812C89.6591 169.833 87.0033 174.785 87.0033 174.785C83.8968 174.785 76.7918 167.592 76.7918 167.592C76.7918 167.592 84.1418 154.792 86.1703 153.588C88.1989 152.384 104.918 150.574 104.927 150.574C106.152 150.476 109.514 153.392 110.445 154.312C121.058 164.842 118.216 179.933 116.619 194.681Z" fill="#F9E0B2"/>
<path d="M95.5493 145.198C95.5493 145.198 97.372 151.207 97.3818 153.653C97.3916 156.099 98.3618 159.427 103.507 158.928C108.652 158.429 104.428 153.262 103.703 150.942C102.992 147.754 102.456 144.53 102.096 141.284L95.5493 145.198Z" fill="#F8A491"/>
<path d="M102.586 144.994C102.301 142.988 102.096 141.315 102.096 141.315L95.5493 145.229C95.5493 145.229 95.9216 146.462 96.3332 148.028C97.5613 148.226 98.8207 148.041 99.9396 147.498C101.059 146.955 101.983 146.081 102.586 144.994Z" fill="#F37458"/>
<path d="M90.2063 127.047C88.4614 128.394 87.2583 130.321 86.8155 132.478C86.1197 136.021 88.2365 144.779 95.8511 146.178C103.466 147.578 105.955 140.199 103.867 134.856C101.78 129.513 97.7326 122.878 90.2063 127.047Z" fill="#F8A491"/>
<path d="M104.575 132.614C104.575 134.102 103.879 135.315 103.007 135.315C102.134 135.315 101.429 134.121 101.419 132.624C101.409 131.127 102.115 129.923 102.987 129.923C103.859 129.923 104.565 131.117 104.575 132.614Z" fill="#F8A491"/>
<path d="M90.1301 140.042C91.1101 141.235 91.2865 142.762 90.4731 143.437C89.6597 144.113 88.1897 143.692 87.1901 142.459C86.1905 141.226 86.0239 139.738 86.8373 139.063C87.6507 138.388 89.1207 138.838 90.1301 140.042Z" fill="#F8A491"/>
<path d="M82.3975 123.699C82.6915 119.619 85.5923 104.401 76.2725 102.962C66.9528 101.524 64.934 111.721 59.8086 98.0202C55.0164 85.3469 40.7967 90.2596 40.2087 99.8796C38.8277 99.7559 37.4375 99.9744 36.1613 100.516C33.943 101.532 32.2188 103.386 31.3665 105.669C30.5141 107.953 30.6032 110.481 31.6141 112.7C31.9277 113.473 31.7513 114.226 32.2217 114.862C31.1339 119.051 31.8885 123.846 35.1617 128.71C43.9816 142.01 52.8898 128.015 58.8776 128.71C64.8654 129.405 60.965 134.122 66.1492 137.772C71.3333 141.422 75.5081 140.463 83.9459 130.521L86.0235 127.771C85.503 127.788 84.9851 127.691 84.5065 127.486C84.0279 127.281 83.6004 126.973 83.2543 126.584C82.9082 126.196 82.652 125.736 82.5039 125.237C82.3559 124.739 82.3195 124.214 82.3975 123.699Z" fill="#194655"/>
<path d="M344.282 239.539C347.497 238.202 350.617 236.649 353.621 234.89C354.003 234.685 355.581 233.52 355.816 233.354C359.932 235.801 361.432 237.885 364.636 241.183C362.235 241.31 361.226 239.343 360.305 239.549C359.197 239.793 355.699 242.132 350.24 246.399C349.329 243.277 346.575 241.741 344.282 239.539Z" fill="#F8A492"/>
<path d="M278.181 287.328C278.942 290.687 280.028 293.965 281.425 297.114C281.533 297.358 282.258 297.544 282.405 297.799C279.308 301.439 277.966 307.507 274.203 310.159C274.477 307.771 276.074 303.309 276.025 302.33C275.967 301.195 274.242 297.368 270.978 291.281C274.124 290.88 275.633 289.226 278.181 287.328Z" fill="#F8A492"/>
<path d="M280.141 298.111C280.241 297.843 280.394 297.599 280.593 297.394C280.791 297.188 281.029 297.026 281.293 296.916C281.557 296.807 281.841 296.753 282.127 296.758C282.412 296.764 282.694 296.828 282.954 296.946C283.934 297.573 285.286 298.267 286.276 298.952C286.612 299.133 286.896 299.398 287.1 299.72C287.305 300.042 287.422 300.411 287.442 300.792C287.364 301.36 274.163 316.773 272.478 316.998C270.792 317.223 273.909 304.188 275.771 302.847C277.417 301.653 278.24 302.886 280.141 298.111Z" fill="#4D90FF"/>
<path d="M355.424 234.9C355.183 234.755 354.974 234.562 354.81 234.333C354.646 234.105 354.53 233.845 354.47 233.571C354.409 233.296 354.405 233.012 354.458 232.736C354.511 232.46 354.619 232.197 354.777 231.964C355.58 231.093 356.492 229.909 357.354 229.029C357.59 228.729 357.901 228.496 358.255 228.354C358.609 228.211 358.995 228.164 359.373 228.216C359.912 228.392 372.74 244.118 372.652 245.831C372.564 247.543 360.294 242.132 359.304 240.067C358.422 238.208 359.785 237.621 355.424 234.9Z" fill="#4D90FF"/>
<path d="M283.237 229.881C283.237 229.881 309.266 264.906 313.794 265.229C318.027 265.532 350.857 247.252 350.857 247.252L346.584 237.818L320.301 247.252L301.994 212.657L283.237 229.881Z" fill="#B85742"/>
<path d="M298.222 200.277C298.222 200.277 302.985 201.412 305.71 208.664C308.434 215.916 303.877 221.944 292.46 232.445C281.347 242.681 270.381 252.291 270.381 252.291L279.387 289.333L271.9 295.703C271.9 295.703 254.544 258.026 254.074 249.062C253.887 245.646 280.534 205.943 280.534 205.943L298.222 200.277Z" fill="#F37458"/>
<path d="M278.083 154.926L263.57 163.029L252.113 168.549C252.113 168.549 249.301 159.017 250.242 154.339C250.48 153.68 250.832 153.067 251.28 152.529C253.172 149.691 249.125 145.277 249.125 145.277C249.125 145.277 246.684 144.582 245.018 148.604C243.352 152.627 246.43 154.339 246.43 154.339C246.43 154.339 242.931 166.513 244.391 175.39C245.165 180.038 256.808 176.632 266.078 172.62C270.745 170.61 275.25 168.244 279.553 165.545L278.083 154.926Z" fill="#F8A491"/>
<path d="M281.347 153.539C281.12 153.356 280.844 153.243 280.553 153.215C280.262 153.187 279.969 153.246 279.711 153.383C277.918 154.058 260.493 163.609 260.493 163.609C260.493 163.609 262.061 171.966 266.138 174.54L274.958 171.859L281.671 154.919C281.761 154.683 281.779 154.426 281.721 154.18C281.664 153.934 281.533 153.711 281.347 153.539Z" fill="#4D90FF"/>
<path d="M321.447 117.799C314.842 113.757 306.59 114.54 301.68 119.971C297.657 118.447 293.194 118.574 289.264 120.324C281.875 123.768 275.328 132.772 280.904 139.309C279.719 147.99 284.913 153.01 291.39 153.607C294.918 160.663 307.394 161.387 314.577 155.564C320.516 157.854 327.562 156.876 331.943 152.628C332.868 151.634 333.85 150.693 334.883 149.81C334.461 150.015 351.415 147.774 350.641 132.85C349.857 117.593 331.609 111.721 321.447 117.799Z" fill="#F58761"/>
<path d="M291.399 152.384L302.179 152.972L300.386 167.994C300.386 167.994 295.192 182.448 297.309 189.396C299.426 196.345 301.474 201.404 301.474 201.404C301.474 201.404 295.349 208.431 278.179 206.992C278.179 206.992 278.405 194.534 278.179 190.757C277.954 186.979 273.564 171.262 274.171 167.72C274.779 164.177 278.571 154.342 279.551 153.52C280.531 152.698 284.451 152.267 284.451 152.267L291.399 152.384Z" fill="#4D90FF"/>
<path d="M291.91 144.131C291.91 144.131 291.724 145.345 291.547 146.901C291.28 148.81 291.201 150.74 291.312 152.665C291.645 155.053 289.352 161.364 284.295 161.589C279.239 161.815 284.188 154.622 284.57 152.254C284.952 149.886 284.952 141.225 284.952 141.225L291.91 144.131Z" fill="#F8A491"/>
<path d="M284.991 144.895C284.991 142.889 284.991 141.225 284.991 141.225L291.949 144.161C291.949 144.161 291.763 145.413 291.577 147.009C290.395 147.383 289.126 147.38 287.946 147.002C286.766 146.623 285.733 145.886 284.991 144.895Z" fill="#F37458"/>
<path d="M292.44 126.292C294.37 127.091 295.954 128.547 296.909 130.402C298.438 133.475 298.712 142.008 292.097 145.189C285.482 148.369 281.317 142.253 281.915 136.851C282.513 131.449 284.502 124.384 292.44 126.292Z" fill="#F8A491"/>
<path d="M280.71 135.001C281.082 136.362 282.023 137.291 282.817 137.086C283.611 136.88 283.964 135.589 283.591 134.219C283.219 132.849 282.278 131.919 281.484 132.134C280.69 132.349 280.338 133.631 280.71 135.001Z" fill="#F8A491"/>
<path d="M296.105 137.918C295.498 139.269 295.743 140.698 296.654 141.118C297.566 141.539 298.8 140.766 299.418 139.425C300.035 138.085 299.79 136.636 298.879 136.225C297.967 135.814 296.723 136.568 296.105 137.918Z" fill="#F8A491"/>
<path d="M152.623 203.596C151.643 200.66 110.405 80.7968 108.612 75.5611C107.256 71.6926 104.427 68.5134 100.74 66.7127C97.0532 64.912 92.804 64.6348 88.9137 65.9412L27.4581 86.375C25.5364 87.0007 23.7584 88.0013 22.2272 89.3189C20.696 90.6365 19.4423 92.2447 18.5387 94.0503C17.6352 95.8558 17.0998 97.8225 16.9638 99.8364C16.8278 101.85 17.0938 103.871 17.7463 105.781L61.758 233.816C63.1141 237.682 65.9405 240.859 69.6254 242.66C73.3102 244.46 77.5569 244.739 81.4461 243.436L142.902 222.992C144.823 222.367 146.601 221.368 148.133 220.051C149.664 218.735 150.918 217.128 151.823 215.323C152.727 213.519 153.264 211.553 153.401 209.54C153.538 207.526 153.274 205.506 152.623 203.596ZM137.698 206.825L75.6151 227.474C73.3702 228.225 70.9196 228.064 68.7927 227.026C66.6657 225.987 65.033 224.155 64.2471 221.925L23.5479 103.511C23.1754 102.409 23.0251 101.245 23.1056 100.084C23.1861 98.9244 23.4958 97.7917 24.017 96.7517C24.5381 95.7118 25.2603 94.7852 26.1419 94.0255C27.0235 93.2657 28.0471 92.6878 29.1535 92.3251L91.2362 71.676C93.4797 70.9229 95.9301 71.083 98.0562 72.1217C100.182 73.1603 101.813 74.9938 102.594 77.2248C112.483 105.977 142.412 193.056 143.303 195.639C143.676 196.741 143.826 197.906 143.746 199.066C143.665 200.226 143.355 201.359 142.834 202.398C142.313 203.438 141.591 204.365 140.709 205.125C139.828 205.884 138.804 206.462 137.698 206.825Z" fill="#34548A"/>
<path d="M121.774 220.71C122.754 223.46 118.373 227.394 112.062 229.518C105.751 231.641 99.8707 231.083 98.9201 228.324C97.9695 225.564 102.321 221.63 108.632 219.516C114.943 217.403 120.794 217.951 121.774 220.71Z" fill="#194655"/>
<path d="M120.098 220.925C120.99 223.519 117.393 227.051 112.062 228.822C106.731 230.594 101.684 229.938 100.802 227.345C99.9201 224.752 103.507 221.229 108.838 219.448C114.169 217.667 119.206 218.391 120.098 220.925Z" fill="#34548A"/>
<path d="M346.359 83.7335L277.299 68.1439C268.175 66.0887 259.179 71.481 257.199 80.1908L225.653 219.372C223.693 228.082 229.475 236.821 238.609 238.886L307.659 254.475C316.793 256.531 325.789 251.138 327.759 242.419L359.275 103.228C361.284 94.5278 355.483 85.7984 346.359 83.7335ZM323.653 230.137C323.035 232.592 321.467 234.701 319.294 236.004C317.121 237.306 314.519 237.695 312.059 237.085L242.244 221.329C239.76 220.824 237.578 219.356 236.178 217.245C234.778 215.135 234.274 212.556 234.777 210.075L263.922 81.3848C264.225 80.168 264.766 79.0229 265.514 78.015C266.261 77.0071 267.199 76.1561 268.276 75.5108C269.353 74.8655 270.546 74.4385 271.789 74.2541C273.031 74.0698 274.297 74.1317 275.515 74.4365L345.281 90.1925C347.765 90.6972 349.947 92.1661 351.347 94.2763C352.747 96.3866 353.252 98.9656 352.749 101.447L323.653 230.137Z" fill="#8CB0DD"/>
<path d="M289.246 240.771C288.57 243.766 282.278 244.901 275.183 243.296C268.088 241.691 262.894 237.963 263.57 235.027C264.246 232.091 270.548 230.898 277.643 232.493C284.738 234.088 289.932 237.777 289.246 240.771Z" fill="#476EB5"/>
<path d="M287.55 240.037C286.913 242.856 281.543 244.04 275.555 242.689C269.567 241.339 265.226 237.963 265.834 235.144C266.441 232.326 271.841 231.142 277.829 232.502C283.816 233.862 288.187 237.229 287.55 240.037Z" fill="#8CB0DD"/>
<path d="M301.729 156.865C301.729 156.865 324.426 151.365 329.483 150.436C334.539 149.506 352.101 143.194 352.777 142.92C353.453 142.646 355.992 133.632 356.972 134.229C357.952 134.826 355.453 138.77 356.687 139.279C357.922 139.788 368.506 135.061 368.575 135.913C368.712 137.518 362.215 139.054 362.42 139.827C362.626 140.6 369.055 137.596 369.839 138.702C370.623 139.808 363.498 140.943 363.361 141.559C363.224 142.176 370.221 141.373 369.839 142.695C369.633 143.419 363.616 143.272 363.861 144.104C364.106 144.936 368.702 145.758 368.388 146.56C368.075 147.363 364.635 145.366 362.273 145.963C359.912 146.56 357.883 145.787 354.433 147.832C350.984 149.878 339.498 158.509 331.354 160.29C323.211 162.072 305.247 166.055 305.247 166.055L301.729 156.865Z" fill="#F8A491"/>
<path d="M296.213 153.382C296.987 153.02 299.339 152.951 302.142 152.98C303.181 152.98 304.631 152.98 305.729 152.98C309.835 152.863 313.726 153.059 313.726 153.059C313.726 153.059 315.784 163.001 314.069 165.545C314.069 165.545 298.036 167.826 298.389 168.941L296.213 153.382Z" fill="#4D90FF"/>
<path d="M240.628 153.438L242.01 151.696C242.502 150.942 243.274 150.414 244.156 150.229C245.449 150.101 245.41 148.487 244.038 148.712C243.282 148.834 242.538 149.021 241.814 149.269C242.768 148.804 243.691 148.278 244.577 147.694C244.852 146.715 243.352 146.285 241.343 147.772C239.334 149.26 240.628 153.438 240.628 153.438Z" fill="#F8A491"/>
<path d="M55.3202 205.808C54.7043 206.134 54.1146 206.507 53.5562 206.923C53.5525 206.894 53.5525 206.864 53.5562 206.835L54.8498 205.465C56.1532 204.487 55.4672 203.41 54.2422 204.066C53.5545 204.427 52.8988 204.846 52.2822 205.318C53.0691 204.598 53.7786 203.798 54.399 202.931C54.399 201.874 52.7722 201.952 51.3512 204.046C50.1066 205.857 51.9392 209.008 52.4782 209.751C52.8039 210.414 53.3188 210.966 53.958 211.337L54.2912 209.282C54.4017 208.851 54.5961 208.445 54.8635 208.089C55.1309 207.733 55.4659 207.434 55.8494 207.207C57.094 206.649 56.5354 205.142 55.3202 205.808Z" fill="#F8A491"/>
<path d="M245.636 147.117C245.636 147.117 248.86 144.533 249.37 145.629C249.879 146.725 249.664 149.113 249.184 148.947C248.703 148.78 248.762 147.077 247.38 147.518C246.998 147.645 245.077 148.252 245.636 147.117Z" fill="#F8A491"/>
<path d="M302.093 58.8743L186.277 34.2127C184.729 33.8837 183.261 33.2533 181.957 32.3576C180.653 31.4618 179.539 30.3182 178.678 28.9922C177.817 27.6662 177.226 26.1837 176.939 24.6295C176.653 23.0753 176.675 21.4799 177.006 19.9345L179.221 9.52183C179.888 6.40134 181.77 3.6733 184.451 1.9373C187.132 0.201311 190.394 -0.400564 193.519 0.26397L309.335 24.9255C312.462 25.5901 315.196 27.4677 316.936 30.1454C318.677 32.823 319.281 36.0814 318.615 39.2037L316.391 49.6164C315.723 52.7369 313.842 55.4649 311.161 57.2009C308.48 58.9369 305.218 59.5388 302.093 58.8743Z" fill="#0061FF"/>
<path d="M281.473 50.2817L292.136 64.8333L295.556 54.0688L281.473 50.2817Z" fill="#0061FF"/>
<path d="M214.471 17.5944C213.912 20.2073 211.08 21.8122 208.14 21.1859C205.2 20.5596 203.24 17.937 203.818 15.3143C204.396 12.6917 207.209 11.0966 210.159 11.7229C213.108 12.3492 215.029 14.9816 214.471 17.5944Z" fill="white"/>
<path d="M209.974 21.2753L206.407 20.5218C205.636 20.3566 204.84 20.3448 204.064 20.4871C203.289 20.6294 202.549 20.923 201.887 21.3511C201.226 21.7792 200.655 22.3334 200.208 22.982C199.761 23.6306 199.446 24.3608 199.282 25.1309L198.361 29.4563L213.668 32.7248L214.59 28.3994C214.755 27.629 214.767 26.8335 214.625 26.0585C214.482 25.2835 214.188 24.5441 213.76 23.8825C213.331 23.2209 212.776 22.6502 212.127 22.2028C211.477 21.7555 210.745 21.4403 209.974 21.2753Z" fill="white"/>
<path d="M260.324 30.6779C259.246 35.7372 251.054 38.2815 242.018 36.3635C232.982 34.4455 226.544 28.7795 227.632 23.7202C228.719 18.6609 236.902 16.1165 245.928 18.0443C254.954 19.9722 261.402 25.599 260.324 30.6779Z" fill="white"/>
<path d="M245.41 34.6145L240.187 39.527L252.564 36.601L252.103 28.6255L245.41 34.6145Z" fill="white"/>
<path d="M283.395 33.8917L285.266 32.9131C285.546 32.7746 285.768 32.5441 285.897 32.2606C286.025 31.9771 286.052 31.6579 285.972 31.3571C285.532 29.6123 284.73 27.9789 283.62 26.5618C283.426 26.3319 283.16 26.1734 282.866 26.1114C282.571 26.0493 282.264 26.0873 281.993 26.2192L278.72 27.8144C278.517 27.9136 278.342 28.0626 278.212 28.2473C278.082 28.4321 278 28.6468 277.975 28.8713C277.439 33.0075 278.467 37.1946 280.856 40.6149C283.554 44.4334 287.17 47.5127 291.372 49.5694C291.593 49.6671 291.837 49.705 292.077 49.6793C292.318 49.6535 292.548 49.565 292.744 49.4226L295.762 47.1815C296.018 46.9918 296.198 46.7172 296.27 46.407C296.342 46.0968 296.301 45.7712 296.154 45.4885C295.191 43.5954 293.678 42.0366 291.813 41.0162C291.568 40.8824 291.288 40.8276 291.011 40.8591C290.733 40.8907 290.473 41.007 290.264 41.1923L289.137 42.1709C288.914 42.3716 288.629 42.4921 288.33 42.5133C288.03 42.5346 287.731 42.4555 287.481 42.2884C286.384 41.5446 284.541 39.7635 282.748 35.5652C282.632 35.2555 282.634 34.9142 282.753 34.6057C282.872 34.2973 283.1 34.0432 283.395 33.8917Z" fill="white"/>
<path d="M161.46 118.63L150.843 136.075C149.766 137.844 150.33 140.149 152.101 141.224L169.57 151.827C171.342 152.902 173.65 152.339 174.727 150.57L185.344 133.126C186.421 131.357 185.857 129.052 184.086 127.977L166.617 117.374C164.845 116.299 162.537 116.861 161.46 118.63Z" fill="#0061FF"/>
<path d="M178.76 137.536C178.911 137.322 179.018 137.08 179.074 136.824C179.129 136.568 179.133 136.304 179.085 136.046C179.036 135.789 178.937 135.544 178.792 135.326C178.647 135.108 178.459 134.921 178.241 134.776C174.059 131.08 169.268 128.133 164.08 126.067C163.849 125.938 163.595 125.857 163.333 125.829C163.07 125.801 162.805 125.826 162.552 125.902C162.299 125.979 162.065 126.106 161.863 126.276C161.66 126.445 161.495 126.654 161.375 126.889C158.954 134.032 159.787 131.351 158.749 135.5C158.629 135.968 158.687 136.464 158.911 136.893C159.135 137.321 159.51 137.651 159.964 137.82C160.437 138.008 160.963 138.012 161.439 137.831C161.915 137.649 162.305 137.296 162.531 136.841C162.786 136.313 163.031 135.784 163.276 135.265C163.355 135.117 163.463 134.985 163.594 134.879C163.725 134.774 163.876 134.695 164.039 134.65C164.201 134.604 164.371 134.592 164.538 134.613C164.705 134.635 164.866 134.69 165.011 134.776C166.792 135.681 168.505 136.715 170.136 137.868C170.279 137.958 170.402 138.075 170.498 138.213C170.594 138.35 170.662 138.506 170.696 138.67C170.731 138.835 170.732 139.004 170.7 139.169C170.668 139.334 170.603 139.491 170.509 139.63L169.47 140.99C169.166 141.398 169.033 141.908 169.099 142.412C169.164 142.916 169.424 143.375 169.823 143.691C170.189 143.999 170.652 144.169 171.131 144.169C171.61 144.169 172.073 143.999 172.439 143.691C173.204 143.035 177.427 138.925 178.76 137.536Z" fill="white"/>
<path d="M165.245 128.847C165.461 128.982 165.636 129.171 165.755 129.395L166.343 128.417L165.098 127.663L164.52 128.642C164.776 128.644 165.026 128.715 165.245 128.847Z" fill="#0061FF"/>
<path d="M163.276 129.336C163.41 129.118 163.599 128.939 163.825 128.817L162.845 128.24L162.09 129.473L163.07 130.06C163.071 129.804 163.142 129.554 163.276 129.336Z" fill="#0061FF"/>
<path d="M163.756 131.294C163.536 131.162 163.356 130.973 163.237 130.746L162.649 131.724L163.893 132.478L164.481 131.499C164.226 131.493 163.977 131.422 163.756 131.294Z" fill="#0061FF"/>
<path d="M165.931 130.089C165.92 130.345 165.846 130.594 165.715 130.813C165.583 131.031 165.393 131.207 165.167 131.322L166.147 131.91L166.901 130.667L165.931 130.089Z" fill="#0061FF"/>
<path d="M165.246 130.52C165.12 130.702 164.929 130.83 164.711 130.876C164.494 130.922 164.267 130.884 164.077 130.769C163.887 130.655 163.748 130.472 163.689 130.258C163.629 130.044 163.653 129.816 163.757 129.619C163.883 129.437 164.074 129.309 164.292 129.263C164.509 129.216 164.736 129.255 164.926 129.369C165.116 129.484 165.255 129.667 165.315 129.881C165.374 130.095 165.35 130.323 165.246 130.52Z" fill="#0061FF"/>
<path d="M176.26 137.341C176.069 137.655 175.789 137.906 175.455 138.062C175.122 138.217 174.749 138.27 174.385 138.215C174.021 138.159 173.682 137.996 173.411 137.748C173.139 137.5 172.947 137.177 172.859 136.82C172.772 136.462 172.792 136.087 172.918 135.742C173.044 135.396 173.269 135.096 173.566 134.878C173.863 134.66 174.218 134.536 174.586 134.519C174.954 134.503 175.318 134.596 175.633 134.787C175.842 134.913 176.024 135.08 176.169 135.277C176.314 135.473 176.418 135.697 176.476 135.934C176.535 136.171 176.545 136.417 176.508 136.659C176.471 136.9 176.387 137.132 176.26 137.341Z" fill="#0061FF"/>
<path d="M186.012 71.0498C186.291 69.8918 186.828 68.8116 187.583 67.8898C188.338 66.968 189.292 66.2284 190.373 65.7263C193.725 64.1801 197.341 65.9122 198.86 69.1807C200.614 72.9678 199.546 78.8981 193.186 86.58C183.2 86.4724 177.967 83.4583 176.213 79.6712C174.694 76.4027 175.703 72.5275 179.055 70.9715C180.142 70.4489 181.336 70.184 182.543 70.1976C183.75 70.2112 184.937 70.5028 186.012 71.0498Z" fill="#F58D80"/>
<path d="M54.4248 32.8765L32.2462 43.431C29.6273 44.6772 28.516 47.8075 29.764 50.4226L35.7166 62.8964C36.9646 65.5116 40.0992 66.6212 42.7181 65.375L64.8968 54.8205C67.5156 53.5742 68.6269 50.444 67.3789 47.8288L61.4263 35.355C60.1783 32.7399 57.0437 31.6302 54.4248 32.8765Z" fill="#F9E0B2"/>
<path d="M33.6617 56.0947L28.9087 70.2353L39.4633 62.4359L33.6617 56.0947Z" fill="#F9E0B2"/>
<path d="M41.4921 50.6245L44.3536 49.2055C44.3536 49.2055 46.6272 44.8117 46.3136 43.8135C46 42.8153 44.4124 41.1126 44.8436 40.594C45.1734 40.1694 45.6566 39.8907 46.1896 39.8175C46.7226 39.7443 47.2632 39.8825 47.6954 40.2025C48.6754 40.8386 49.8318 44.3615 50.2728 44.4202C51.348 44.0877 52.3857 43.645 53.3696 43.0991C53.7521 42.911 54.1788 42.8307 54.6036 42.867C55.0285 42.9032 55.4354 43.0545 55.7804 43.3046C56.0125 43.4699 56.1797 43.7108 56.253 43.9859C56.3263 44.261 56.3013 44.553 56.1822 44.8117L55.8098 45.6435L56.633 46.0643C56.9242 46.2148 57.1441 46.4739 57.245 46.7854C57.3459 47.0969 57.3197 47.4356 57.172 47.7279L56.8584 48.3542L57.3876 48.5694C57.5493 48.6369 57.6949 48.7377 57.8149 48.8652C57.935 48.9927 58.0266 49.1441 58.084 49.3095C58.1414 49.4749 58.1631 49.6504 58.1478 49.8248C58.1325 49.9991 58.0805 50.1682 57.9952 50.3211L57.7012 50.8496L57.8286 50.9376C58.0813 51.1192 58.2567 51.3887 58.3202 51.693C58.3837 51.9974 58.3307 52.3144 58.1716 52.5817L57.8678 53.0905L50.3022 56.9168C49.6056 57.2768 48.8411 57.4869 48.058 57.5333L45.2062 58.4336C45.0587 58.4797 44.8995 58.4715 44.7574 58.4105C44.6154 58.3494 44.5 58.2396 44.4321 58.1009L41.2079 51.515C41.1659 51.4383 41.1399 51.354 41.1315 51.267C41.1231 51.18 41.1325 51.0923 41.1591 51.009C41.1857 50.9257 41.2289 50.8487 41.2861 50.7826C41.3433 50.7166 41.4134 50.6628 41.4921 50.6245Z" fill="white"/>
<path d="M225.065 85.2984C241.832 81.5013 257.326 86.7566 259.668 97.042C260.834 102.19 258.492 107.621 253.788 112.23L264.039 125.863L247.017 117.3C242.803 119.726 238.242 121.495 233.493 122.545C216.725 126.342 201.231 121.087 198.889 110.802C196.547 100.516 208.287 89.0857 225.065 85.2984Z" fill="#F9E0B2"/>
<path d="M241.217 103.147C241.128 105.287 240.405 107.353 239.141 109.083C237.877 110.813 236.128 112.131 234.114 112.868C232.1 113.606 229.913 113.731 227.828 113.228C225.743 112.725 223.855 111.616 222.401 110.041C220.947 108.466 219.993 106.496 219.66 104.381C219.327 102.265 219.63 100.098 220.53 98.1537C221.429 96.2095 222.886 94.5753 224.716 93.4575C226.545 92.3398 228.666 91.7887 230.809 91.8739C233.686 91.9909 236.399 93.2443 238.351 95.3584C240.302 97.4726 241.333 100.274 241.217 103.147Z" fill="#F8CC7F"/>
<path d="M224.506 104.185C224.47 104.948 224.586 105.711 224.846 106.429C225.106 107.148 225.506 107.808 226.023 108.371C226.54 108.935 227.163 109.39 227.857 109.712C228.551 110.034 229.302 110.216 230.066 110.247C230.831 110.278 231.594 110.158 232.312 109.893C233.029 109.628 233.688 109.224 234.248 108.704C234.809 108.185 235.261 107.559 235.579 106.864C235.897 106.169 236.074 105.418 236.1 104.654L224.506 104.185Z" fill="#F0EFEF"/>
<path d="M14.0825 133.201L8.55537 134.307L9.24137 139.513L3.83179 140.834L3.88078 145.893L0 147.547L0.832995 149.504L6.02698 147.293L5.98778 142.507L11.6032 141.127L10.927 136.009L15.9445 135.002L14.0825 133.201Z" fill="#F58D80"/>
<path d="M382.678 176.027L381.14 170.606L375.995 171.702L374.24 166.437L369.193 166.877L367.233 163.149L365.342 164.147L367.968 169.128L372.741 168.707L374.574 174.197L379.63 173.111L381.032 178.023L382.678 176.027Z" fill="#F8CC7F"/>
<path d="M15.0032 75.3941L11.9064 76.3434L9.82882 71.5385L5.13463 72.3703L2.99824 69.0235L1.30285 70.1098L4.16444 74.5721L8.61362 73.7892L10.7794 78.7898L15.4246 77.3611L15.0032 75.3941Z" fill="#4D90FF"/>
<path d="M129.663 94.8102C128.186 93.8611 126.509 93.268 124.763 93.078C123.508 92.9606 118.03 92.9704 117.325 94.2817C116.619 95.5931 122.362 99.3217 122.666 100.878C122.969 102.434 119.343 126.479 118.285 131.215C117.775 133.574 115.786 138.007 113.895 141.902C116.609 142.333 119.912 144.544 121.989 146.12C124.655 140.307 127.379 133.76 127.722 130.687C128.448 124.521 130.741 95.7008 129.663 94.8102Z" fill="#F8A491"/>
<path d="M145.548 53.3156C143.676 53.1591 133.915 60.5963 133.915 60.5963L133.474 61.1737C133.474 61.1737 146.665 63.3951 147.283 62.9841C148.949 61.8685 147.087 53.4428 145.548 53.3156ZM133.945 60.8312C137.13 58.5217 143.686 55.6838 145.097 55.0869C145.946 57.0805 146.353 59.2334 146.293 61.3988C144.735 61.2715 137.806 61.4281 133.945 60.8312Z" fill="#476EB5"/>
<path d="M131.29 47.131C129.595 42.6099 127.948 42.8252 126.772 42.972C125.596 43.1188 120.344 46.8863 120.834 49.7047C121.324 52.523 131.859 60.9193 131.859 60.9193L132.554 60.1169C132.554 60.1169 132.976 51.6619 131.29 47.131ZM122.47 49.4307C122.225 48.0019 125.871 44.9585 127.076 44.5377C127.306 44.4989 127.542 44.4989 127.772 44.5377C127.997 44.6062 128.752 45.0172 129.791 47.6692C131.04 51.6508 131.781 55.7738 131.996 59.9407C127.772 56.4863 122.754 50.6735 122.441 49.4502L122.47 49.4307Z" fill="#476EB5"/>
<path d="M131.697 59.7153L131.215 61.3996C131.053 61.9661 131.381 62.5565 131.949 62.7183L132.523 62.8822C133.091 63.044 133.682 62.7159 133.844 62.1495L134.326 60.4652C134.488 59.8987 134.159 59.3084 133.592 59.1466L133.017 58.9826C132.45 58.8208 131.859 59.1489 131.697 59.7153Z" fill="#476EB5"/>
<path d="M142.636 99.5463L106.376 89.1924C105.43 88.9257 104.621 88.3083 104.115 87.4663C103.608 86.6242 103.443 85.621 103.652 84.6613L110.012 54.9598L157.307 68.4454L146.664 98.2447C146.213 99.4876 144.439 100.065 142.636 99.5463Z" fill="#F37458"/>
<path d="M157.455 75.3824L106.093 60.8308L106.495 57.3861C106.55 56.8995 106.711 56.4308 106.966 56.0125C107.221 55.5943 107.564 55.2367 107.972 54.9646C108.38 54.6926 108.842 54.5126 109.326 54.4373C109.811 54.362 110.306 54.3932 110.778 54.5287L157.2 67.906C158.856 68.3757 159.856 69.7653 159.366 70.9004L157.455 75.3824Z" fill="#F9E0B2"/>
<path d="M132.732 60.8602L130.732 67.8516L131.712 68.1311L133.712 61.1397L132.732 60.8602Z" fill="#476EB5"/>
<path d="M131.715 68.0735L124.208 94.3382L125.433 94.6874L132.94 68.4227L131.715 68.0735Z" fill="#476EB5"/>
<path d="M120.304 94.7694L120.432 93.2233C119.271 92.8907 118.129 92.4954 117.011 92.0392L116.806 90.8649C116.159 89.2502 115.434 90.3951 115.218 90.767C115.173 91.5412 115.232 92.318 115.394 93.0765C115.394 93.0765 117.844 95.6599 118.893 96.6385C119.412 97.118 121.059 98.4587 121.059 98.4587L122.372 96.6385L120.304 94.7694Z" fill="#F8A491"/>
</svg>
