<svg width="40" height="40" viewBox="0 0 40 40" fill="none" xmlns="http://www.w3.org/2000/svg">
<path d="M16 10H11C10.7348 10 10.4804 10.1054 10.2929 10.2929C10.1054 10.4804 10 10.7348 10 11V16C10 16.2652 10.1054 16.5196 10.2929 16.7071C10.4804 16.8946 10.7348 17 11 17C11.2652 17 11.5196 16.8946 11.7071 16.7071C11.8946 16.5196 12 16.2652 12 16V12H16C16.2652 12 16.5196 11.8946 16.7071 11.7071C16.8946 11.5196 17 11.2652 17 11C17 10.7348 16.8946 10.4804 16.7071 10.2929C16.5196 10.1054 16.2652 10 16 10ZM16 28H12V24C12 23.7348 11.8946 23.4804 11.7071 23.2929C11.5196 23.1054 11.2652 23 11 23C10.7348 23 10.4804 23.1054 10.2929 23.2929C10.1054 23.4804 10 23.7348 10 24V29C10 29.2652 10.1054 29.5196 10.2929 29.7071C10.4804 29.8946 10.7348 30 11 30H16C16.2652 30 16.5196 29.8946 16.7071 29.7071C16.8946 29.5196 17 29.2652 17 29C17 28.7348 16.8946 28.4804 16.7071 28.2929C16.5196 28.1054 16.2652 28 16 28ZM29 10H24C23.7348 10 23.4804 10.1054 23.2929 10.2929C23.1054 10.4804 23 10.7348 23 11C23 11.2652 23.1054 11.5196 23.2929 11.7071C23.4804 11.8946 23.7348 12 24 12H28V16C28 16.2652 28.1054 16.5196 28.2929 16.7071C28.4804 16.8946 28.7348 17 29 17C29.2652 17 29.5196 16.8946 29.7071 16.7071C29.8946 16.5196 30 16.2652 30 16V11C30 10.7348 29.8946 10.4804 29.7071 10.2929C29.5196 10.1054 29.2652 10 29 10ZM29 23C28.7348 23 28.4804 23.1054 28.2929 23.2929C28.1054 23.4804 28 23.7348 28 24V28H24C23.7348 28 23.4804 28.1054 23.2929 28.2929C23.1054 28.4804 23 28.7348 23 29C23 29.2652 23.1054 29.5196 23.2929 29.7071C23.4804 29.8946 23.7348 30 24 30H29C29.2652 30 29.5196 29.8946 29.7071 29.7071C29.8946 29.5196 30 29.2652 30 29V24C30 23.7348 29.8946 23.4804 29.7071 23.2929C29.5196 23.1054 29.2652 23 29 23Z" fill="white"/>
</svg>
