<svg width="32" height="32" viewBox="0 0 32 32" fill="none" xmlns="http://www.w3.org/2000/svg">
<path d="M27.9998 14H26.6665V12.6667C26.6665 12.313 26.526 11.9739 26.276 11.7238C26.0259 11.4738 25.6868 11.3333 25.3332 11.3333C24.9795 11.3333 24.6404 11.4738 24.3904 11.7238C24.1403 11.9739 23.9998 12.313 23.9998 12.6667V14H22.6665C22.3129 14 21.9737 14.1405 21.7237 14.3905C21.4736 14.6406 21.3332 14.9797 21.3332 15.3333C21.3332 15.6869 21.4736 16.0261 21.7237 16.2761C21.9737 16.5262 22.3129 16.6667 22.6665 16.6667H23.9998V18C23.9998 18.3536 24.1403 18.6928 24.3904 18.9428C24.6404 19.1928 24.9795 19.3333 25.3332 19.3333C25.6868 19.3333 26.0259 19.1928 26.276 18.9428C26.526 18.6928 26.6665 18.3536 26.6665 18V16.6667H27.9998C28.3535 16.6667 28.6926 16.5262 28.9426 16.2761C29.1927 16.0261 29.3332 15.6869 29.3332 15.3333C29.3332 14.9797 29.1927 14.6406 28.9426 14.3905C28.6926 14.1405 28.3535 14 27.9998 14ZM17.7332 16.2933C18.4446 15.6775 19.0152 14.9158 19.4063 14.06C19.7974 13.2042 19.9998 12.2743 19.9998 11.3333C19.9998 9.56521 19.2975 7.86952 18.0472 6.61928C16.797 5.36904 15.1013 4.66666 13.3332 4.66666C11.5651 4.66666 9.86937 5.36904 8.61913 6.61928C7.36888 7.86952 6.6665 9.56521 6.6665 11.3333C6.66649 12.2743 6.86891 13.2042 7.26 14.06C7.6511 14.9158 8.22173 15.6775 8.93317 16.2933C7.06669 17.1385 5.48312 18.5034 4.37181 20.2247C3.2605 21.9461 2.66847 23.9511 2.6665 26C2.6665 26.3536 2.80698 26.6928 3.05703 26.9428C3.30708 27.1928 3.64622 27.3333 3.99984 27.3333C4.35346 27.3333 4.6926 27.1928 4.94265 26.9428C5.19269 26.6928 5.33317 26.3536 5.33317 26C5.33317 23.8783 6.17603 21.8434 7.67632 20.3431C9.17661 18.8428 11.2114 18 13.3332 18C15.4549 18 17.4897 18.8428 18.99 20.3431C20.4903 21.8434 21.3332 23.8783 21.3332 26C21.3332 26.3536 21.4736 26.6928 21.7237 26.9428C21.9737 27.1928 22.3129 27.3333 22.6665 27.3333C23.0201 27.3333 23.3593 27.1928 23.6093 26.9428C23.8594 26.6928 23.9998 26.3536 23.9998 26C23.9979 23.9511 23.4058 21.9461 22.2945 20.2247C21.1832 18.5034 19.5997 17.1385 17.7332 16.2933ZM13.3332 15.3333C12.542 15.3333 11.7687 15.0987 11.1109 14.6592C10.4531 14.2197 9.9404 13.595 9.63765 12.8641C9.3349 12.1332 9.25569 11.3289 9.41003 10.553C9.56437 9.77704 9.94533 9.06431 10.5047 8.5049C11.0642 7.94549 11.7769 7.56452 12.5528 7.41018C13.3287 7.25584 14.133 7.33505 14.8639 7.63781C15.5948 7.94056 16.2195 8.45325 16.659 9.11104C17.0986 9.76884 17.3332 10.5422 17.3332 11.3333C17.3332 12.3942 16.9117 13.4116 16.1616 14.1618C15.4115 14.9119 14.394 15.3333 13.3332 15.3333Z" fill="#4D90FF"/>
</svg>
