<svg width="32" height="32" viewBox="0 0 32 32" fill="none" xmlns="http://www.w3.org/2000/svg">
<path d="M16.0002 20C17.4147 20 18.7712 19.4381 19.7714 18.4379C20.7716 17.4377 21.3335 16.0812 21.3335 14.6667V6.66668C21.3335 5.25219 20.7716 3.89563 19.7714 2.89544C18.7712 1.89525 17.4147 1.33334 16.0002 1.33334C14.5857 1.33334 13.2291 1.89525 12.2289 2.89544C11.2287 3.89563 10.6668 5.25219 10.6668 6.66668V14.6667C10.6668 16.0812 11.2287 17.4377 12.2289 18.4379C13.2291 19.4381 14.5857 20 16.0002 20ZM13.3335 6.66668C13.3335 5.95943 13.6144 5.28116 14.1145 4.78106C14.6146 4.28096 15.2929 4.00001 16.0002 4.00001C16.7074 4.00001 17.3857 4.28096 17.8858 4.78106C18.3859 5.28116 18.6668 5.95943 18.6668 6.66668V14.6667C18.6668 15.3739 18.3859 16.0522 17.8858 16.5523C17.3857 17.0524 16.7074 17.3333 16.0002 17.3333C15.2929 17.3333 14.6146 17.0524 14.1145 16.5523C13.6144 16.0522 13.3335 15.3739 13.3335 14.6667V6.66668ZM26.6668 14.6667C26.6668 14.3131 26.5264 13.9739 26.2763 13.7239C26.0263 13.4738 25.6871 13.3333 25.3335 13.3333C24.9799 13.3333 24.6407 13.4738 24.3907 13.7239C24.1406 13.9739 24.0002 14.3131 24.0002 14.6667C24.0002 16.7884 23.1573 18.8232 21.657 20.3235C20.1567 21.8238 18.1219 22.6667 16.0002 22.6667C13.8784 22.6667 11.8436 21.8238 10.3433 20.3235C8.84302 18.8232 8.00016 16.7884 8.00016 14.6667C8.00016 14.3131 7.85969 13.9739 7.60964 13.7239C7.35959 13.4738 7.02045 13.3333 6.66683 13.3333C6.31321 13.3333 5.97407 13.4738 5.72402 13.7239C5.47397 13.9739 5.3335 14.3131 5.3335 14.6667C5.33585 17.2631 6.28513 19.7695 8.00336 21.716C9.72159 23.6625 12.0908 24.9155 14.6668 25.24V28H12.0002C11.6465 28 11.3074 28.1405 11.0574 28.3905C10.8073 28.6406 10.6668 28.9797 10.6668 29.3333C10.6668 29.687 10.8073 30.0261 11.0574 30.2762C11.3074 30.5262 11.6465 30.6667 12.0002 30.6667H20.0002C20.3538 30.6667 20.6929 30.5262 20.943 30.2762C21.193 30.0261 21.3335 29.687 21.3335 29.3333C21.3335 28.9797 21.193 28.6406 20.943 28.3905C20.6929 28.1405 20.3538 28 20.0002 28H17.3335V25.24C19.9095 24.9155 22.2787 23.6625 23.997 21.716C25.7152 19.7695 26.6645 17.2631 26.6668 14.6667Z" fill="#4D90FF"/>
</svg>
