<svg width="16" height="16" viewBox="0 0 16 16" fill="none" xmlns="http://www.w3.org/2000/svg">
<path d="M11.8041 5.13807C12.0644 4.87772 12.0644 4.45561 11.8041 4.19526C11.5437 3.93491 11.1216 3.93491 10.8613 4.19526L4.66602 10.3905L1.80409 7.5286C1.54374 7.26825 1.12163 7.26825 0.861278 7.5286C0.600928 7.78894 0.600928 8.21106 0.861278 8.4714L4.19461 11.8047C4.45496 12.0651 4.87707 12.0651 5.13742 11.8047L11.8041 5.13807Z" fill="#359766"/>
<path d="M15.1374 5.13807C15.3978 4.87772 15.3978 4.45561 15.1374 4.19526C14.8771 3.93491 14.455 3.93491 14.1946 4.19526L7.9962 10.3937C7.73452 10.1862 7.35311 10.2034 7.11128 10.4453C6.85093 10.7056 6.85093 11.1277 7.11128 11.3881L7.52794 11.8047C7.78829 12.0651 8.2104 12.0651 8.47075 11.8047L15.1374 5.13807Z" fill="#359766"/>
<path d="M5.55409 7.94526L5.13742 7.5286C4.87707 7.26825 4.45496 7.26825 4.19461 7.5286C3.93426 7.78894 3.93426 8.21106 4.19461 8.4714L4.61128 8.88807C4.87163 9.14842 5.29374 9.14842 5.55409 8.88807C5.81444 8.62772 5.81444 8.20561 5.55409 7.94526Z" fill="#359766"/>
</svg>
