<svg width="34" height="34" viewBox="0 0 34 34" fill="none" xmlns="http://www.w3.org/2000/svg">
<path d="M24.9368 20.417C24.5952 20.2472 22.3748 19.2285 22.0332 19.0587C21.6916 18.8889 21.35 18.8889 21.0084 19.2285C20.6668 19.568 19.9836 20.5868 19.642 20.9263C19.4712 21.2659 19.1296 21.2659 18.788 21.0961C17.5924 20.5868 16.3968 19.9076 15.372 19.0587C14.518 18.2097 13.664 17.191 12.9808 16.1723C12.81 15.8327 12.9808 15.4931 13.1516 15.3233C13.3224 15.1536 13.4932 14.814 13.8348 14.6442C14.0056 14.4744 14.1764 14.1348 14.1764 13.965C14.3472 13.7953 14.3472 13.4557 14.1764 13.2859C14.0056 13.1161 13.1516 11.0787 12.81 10.2297C12.6392 9.0412 12.2976 9.0412 11.956 9.0412C11.7852 9.0412 11.4436 9.0412 11.102 9.0412C10.7604 9.0412 10.248 9.38077 10.0772 9.55056C9.05242 10.5693 8.54002 11.7578 8.54002 13.1161C8.71082 14.6442 9.22322 16.1723 10.248 17.5306C12.1268 20.2472 14.518 22.4544 17.4216 23.8127C18.2756 24.1523 18.9588 24.4919 19.8128 24.6617C20.6668 25.0012 21.5208 25.0012 22.5456 24.8315C23.7412 24.6617 24.766 23.8127 25.4492 22.794C25.7908 22.1149 25.7908 21.4357 25.62 20.7566C25.62 20.7566 25.2784 20.5868 24.9368 20.417ZM29.2069 4.96629C22.5456 -1.65543 11.7852 -1.65543 5.12401 4.96629C-0.341601 10.3995 -1.3664 18.7191 2.3912 25.3408L0 34L9.05242 31.623C11.6144 32.9813 14.3472 33.6604 17.08 33.6604C26.474 33.6604 33.9893 26.1898 33.9893 16.8514C34.1601 12.437 32.2813 8.19226 29.2069 4.96629ZM24.5952 28.7366C22.3748 30.0949 19.8128 30.9438 17.08 30.9438C14.518 30.9438 12.1268 30.2647 9.90642 29.0762L9.39402 28.7366L4.09921 30.0949L5.46561 25.0012L5.12401 24.4919C1.0248 17.7004 3.07441 9.21099 9.73562 4.96629C16.3968 0.721598 24.9368 2.92884 29.0361 9.38077C33.1353 16.0025 31.2565 24.6617 24.5952 28.7366Z" fill="#80B0FF"/>
</svg>
