<svg width="31" height="31" viewBox="0 0 31 31" fill="none" xmlns="http://www.w3.org/2000/svg">
<path d="M26.039 5.9537C24.6676 4.58196 22.8495 3.74796 20.9152 3.60336C18.9809 3.45876 17.059 4.01318 15.499 5.16579C13.8555 3.9434 11.8099 3.38911 9.77418 3.61454C7.73842 3.83997 5.86369 4.82837 4.5275 6.38071C3.19131 7.93304 2.49293 9.934 2.57298 11.9806C2.65304 14.0273 3.50559 15.9676 4.95895 17.4108L14.5819 27.0337C14.7019 27.1548 14.8448 27.2509 15.0022 27.3164C15.1596 27.382 15.3284 27.4158 15.499 27.4158C15.6695 27.4158 15.8383 27.382 15.9957 27.3164C16.1531 27.2509 16.296 27.1548 16.416 27.0337L26.039 17.4108C26.7915 16.6587 27.3886 15.7656 27.7959 14.7827C28.2032 13.7998 28.4129 12.7462 28.4129 11.6822C28.4129 10.6183 28.2032 9.5647 27.7959 8.58177C27.3886 7.59884 26.7915 6.70581 26.039 5.9537ZM24.2177 15.5895L15.499 24.2954L6.7802 15.5895C6.01188 14.818 5.4885 13.8368 5.2757 12.769C5.06291 11.7011 5.17018 10.5943 5.58405 9.58715C5.99793 8.58005 6.69998 7.71759 7.60215 7.10796C8.50431 6.49834 9.56641 6.16869 10.6552 6.16037C12.1098 6.16393 13.5035 6.74464 14.5302 7.77495C14.6503 7.89602 14.7931 7.99211 14.9505 8.05769C15.1079 8.12326 15.2768 8.15703 15.4473 8.15703C15.6178 8.15703 15.7866 8.12326 15.944 8.05769C16.1014 7.99211 16.2443 7.89602 16.3644 7.77495C17.4214 6.85901 18.7869 6.37885 20.1845 6.43165C21.5822 6.48445 22.9076 7.06628 23.8924 8.05936C24.8773 9.05245 25.4481 10.3826 25.4893 11.7807C25.5305 13.1787 25.0391 14.5402 24.1144 15.5895H24.2177Z" fill="#D13329"/>
</svg>
