<svg width="16" height="16" viewBox="0 0 16 16" fill="none" xmlns="http://www.w3.org/2000/svg">
<path d="M14.3333 7.33331V11.3333C14.3333 14 13.6667 14.6666 11 14.6666H4.33333C1.66667 14.6666 1 14 1 11.3333V4.66665C1 1.99998 1.66667 1.33331 4.33333 1.33331H5.33333C6.33333 1.33331 6.55333 1.62665 6.93333 2.13331L7.93333 3.46665C8.18667 3.79998 8.33333 3.99998 9 3.99998H11C13.6667 3.99998 14.3333 4.66665 14.3333 7.33331Z" stroke="#75839D" stroke-miterlimit="10"/>
<path d="M5.3335 1.33331H11.3335C12.6668 1.33331 13.3335 1.99998 13.3335 3.33331V4.25331" stroke="#75839D" stroke-miterlimit="10" stroke-linecap="round" stroke-linejoin="round"/>
<path d="M9.33333 10H6" stroke="#75839D" stroke-miterlimit="10" stroke-linecap="round" stroke-linejoin="round"/>
</svg>
